<svg width="264" height="257" viewBox="0 0 264 257" fill="none" xmlns="http://www.w3.org/2000/svg">
<path d="M106.516 58.054C115.046 60.0193 124.892 74.1992 125.108 87.3276C125.153 87.8175 125.012 88.3064 124.714 88.6976C124.415 89.0887 123.981 89.3538 123.497 89.4403C118.328 90.3149 115.822 91.4941 111.135 94.1866C110.152 94.8351 108.894 94.1866 108.187 93.2039C98.311 78.3853 97.9867 67.6546 102.91 59.4199C104.079 58.0245 104.816 57.6511 106.516 58.054Z" fill="white"/>
<path d="M130.031 95.572C129.864 95.5609 129.697 95.5877 129.542 95.6503C129.387 95.7128 129.248 95.8096 129.136 95.9334C129.023 96.0571 128.94 96.2047 128.893 96.365C128.846 96.5253 128.835 96.6943 128.862 96.8593C129.363 99.8957 130.719 104.131 131.043 105.802C131.049 105.824 131.049 105.848 131.043 105.87C132.586 111.501 135.632 112.326 137.215 112.346C137.302 112.348 137.389 112.369 137.467 112.409C137.545 112.449 137.613 112.506 137.666 112.576C137.719 112.646 137.756 112.727 137.773 112.813C137.79 112.899 137.787 112.988 137.765 113.073L133.284 130.761C133.284 130.761 133.284 130.84 133.215 130.889L128.98 120.08C128.922 119.941 128.892 119.793 128.892 119.642C128.892 119.492 128.922 119.344 128.98 119.205C129.094 119.022 129.15 118.808 129.139 118.592C129.129 118.376 129.053 118.168 128.921 117.996C128.824 117.88 128.702 117.788 128.564 117.727C128.426 117.665 128.276 117.636 128.125 117.643C127.878 117.648 127.641 117.738 127.454 117.899C127.268 118.06 127.142 118.281 127.101 118.524C127.059 118.767 127.103 119.016 127.225 119.23C127.347 119.444 127.541 119.609 127.771 119.696C127.915 119.745 128.046 119.826 128.153 119.933C128.261 120.041 128.342 120.171 128.39 120.315L132.625 131.125L132.458 131.066L117.581 121.436C117.453 121.351 117.345 121.24 117.262 121.111C117.18 120.982 117.124 120.837 117.1 120.686C117.076 120.534 117.084 120.38 117.123 120.231C117.161 120.083 117.23 119.944 117.325 119.824C118.308 118.488 119.291 116.385 116.962 111.442C116.254 109.948 114.22 105.733 112.579 103.129C112.49 102.987 112.37 102.868 112.228 102.779C112.086 102.691 111.926 102.636 111.76 102.618C111.593 102.6 111.425 102.62 111.267 102.676C111.11 102.732 110.967 102.823 110.85 102.942C100.866 113.181 96.4143 126.035 101.239 138.377C106.064 150.719 117.129 158.502 128.233 159.524C128.331 159.532 128.429 159.515 128.519 159.475C128.608 159.435 128.686 159.372 128.745 159.294C128.804 159.215 128.842 159.123 128.856 159.026C128.869 158.928 128.858 158.829 128.823 158.738L121.944 131.39C121.679 130.25 122.563 130.132 123.035 130.407L134.827 137.168C134.901 137.207 134.983 137.229 135.067 137.233C135.151 137.237 135.235 137.224 135.313 137.193C135.391 137.162 135.462 137.115 135.52 137.055C135.579 136.995 135.624 136.923 135.652 136.844L139.583 124.718C139.828 123.804 140.565 123.598 140.958 124.423L154.146 148.94C154.182 149.034 154.241 149.116 154.318 149.18C154.395 149.244 154.487 149.288 154.585 149.306C154.684 149.325 154.785 149.318 154.88 149.287C154.975 149.256 155.061 149.201 155.128 149.127C162.646 140.883 165.034 127.725 160.209 115.363C155.384 103.001 141.263 96.4957 130.031 95.572Z" fill="white"/>
<path d="M129.609 164.869C123.966 164.733 118.426 163.327 113.401 160.757C108.376 158.186 103.994 154.517 100.581 150.021C97.0713 145.312 94.6912 139.858 93.6246 134.082C92.558 128.306 92.8334 122.362 94.4294 116.709C96.3927 110.035 100.088 104 105.14 99.2177C108.354 96.1223 103.46 91.2385 100.227 94.3044C95.0953 99.183 91.1738 105.193 88.7751 111.855C86.3764 118.517 85.5668 125.647 86.4108 132.677C87.2573 139.434 89.6271 145.911 93.3414 151.618C97.0556 157.326 102.017 162.116 107.853 165.626C114.445 169.51 121.929 171.622 129.579 171.758C134.021 171.837 134.021 164.879 129.579 164.879L129.609 164.869Z" fill="white"/>
<path d="M162.714 158.197C173.416 148.371 177.346 133.719 174.85 119.608C173.165 109.181 167.889 99.6702 159.935 92.7207C151.981 85.7712 141.848 81.8197 131.289 81.5494C130.806 81.4978 130.318 81.5482 129.857 81.6975C129.395 81.8468 128.97 82.0916 128.609 82.416C128.248 82.7404 127.959 83.1371 127.761 83.5803C127.564 84.0236 127.462 84.5035 127.462 84.9888C127.462 85.4741 127.564 85.9539 127.761 86.3972C127.959 86.8404 128.248 87.2371 128.609 87.5615C128.97 87.8859 129.395 88.1307 129.857 88.28C130.318 88.4293 130.806 88.4797 131.289 88.4281C138.485 88.6515 145.474 90.8882 151.463 94.8842C152.594 95.6159 153.674 96.4235 154.696 97.3015C156.762 99.0829 158.654 101.057 160.346 103.198C167.421 112.454 170.409 124.895 167.873 136.038C166.385 142.688 162.877 148.715 157.831 153.294C154.549 156.32 159.452 161.155 162.744 158.207L162.714 158.197Z" fill="white"/>
<path d="M120.039 98.1231C124.967 96.1975 128.623 93.7678 128.205 92.6961C127.786 91.6245 123.451 92.3167 118.522 94.2422C113.594 96.1678 109.938 98.5975 110.356 99.6692C110.775 100.741 115.11 100.049 120.039 98.1231Z" fill="white"/>
<path d="M127.516 137.424L136.841 142.337C136.915 142.381 136.999 142.407 137.085 142.414C137.17 142.42 137.257 142.407 137.337 142.374C137.416 142.342 137.488 142.292 137.545 142.227C137.602 142.163 137.644 142.086 137.667 142.003L140.919 132.049C141.175 131.253 141.666 131.223 142 131.99L155.256 161.961C155.358 162.209 155.374 162.485 155.301 162.743C155.228 163.001 155.07 163.228 154.853 163.386L153.389 164.368C153.25 164.477 153.087 164.55 152.914 164.584C152.74 164.617 152.562 164.609 152.392 164.56C152.223 164.511 152.067 164.423 151.938 164.303C151.809 164.182 151.71 164.033 151.65 163.867L143.661 144.931C143.258 143.949 142.757 144.008 142.55 145.039L141.322 151.279C141.317 151.384 141.281 151.485 141.22 151.57C141.158 151.655 141.074 151.72 140.976 151.757C140.878 151.795 140.771 151.803 140.669 151.781C140.566 151.759 140.472 151.708 140.398 151.633L135.485 147.879C134.669 147.26 134.257 147.545 134.571 148.518L140.919 168.24C140.976 168.398 140.998 168.567 140.981 168.734C140.965 168.901 140.912 169.063 140.825 169.207C140.738 169.351 140.621 169.474 140.481 169.567C140.341 169.66 140.182 169.72 140.015 169.744L137.48 170.196C137.2 170.24 136.914 170.183 136.673 170.035C136.432 169.888 136.251 169.659 136.163 169.39L126.651 138.102C126.464 137.365 126.838 137.06 127.516 137.424Z" fill="white"/>
<path d="M106.516 58.054C116.019 61.5031 122.357 69.6592 125.108 87.3275C125.173 87.821 125.039 88.32 124.738 88.7157C124.436 89.1114 123.99 89.3718 123.497 89.4402" fill="white"/>
<path d="M165.211 89.4698L164.022 88.4085L163.884 88.3004C153.537 80.6749 151.709 80.331 139.484 77.0882H139.268L137.303 76.8032C136.998 76.7832 136.707 76.6716 136.467 76.483C136.227 76.2943 136.05 76.0376 135.958 75.7464C135.867 75.4552 135.866 75.1431 135.955 74.8512C136.044 74.5593 136.219 74.3012 136.458 74.1107L165.437 50.7332C165.707 50.523 166.032 50.3933 166.373 50.3589C166.714 50.3244 167.058 50.3865 167.365 50.5382C167.673 50.6899 167.932 50.925 168.112 51.2166C168.292 51.5083 168.386 51.8447 168.385 52.1875L167.726 88.5461C167.728 88.839 167.639 89.1252 167.472 89.3658C167.305 89.6063 167.067 89.7896 166.792 89.8906C166.518 89.9915 166.218 90.0053 165.935 89.93C165.652 89.8547 165.399 89.694 165.211 89.4698Z" fill="white"/>
<path d="M180.619 134.063L180.324 135.635C180.329 135.688 180.329 135.74 180.324 135.793C176.806 148.145 175.578 149.55 167.903 159.583L167.756 159.74L166.351 161.194C166.123 161.397 165.962 161.664 165.888 161.96C165.815 162.255 165.832 162.566 165.939 162.852C166.045 163.138 166.235 163.385 166.484 163.561C166.733 163.736 167.029 163.833 167.333 163.838L204.517 164.575C204.862 164.581 205.201 164.488 205.495 164.309C205.789 164.13 206.026 163.87 206.178 163.561C206.331 163.253 206.392 162.907 206.356 162.564C206.319 162.222 206.186 161.897 205.972 161.627L183.184 133.316C183.01 133.083 182.77 132.908 182.494 132.816C182.218 132.723 181.921 132.717 181.642 132.798C181.363 132.879 181.115 133.044 180.932 133.27C180.749 133.496 180.64 133.773 180.619 134.063Z" fill="white"/>
<path d="M170.822 95.9751L171.804 97.3606L171.893 97.4982C178.654 109.29 178.771 111.255 180.737 124.433C180.746 124.505 180.746 124.577 180.737 124.649L180.806 126.791C180.789 127.113 180.871 127.433 181.041 127.707C181.21 127.981 181.459 128.198 181.754 128.328C182.049 128.458 182.376 128.495 182.693 128.435C183.01 128.375 183.301 128.22 183.528 127.99L211.632 100.24C211.879 99.9966 212.051 99.6878 212.128 99.35C212.205 99.0121 212.184 98.6592 212.067 98.3329C211.951 98.0065 211.743 97.7204 211.469 97.5081C211.195 97.2958 210.866 97.1662 210.521 97.1346L172.158 93.4398C171.844 93.3834 171.52 93.4284 171.233 93.5685C170.946 93.7085 170.711 93.9361 170.562 94.2185C170.414 94.5009 170.358 94.8234 170.405 95.1392C170.452 95.455 170.598 95.7477 170.822 95.9751Z" fill="white"/>
<path d="M80.2694 123.273L80.4365 121.681C80.4322 121.626 80.4322 121.57 80.4365 121.514C82.8833 108.897 83.9937 107.403 90.7839 96.7316L90.9117 96.5645L92.1891 94.9923C92.4 94.7715 92.5391 94.4922 92.5883 94.1909C92.6375 93.8896 92.5944 93.5805 92.4648 93.3042C92.3351 93.0278 92.1249 92.7972 91.8617 92.6425C91.5986 92.4878 91.2948 92.4162 90.9903 92.4373L53.8456 94.894C53.5083 94.9265 53.1867 95.0522 52.9167 95.2569C52.6467 95.4617 52.4389 95.7375 52.3166 96.0535C52.1943 96.3695 52.1622 96.7133 52.224 97.0465C52.2857 97.3796 52.4389 97.6891 52.6664 97.9402L77.8226 124.266C78.0181 124.474 78.2722 124.619 78.5513 124.68C78.8305 124.741 79.1216 124.716 79.3865 124.609C79.6513 124.502 79.8774 124.316 80.035 124.078C80.1926 123.84 80.2743 123.559 80.2694 123.273Z" fill="white"/>
<path d="M98.8122 166.727L100.119 167.65C100.159 167.689 100.205 167.719 100.257 167.739C111.371 174.175 113.218 174.323 125.727 176.2H125.944L127.909 176.259C128.212 176.249 128.512 176.33 128.768 176.492C129.025 176.654 129.228 176.889 129.351 177.166C129.473 177.444 129.51 177.752 129.456 178.051C129.402 178.35 129.26 178.625 129.049 178.843L102.88 205.286C102.637 205.533 102.328 205.705 101.991 205.783C101.653 205.86 101.3 205.839 100.973 205.722C100.647 205.606 100.361 205.398 100.149 205.124C99.9363 204.85 99.8067 204.521 99.7752 204.176L96.4341 167.994C96.3873 167.701 96.4331 167.401 96.5652 167.135C96.6973 166.87 96.909 166.652 97.1709 166.512C97.4327 166.372 97.7316 166.318 98.0259 166.357C98.3201 166.395 98.595 166.524 98.8122 166.727Z" fill="white"/>
<path d="M80.6918 131.773L80.9178 133.454V133.621C83.9248 146.857 85.1335 148.361 92.7098 159.416L92.8376 159.593L94.2526 161.204C94.4794 161.432 94.6326 161.722 94.6923 162.038C94.7519 162.354 94.7153 162.68 94.587 162.974C94.4588 163.269 94.245 163.518 93.9733 163.69C93.7016 163.861 93.3847 163.947 93.0636 163.936L53.59 162.59C53.2427 162.578 52.9061 162.467 52.6196 162.27C52.3331 162.073 52.1087 161.799 51.9725 161.479C51.8364 161.159 51.7942 160.808 51.8509 160.465C51.9077 160.122 52.061 159.802 52.2929 159.544L78.0485 130.82C78.2471 130.589 78.5113 130.424 78.806 130.346C79.1007 130.269 79.4119 130.283 79.6986 130.386C79.9853 130.489 80.2337 130.677 80.4111 130.925C80.5885 131.173 80.6864 131.469 80.6918 131.773Z" fill="white"/>
<path d="M134.61 177.428L136.202 177.271H136.369C148.997 174.893 150.49 173.802 161.191 167.061L161.368 166.933L162.941 165.666C163.163 165.457 163.443 165.32 163.745 165.273C164.046 165.226 164.355 165.272 164.63 165.404C164.906 165.535 165.135 165.747 165.287 166.011C165.44 166.276 165.509 166.58 165.486 166.884L162.833 203.98C162.807 204.325 162.684 204.657 162.478 204.935C162.272 205.214 161.99 205.428 161.667 205.553C161.343 205.677 160.991 205.707 160.651 205.639C160.311 205.571 159.998 205.408 159.747 205.169L133.618 179.924C133.39 179.733 133.229 179.475 133.156 179.186C133.084 178.898 133.104 178.594 133.213 178.318C133.323 178.042 133.517 177.807 133.768 177.647C134.019 177.487 134.314 177.411 134.61 177.428Z" fill="white"/>
</svg>
