<svg width="414" height="54" viewBox="0 0 414 54" fill="none" xmlns="http://www.w3.org/2000/svg">
<path d="M29.5662 12.6101H29.2893L26.2441 18.8666L17.7729 34.3142L9.30162 18.8666L6.2564 12.6101H5.97956V42.1764H-0.000137329V3.5298H7.41912L17.7729 23.1853H18.1051L28.4588 3.5298H35.5459V42.1764H29.5662V12.6101Z" fill="white"/>
<path d="M55.9462 42.8408C53.953 42.8408 52.1259 42.4901 50.4648 41.7888C48.8407 41.0875 47.4565 40.0909 46.3123 38.799C45.168 37.4701 44.2821 35.8829 43.6546 34.0374C43.0271 32.1549 42.7134 30.0693 42.7134 27.7808C42.7134 25.4923 43.0271 23.4252 43.6546 21.5796C44.2821 19.6971 45.168 18.1099 46.3123 16.818C47.4565 15.4892 48.8407 14.4741 50.4648 13.7728C52.1259 13.0715 53.953 12.7208 55.9462 12.7208C57.9395 12.7208 59.7481 13.0715 61.3723 13.7728C63.0333 14.4741 64.4359 15.4892 65.5802 16.818C66.7244 18.1099 67.6103 19.6971 68.2378 21.5796C68.8653 23.4252 69.1791 25.4923 69.1791 27.7808C69.1791 30.0693 68.8653 32.1549 68.2378 34.0374C67.6103 35.8829 66.7244 37.4701 65.5802 38.799C64.4359 40.0909 63.0333 41.0875 61.3723 41.7888C59.7481 42.4901 57.9395 42.8408 55.9462 42.8408ZM55.9462 37.8577C58.0133 37.8577 59.6743 37.2302 60.9293 35.9752C62.1843 34.6833 62.8118 32.7639 62.8118 30.217V25.3446C62.8118 22.7977 62.1843 20.8968 60.9293 19.6418C59.6743 18.3499 58.0133 17.7039 55.9462 17.7039C53.8792 17.7039 52.2181 18.3499 50.9631 19.6418C49.7081 20.8968 49.0806 22.7977 49.0806 25.3446V30.217C49.0806 32.7639 49.7081 34.6833 50.9631 35.9752C52.2181 37.2302 53.8792 37.8577 55.9462 37.8577Z" fill="white"/>
<path d="M75.9036 42.1764V13.3852H81.9387V18.1469H82.2156C82.8431 16.5966 83.7843 15.3046 85.0393 14.2711C86.3312 13.2376 88.0845 12.7208 90.2992 12.7208C93.2522 12.7208 95.5407 13.699 97.1648 15.6553C98.8258 17.5747 99.6564 20.3246 99.6564 23.9051V42.1764H93.6213V24.6802C93.6213 20.177 91.8126 17.9254 88.1953 17.9254C87.4201 17.9254 86.645 18.0361 85.8698 18.2576C85.1316 18.4421 84.4672 18.7374 83.8766 19.1435C83.286 19.5495 82.8061 20.0663 82.437 20.6938C82.1048 21.3213 81.9387 22.0595 81.9387 22.9085V42.1764H75.9036Z" fill="white"/>
<path d="M126.126 37.4148H125.85C125.222 39.1127 124.189 40.4415 122.749 41.4012C121.346 42.361 119.685 42.8408 117.766 42.8408C114.112 42.8408 111.288 41.5304 109.295 38.9097C107.301 36.2521 106.305 32.5424 106.305 27.7808C106.305 23.0192 107.301 19.328 109.295 16.7073C111.288 14.0496 114.112 12.7208 117.766 12.7208C119.685 12.7208 121.346 13.2007 122.749 14.1604C124.189 15.0832 125.222 16.412 125.85 18.1469H126.126V1.20437H132.161V42.1764H126.126V37.4148ZM119.593 37.6362C121.439 37.6362 122.989 37.1933 124.244 36.3074C125.499 35.3846 126.126 34.185 126.126 32.7085V22.8531C126.126 21.3766 125.499 20.1955 124.244 19.3096C122.989 18.3868 121.439 17.9254 119.593 17.9254C117.489 17.9254 115.81 18.6082 114.555 19.974C113.3 21.3028 112.672 23.0746 112.672 25.2893V30.2724C112.672 32.4871 113.3 34.2773 114.555 35.643C115.81 36.9718 117.489 37.6362 119.593 37.6362Z" fill="white"/>
<path d="M161.883 42.1764C160.295 42.1764 159.077 41.7335 158.228 40.8476C157.379 39.9248 156.863 38.7621 156.678 37.3594H156.401C155.848 39.1681 154.832 40.5338 153.356 41.4566C151.88 42.3794 150.089 42.8408 147.985 42.8408C144.995 42.8408 142.689 42.0657 141.064 40.5154C139.477 38.9651 138.684 36.8796 138.684 34.2588C138.684 31.3797 139.717 29.2204 141.784 27.7808C143.888 26.3413 146.952 25.6215 150.975 25.6215H156.18V23.1853C156.18 21.4135 155.7 20.0478 154.74 19.0881C153.78 18.1284 152.286 17.6485 150.255 17.6485C148.557 17.6485 147.173 18.0177 146.103 18.7559C145.032 19.4941 144.128 20.4354 143.39 21.5796L139.791 18.313C140.751 16.6888 142.098 15.36 143.833 14.3265C145.568 13.256 147.838 12.7208 150.643 12.7208C154.371 12.7208 157.232 13.5883 159.225 15.3231C161.218 17.058 162.215 19.5495 162.215 22.7977V37.2487H165.26V42.1764H161.883ZM149.702 38.2453C151.584 38.2453 153.135 37.8393 154.353 37.0272C155.571 36.1782 156.18 35.0524 156.18 33.6498V29.4972H151.086C146.915 29.4972 144.829 30.7891 144.829 33.3729V34.3696C144.829 35.6615 145.254 36.6396 146.103 37.304C146.989 37.9315 148.188 38.2453 149.702 38.2453Z" fill="white"/>
<path d="M188.459 13.3852H194.272L182.147 47.8793C181.815 48.839 181.427 49.651 180.984 50.3154C180.578 51.0168 180.08 51.5704 179.489 51.9765C178.935 52.4194 178.253 52.7331 177.44 52.9177C176.628 53.1392 175.669 53.2499 174.561 53.2499H171.073V48.3222H175.946L177.607 43.4498L167.142 13.3852H173.177L178.935 30.3277L180.596 36.5843H180.873L182.7 30.3277L188.459 13.3852Z" fill="white"/>
<path d="M242.331 12.6101H242.054L239.009 18.8666L230.538 34.3142L222.067 18.8666L219.022 12.6101H218.745V42.1764H212.765V3.5298H220.184L230.538 23.1853H230.87L241.224 3.5298H248.311V42.1764H242.331V12.6101Z" fill="white"/>
<path d="M268.711 42.8408C266.718 42.8408 264.891 42.4901 263.23 41.7888C261.606 41.0875 260.222 40.0909 259.077 38.799C257.933 37.4701 257.047 35.8829 256.42 34.0374C255.792 32.1549 255.479 30.0693 255.479 27.7808C255.479 25.4923 255.792 23.4252 256.42 21.5796C257.047 19.6971 257.933 18.1099 259.077 16.818C260.222 15.4892 261.606 14.4741 263.23 13.7728C264.891 13.0715 266.718 12.7208 268.711 12.7208C270.705 12.7208 272.513 13.0715 274.137 13.7728C275.798 14.4741 277.201 15.4892 278.345 16.818C279.49 18.1099 280.375 19.6971 281.003 21.5796C281.63 23.4252 281.944 25.4923 281.944 27.7808C281.944 30.0693 281.63 32.1549 281.003 34.0374C280.375 35.8829 279.49 37.4701 278.345 38.799C277.201 40.0909 275.798 41.0875 274.137 41.7888C272.513 42.4901 270.705 42.8408 268.711 42.8408ZM268.711 37.8577C270.778 37.8577 272.439 37.2302 273.694 35.9752C274.949 34.6833 275.577 32.7639 275.577 30.217V25.3446C275.577 22.7977 274.949 20.8968 273.694 19.6418C272.439 18.3499 270.778 17.7039 268.711 17.7039C266.644 17.7039 264.983 18.3499 263.728 19.6418C262.473 20.8968 261.846 22.7977 261.846 25.3446V30.217C261.846 32.7639 262.473 34.6833 263.728 35.9752C264.983 37.2302 266.644 37.8577 268.711 37.8577Z" fill="white"/>
<path d="M288.669 42.1764V13.3852H294.704V18.922H294.981C295.387 17.4455 296.236 16.1536 297.528 15.0463C298.82 13.9389 300.61 13.3852 302.898 13.3852H304.504V19.1988H302.123C299.724 19.1988 297.878 19.5864 296.586 20.3616C295.331 21.1367 294.704 22.281 294.704 23.7943V42.1764H288.669Z" fill="white"/>
<path d="M309.864 42.1764V13.3852H315.899V18.1469H316.176C316.804 16.5966 317.745 15.3046 319 14.2711C320.292 13.2376 322.045 12.7208 324.26 12.7208C327.213 12.7208 329.501 13.699 331.125 15.6553C332.786 17.5747 333.617 20.3246 333.617 23.9051V42.1764H327.582V24.6802C327.582 20.177 325.773 17.9254 322.156 17.9254C321.381 17.9254 320.606 18.0361 319.83 18.2576C319.092 18.4421 318.428 18.7374 317.837 19.1435C317.247 19.5495 316.767 20.0663 316.398 20.6938C316.065 21.3213 315.899 22.0595 315.899 22.9085V42.1764H309.864Z" fill="white"/>
<path d="M345.027 8.23605C343.772 8.23605 342.849 7.94076 342.259 7.35017C341.705 6.75958 341.428 6.00289 341.428 5.0801V4.13885C341.428 3.21605 341.705 2.45936 342.259 1.86878C342.849 1.27819 343.772 0.982895 345.027 0.982895C346.282 0.982895 347.186 1.27819 347.74 1.86878C348.294 2.45936 348.57 3.21605 348.57 4.13885V5.0801C348.57 6.00289 348.294 6.75958 347.74 7.35017C347.186 7.94076 346.282 8.23605 345.027 8.23605ZM341.982 13.3852H348.017V42.1764H341.982V13.3852Z" fill="white"/>
<path d="M356.635 42.1764V13.3852H362.67V18.1469H362.947C363.574 16.5966 364.515 15.3046 365.77 14.2711C367.062 13.2376 368.816 12.7208 371.03 12.7208C373.983 12.7208 376.272 13.699 377.896 15.6553C379.557 17.5747 380.387 20.3246 380.387 23.9051V42.1764H374.352V24.6802C374.352 20.177 372.544 17.9254 368.926 17.9254C368.151 17.9254 367.376 18.0361 366.601 18.2576C365.863 18.4421 365.198 18.7374 364.608 19.1435C364.017 19.5495 363.537 20.0663 363.168 20.6938C362.836 21.3213 362.67 22.0595 362.67 22.9085V42.1764H356.635Z" fill="white"/>
<path d="M414 44.8894C414 47.8793 412.856 50.1309 410.567 51.6443C408.279 53.1576 404.55 53.9143 399.383 53.9143C397.02 53.9143 395.009 53.7482 393.348 53.416C391.724 53.1207 390.376 52.6778 389.306 52.0872C388.272 51.4966 387.516 50.7768 387.036 49.9279C386.556 49.0789 386.316 48.1007 386.316 46.9934C386.316 45.4062 386.741 44.1696 387.589 43.2837C388.475 42.3979 389.693 41.7888 391.244 41.4566V40.8476C389.066 40.1462 387.977 38.6698 387.977 36.4182C387.977 34.9417 388.475 33.8159 389.472 33.0407C390.469 32.2287 391.668 31.6565 393.071 31.3243V31.1029C391.373 30.2908 390.063 29.165 389.14 27.7254C388.254 26.249 387.811 24.5326 387.811 22.5763C387.811 19.6233 388.789 17.2425 390.745 15.4338C392.739 13.6252 395.581 12.7208 399.272 12.7208C401.302 12.7208 403.037 13.0161 404.477 13.6067V12.8316C404.477 11.5397 404.772 10.543 405.362 9.84171C405.99 9.10348 406.95 8.73436 408.242 8.73436H412.671V13.6067H406.802V14.7694C408.094 15.6184 409.091 16.7257 409.792 18.0915C410.493 19.4203 410.844 20.9152 410.844 22.5763C410.844 25.4923 409.847 27.8546 407.854 29.6633C405.861 31.4351 403.019 32.321 399.327 32.321C397.925 32.321 396.67 32.1733 395.562 31.878C394.824 32.1364 394.178 32.5055 393.625 32.9854C393.071 33.4283 392.794 34.0189 392.794 34.7571C392.794 35.5323 393.145 36.086 393.846 36.4182C394.547 36.7504 395.544 36.9165 396.836 36.9165H403.923C407.466 36.9165 410.032 37.6362 411.619 39.0758C413.206 40.4785 414 42.4163 414 44.8894ZM408.352 45.5538C408.352 44.5572 407.965 43.7636 407.19 43.173C406.451 42.5824 405.086 42.2871 403.092 42.2871H393.348C392.019 43.0623 391.354 44.1696 391.354 45.6092C391.354 46.7904 391.816 47.7316 392.739 48.4329C393.698 49.1712 395.304 49.5403 397.556 49.5403H401.321C406.008 49.5403 408.352 48.2115 408.352 45.5538ZM399.327 27.9469C401.099 27.9469 402.465 27.5593 403.425 26.7842C404.421 25.9721 404.92 24.7356 404.92 23.0746V21.9672C404.92 20.3062 404.421 19.0881 403.425 18.313C402.465 17.5009 401.099 17.0949 399.327 17.0949C397.556 17.0949 396.171 17.5009 395.175 18.313C394.215 19.0881 393.735 20.3062 393.735 21.9672V23.0746C393.735 24.7356 394.215 25.9721 395.175 26.7842C396.171 27.5593 397.556 27.9469 399.327 27.9469Z" fill="white"/>
</svg>
