<svg width="414" height="24" viewBox="0 0 414 24" fill="none" xmlns="http://www.w3.org/2000/svg">
<path d="M0.479149 17.4467H3.06379V2.87472H0.479149V17.4467Z" fill="white"/>
<path d="M7.03492 17.4467H9.50815V11.0743C9.50815 9.44772 9.28534 7.68749 9.17393 6.15008H9.26306L10.7559 9.24719L15.3013 17.4467H17.9528V2.87472H15.4796V9.20263C15.4796 10.8292 15.7024 12.6785 15.8138 14.1714H15.7247L14.2318 11.0743L9.68641 2.87472H7.03492V17.4467Z" fill="white"/>
<path d="M24.8656 17.4467H27.4502V5.05829H31.6614V2.87472H20.6544V5.05829H24.8656V17.4467Z" fill="white"/>
<path d="M34.3552 17.4467H43.3569V15.2632H36.9398V10.9629H42.176V8.77928H36.9398V5.05829H43.1341V2.87472H34.3552V17.4467Z" fill="white"/>
<path d="M52.717 17.7141C54.7 17.7141 56.3934 16.9565 57.3738 15.9762V9.55913H52.2936V11.6759H55.0565V14.8175C54.5886 15.2409 53.7865 15.4637 52.9621 15.4637C50.0432 15.4637 48.5058 13.4584 48.5058 10.1384C48.5058 6.86308 50.2437 4.85776 52.8284 4.85776C54.1875 4.85776 55.0342 5.41479 55.7695 6.1278L57.151 4.45669C56.2374 3.52088 54.8114 2.60734 52.7393 2.60734C48.8623 2.60734 45.8543 5.43707 45.8543 10.2053C45.8543 15.0403 48.7732 17.7141 52.717 17.7141Z" fill="white"/>
<path d="M60.8704 17.4467H63.455V11.7427H65.6832L68.8248 17.4467H71.7214L68.2455 11.3639C69.9835 10.7623 71.1421 9.42544 71.1421 7.1973C71.1421 3.94422 68.8248 2.87472 65.7946 2.87472H60.8704V17.4467ZM63.455 9.69282V4.94688H65.5272C67.5102 4.94688 68.602 5.5262 68.602 7.1973C68.602 8.84612 67.5102 9.69282 65.5272 9.69282H63.455Z" fill="white"/>
<path d="M74.3238 17.4467H76.9084V2.87472H74.3238V17.4467Z" fill="white"/>
<path d="M83.8207 17.4467H86.4054V5.05829H90.6165V2.87472H79.6095V5.05829H83.8207V17.4467Z" fill="white"/>
<path d="M95.3909 17.4467H97.9755V12.0324L102.365 2.87472H99.6689L98.0869 6.59571C97.6636 7.68749 97.2179 8.69016 96.75 9.80422H96.6609C96.193 8.69016 95.7919 7.68749 95.3686 6.59571L93.7866 2.87472H91.0237L95.3909 12.0324V17.4467Z" fill="white"/>
<path d="M113.982 23.0171H115.697V0.735703H113.982V23.0171Z" fill="white"/>
<path d="M129.251 17.4467H131.835V10.9851H137.74V17.4467H140.324V2.87472H137.74V8.73472H131.835V2.87472H129.251V17.4467Z" fill="white"/>
<path d="M149.751 17.7141C153.138 17.7141 155.255 15.8425 155.255 11.052V2.87472H152.782V11.2525C152.782 14.4165 151.534 15.4637 149.751 15.4637C147.991 15.4637 146.81 14.4165 146.81 11.2525V2.87472H144.226V11.052C144.226 15.8425 146.387 17.7141 149.751 17.7141Z" fill="white"/>
<path d="M159.16 17.4467H161.5V10.7846C161.5 9.42544 161.277 7.48696 161.165 6.15008H161.255L162.413 9.53685L164.82 16.0876H166.357L168.741 9.53685L169.922 6.15008H170.011C169.878 7.48696 169.677 9.42544 169.677 10.7846V17.4467H172.061V2.87472H169.12L166.602 10.0048C166.29 10.9183 166.001 11.8987 165.689 12.8568H165.599C165.288 11.8987 164.976 10.9183 164.664 10.0048L162.079 2.87472H159.16V17.4467Z" fill="white"/>
<path d="M176.03 17.4467H178.614V2.87472H176.03V17.4467Z" fill="white"/>
<path d="M182.586 17.4467H191.231V15.2632H185.17V2.87472H182.586V17.4467Z" fill="white"/>
<path d="M194.037 17.4467H196.622V2.87472H194.037V17.4467Z" fill="white"/>
<path d="M203.534 17.4467H206.119V5.05829H210.33V2.87472H199.323V5.05829H203.534V17.4467Z" fill="white"/>
<path d="M215.104 17.4467H217.689V12.0324L222.078 2.87472H219.382L217.8 6.59571C217.377 7.68749 216.931 8.69016 216.463 9.80422H216.374C215.906 8.69016 215.505 7.68749 215.082 6.59571L213.5 2.87472H210.737L215.104 12.0324V17.4467Z" fill="white"/>
<path d="M233.695 23.0171H235.411V0.735703H233.695V23.0171Z" fill="white"/>
<path d="M248.964 17.4467H251.549V11.7427H253.777L256.918 17.4467H259.815L256.339 11.3639C258.077 10.7623 259.236 9.42544 259.236 7.1973C259.236 3.94422 256.918 2.87472 253.888 2.87472H248.964V17.4467ZM251.549 9.69282V4.94688H253.621C255.604 4.94688 256.696 5.5262 256.696 7.1973C256.696 8.84612 255.604 9.69282 253.621 9.69282H251.549Z" fill="white"/>
<path d="M262.417 17.4467H265.002V2.87472H262.417V17.4467Z" fill="white"/>
<path d="M275.078 17.7141C277.061 17.7141 278.755 16.9565 279.735 15.9762V9.55913H274.655V11.6759H277.418V14.8175C276.95 15.2409 276.148 15.4637 275.323 15.4637C272.404 15.4637 270.867 13.4584 270.867 10.1384C270.867 6.86308 272.605 4.85776 275.19 4.85776C276.549 4.85776 277.395 5.41479 278.131 6.1278L279.512 4.45669C278.599 3.52088 277.173 2.60734 275.1 2.60734C271.223 2.60734 268.215 5.43707 268.215 10.2053C268.215 15.0403 271.134 17.7141 275.078 17.7141Z" fill="white"/>
<path d="M283.232 17.4467H285.816V10.9851H291.721V17.4467H294.305V2.87472H291.721V8.73472H285.816V2.87472H283.232V17.4467Z" fill="white"/>
<path d="M301.215 17.4467H303.799V5.05829H308.01V2.87472H297.003V5.05829H301.215V17.4467Z" fill="white"/>
<path d="M310.704 17.4467H319.706V15.2632H313.289V10.9629H318.525V8.77928H313.289V5.05829H319.483V2.87472H310.704V17.4467Z" fill="white"/>
<path d="M328.62 17.7141C332.43 17.7141 335.06 14.8175 335.06 10.0939C335.06 5.39251 332.43 2.60734 328.62 2.60734C324.832 2.60734 322.203 5.39251 322.203 10.0939C322.203 14.8175 324.832 17.7141 328.62 17.7141ZM328.62 15.4637C326.325 15.4637 324.855 13.3692 324.855 10.0939C324.855 6.8408 326.325 4.85776 328.62 4.85776C330.915 4.85776 332.386 6.8408 332.386 10.0939C332.386 13.3692 330.915 15.4637 328.62 15.4637Z" fill="white"/>
<path d="M343.701 17.7141C347.088 17.7141 349.204 15.8425 349.204 11.052V2.87472H346.731V11.2525C346.731 14.4165 345.483 15.4637 343.701 15.4637C341.941 15.4637 340.76 14.4165 340.76 11.2525V2.87472H338.175V11.052C338.175 15.8425 340.336 17.7141 343.701 17.7141Z" fill="white"/>
<path d="M357.148 17.7141C360.423 17.7141 362.384 15.7534 362.384 13.3915C362.384 11.2748 361.159 10.183 359.443 9.44772L357.46 8.62331C356.257 8.13312 355.143 7.70977 355.143 6.57342C355.143 5.50392 356.056 4.85776 357.438 4.85776C358.685 4.85776 359.666 5.32567 360.602 6.10552L361.916 4.45669C360.78 3.32034 359.131 2.60734 357.438 2.60734C354.586 2.60734 352.536 4.38985 352.536 6.70711C352.536 8.84613 354.051 9.98248 355.477 10.5841L357.482 11.453C358.797 12.0101 359.733 12.3889 359.733 13.5921C359.733 14.7284 358.841 15.4637 357.193 15.4637C355.856 15.4637 354.452 14.7953 353.405 13.8149L351.89 15.5751C353.271 16.9343 355.187 17.7141 357.148 17.7141Z" fill="white"/>
<path d="M365.301 17.4467H367.774V11.0743C367.774 9.44772 367.552 7.68749 367.44 6.15008H367.529L369.022 9.24719L373.568 17.4467H376.219V2.87472H373.746V9.20263C373.746 10.8292 373.969 12.6785 374.08 14.1714H373.991L372.498 11.0743L367.953 2.87472H365.301V17.4467Z" fill="white"/>
<path d="M380.191 17.4467H389.192V15.2632H382.775V10.9629H388.011V8.77928H382.775V5.05829H388.97V2.87472H380.191V17.4467Z" fill="white"/>
<path d="M396.703 17.7141C399.979 17.7141 401.939 15.7534 401.939 13.3915C401.939 11.2748 400.714 10.183 398.998 9.44772L397.015 8.62331C395.812 8.13312 394.698 7.70977 394.698 6.57342C394.698 5.50392 395.611 4.85776 396.993 4.85776C398.241 4.85776 399.221 5.32567 400.157 6.10552L401.471 4.45669C400.335 3.32034 398.686 2.60734 396.993 2.60734C394.141 2.60734 392.091 4.38985 392.091 6.70711C392.091 8.84613 393.606 9.98248 395.032 10.5841L397.037 11.453C398.352 12.0101 399.288 12.3889 399.288 13.5921C399.288 14.7284 398.397 15.4637 396.748 15.4637C395.411 15.4637 394.007 14.7953 392.96 13.8149L391.445 15.5751C392.826 16.9343 394.742 17.7141 396.703 17.7141Z" fill="white"/>
<path d="M408.764 17.7141C412.039 17.7141 414 15.7534 414 13.3915C414 11.2748 412.775 10.183 411.059 9.44772L409.076 8.62331C407.873 8.13312 406.759 7.70977 406.759 6.57342C406.759 5.50392 407.672 4.85776 409.054 4.85776C410.301 4.85776 411.282 5.32567 412.218 6.10552L413.532 4.45669C412.396 3.32034 410.747 2.60734 409.054 2.60734C406.202 2.60734 404.152 4.38985 404.152 6.70711C404.152 8.84613 405.667 9.98248 407.093 10.5841L409.098 11.453C410.413 12.0101 411.349 12.3889 411.349 13.5921C411.349 14.7284 410.457 15.4637 408.809 15.4637C407.472 15.4637 406.068 14.7953 405.021 13.8149L403.506 15.5751C404.887 16.9343 406.803 17.7141 408.764 17.7141Z" fill="white"/>
</svg>
