<svg width="102" height="108" viewBox="0 0 102 108" fill="none" xmlns="http://www.w3.org/2000/svg">
<path d="M71.1476 13.6533L70.9521 13.8584L84.3609 26.6147L84.5564 26.4096L71.1476 13.6533Z" fill="#E6E6E6"/>
<path d="M84.5776 25.0264L84.2945 25.0435L84.3799 26.4371L82.9825 26.4203L82.9795 26.7036L84.6814 26.7238L84.5776 25.0264Z" fill="#E6E6E6"/>
<path d="M72.5292 13.5642L72.5262 13.8474L71.1289 13.8306L71.2144 15.2243L70.9311 15.2414L70.8276 13.5438L72.5292 13.5642Z" fill="#E6E6E6"/>
<path d="M77.7544 21.6914C78.6152 21.6914 79.313 20.9941 79.313 20.134C79.313 19.2738 78.6152 18.5765 77.7544 18.5765C76.8936 18.5765 76.1958 19.2738 76.1958 20.134C76.1958 20.9941 76.8936 21.6914 77.7544 21.6914Z" fill="#E6E6E6"/>
<path d="M31.1353 13.6532L17.7266 26.4095L17.922 26.6147L31.3308 13.8583L31.1353 13.6532Z" fill="#E6E6E6"/>
<path d="M17.6021 26.7238L19.304 26.7036L19.3007 26.4203L17.9035 26.4371L17.989 25.0435L17.7058 25.0264L17.6021 26.7238Z" fill="#E6E6E6"/>
<path d="M31.4557 13.5438L31.3521 15.2414L31.0689 15.2243L31.1542 13.8306L29.757 13.8474L29.7539 13.5642L31.4557 13.5438Z" fill="#E6E6E6"/>
<path d="M24.5288 21.6914C25.3896 21.6914 26.0875 20.9941 26.0875 20.134C26.0875 19.2738 25.3896 18.5765 24.5288 18.5765C23.668 18.5765 22.9702 19.2738 22.9702 20.134C22.9702 20.9941 23.668 21.6914 24.5288 21.6914Z" fill="#E6E6E6"/>
<path d="M62.7607 32.9146H39.2396C38.9015 32.9142 38.5774 32.7798 38.3383 32.541C38.0992 32.3021 37.9647 31.9782 37.9644 31.6403V1.90733C37.9647 1.56949 38.0992 1.2456 38.3383 1.00671C38.5774 0.767819 38.9015 0.633441 39.2396 0.633057H62.7607C63.0988 0.633441 63.4229 0.767819 63.662 1.00671C63.901 1.2456 64.0355 1.56949 64.0359 1.90733V31.6403C64.0355 31.9782 63.901 32.3021 63.662 32.541C63.4229 32.7798 63.0988 32.9142 62.7607 32.9146ZM39.2396 0.916229C38.9766 0.916524 38.7245 1.02104 38.5386 1.20684C38.3526 1.39264 38.248 1.64456 38.2477 1.90733V31.6403C38.248 31.9031 38.3526 32.155 38.5386 32.3408C38.7245 32.5266 38.9766 32.6311 39.2396 32.6314H62.7607C63.0236 32.6311 63.2757 32.5266 63.4617 32.3408C63.6476 32.155 63.7522 31.9031 63.7525 31.6403V1.90733C63.7522 1.64456 63.6476 1.39264 63.4617 1.20684C63.2757 1.02104 63.0236 0.916524 62.7607 0.916229H39.2396Z" fill="#3F3D56"/>
<path d="M49.0431 14.925H43.8656C43.6966 14.9248 43.5345 14.8576 43.415 14.7382C43.2954 14.6187 43.2282 14.4568 43.228 14.2879V8.18273C43.2282 8.01381 43.2954 7.85186 43.415 7.73241C43.5345 7.61297 43.6966 7.54578 43.8656 7.54559H49.0431C49.2122 7.54578 49.3742 7.61297 49.4938 7.73241C49.6133 7.85186 49.6805 8.01381 49.6807 8.18273V14.2879C49.6805 14.4568 49.6133 14.6187 49.4938 14.7382C49.3742 14.8576 49.2122 14.9248 49.0431 14.925Z" fill="#006DCC"/>
<path d="M59.1037 17.7567H53.9262C53.7571 17.7565 53.5951 17.6893 53.4755 17.5698C53.356 17.4504 53.2888 17.2884 53.2886 17.1195V11.0144C53.2888 10.8455 53.356 10.6835 53.4755 10.5641C53.5951 10.4446 53.7571 10.3774 53.9262 10.3773H59.1037C59.2727 10.3774 59.4348 10.4446 59.5543 10.5641C59.6738 10.6835 59.7411 10.8455 59.7413 11.0144V17.1195C59.7411 17.2884 59.6738 17.4504 59.5543 17.5698C59.4348 17.6893 59.2727 17.7565 59.1037 17.7567Z" fill="#CCCCCC"/>
<path d="M51.027 26.3934H45.8495C45.6805 26.3933 45.5184 26.3261 45.3989 26.2066C45.2793 26.0872 45.2121 25.9252 45.2119 25.7563V19.6512C45.2121 19.4823 45.2793 19.3203 45.3989 19.2009C45.5184 19.0814 45.6805 19.0142 45.8495 19.014H51.027C51.1961 19.0142 51.3581 19.0814 51.4777 19.2009C51.5972 19.3203 51.6644 19.4823 51.6646 19.6512V25.7563C51.6644 25.9252 51.5972 26.0872 51.4777 26.2066C51.3581 26.3261 51.1961 26.3933 51.027 26.3934Z" fill="#FF6584"/>
<path d="M100.725 63.4875H77.2039C76.8659 63.4871 76.5417 63.3527 76.3026 63.1138C76.0636 62.8749 75.9291 62.5511 75.9287 62.2132V32.4802C75.9291 32.1424 76.0636 31.8185 76.3026 31.5796C76.5417 31.3407 76.8659 31.2063 77.2039 31.2059H100.725C101.063 31.2063 101.387 31.3407 101.626 31.5796C101.865 31.8185 102 32.1424 102 32.4802V62.2132C102 62.5511 101.865 62.8749 101.626 63.1138C101.387 63.3527 101.063 63.4871 100.725 63.4875ZM77.2039 31.4891C76.941 31.4894 76.6889 31.5939 76.5029 31.7797C76.317 31.9655 76.2124 32.2174 76.2121 32.4802V62.2132C76.2124 62.476 76.317 62.7279 76.5029 62.9137C76.6889 63.0995 76.941 63.204 77.2039 63.2043H100.725C100.988 63.204 101.24 63.0995 101.426 62.9137C101.612 62.7279 101.717 62.476 101.717 62.2132V32.4802C101.717 32.2174 101.612 31.9655 101.426 31.7797C101.24 31.5939 100.988 31.4894 100.725 31.4891H77.2039Z" fill="#3F3D56"/>
<path d="M93.0027 37.7897H84.9262C84.7758 37.7897 84.6317 37.73 84.5254 37.6238C84.4191 37.5176 84.3594 37.3735 84.3594 37.2233C84.3594 37.0731 84.4191 36.9291 84.5254 36.8229C84.6317 36.7166 84.7758 36.657 84.9262 36.657H93.0027C93.153 36.657 93.2971 36.7166 93.4034 36.8229C93.5097 36.9291 93.5694 37.0731 93.5694 37.2233C93.5694 37.3735 93.5097 37.5176 93.4034 37.6238C93.2971 37.73 93.153 37.7897 93.0027 37.7897Z" fill="#006DCC"/>
<path d="M96.9697 43.1699H80.9584C80.8839 43.17 80.8101 43.1555 80.7412 43.1271C80.6723 43.0987 80.6097 43.057 80.557 43.0044C80.5042 42.9518 80.4624 42.8893 80.4339 42.8205C80.4053 42.7518 80.3906 42.678 80.3906 42.6036C80.3906 42.5291 80.4053 42.4554 80.4339 42.3866C80.4624 42.3178 80.5042 42.2554 80.557 42.2028C80.6097 42.1502 80.6723 42.1085 80.7412 42.0801C80.8101 42.0517 80.8839 42.0371 80.9584 42.0372H96.9697C97.0442 42.0371 97.118 42.0517 97.1869 42.0801C97.2558 42.1085 97.3184 42.1502 97.3711 42.2028C97.4238 42.2554 97.4657 42.3178 97.4942 42.3866C97.5228 42.4554 97.5375 42.5291 97.5375 42.6036C97.5375 42.678 97.5228 42.7518 97.4942 42.8205C97.4657 42.8893 97.4238 42.9518 97.3711 43.0044C97.3184 43.057 97.2558 43.0987 97.1869 43.1271C97.118 43.1555 97.0442 43.17 96.9697 43.1699Z" fill="#CCCCCC"/>
<path d="M96.9697 46.1432H80.9584C80.8839 46.1434 80.8101 46.1288 80.7412 46.1004C80.6723 46.072 80.6097 46.0303 80.557 45.9777C80.5042 45.9251 80.4624 45.8626 80.4339 45.7939C80.4053 45.7251 80.3906 45.6513 80.3906 45.5769C80.3906 45.5024 80.4053 45.4287 80.4339 45.3599C80.4624 45.2912 80.5042 45.2287 80.557 45.1761C80.6097 45.1235 80.6723 45.0818 80.7412 45.0534C80.8101 45.025 80.8839 45.0104 80.9584 45.0106H96.9697C97.0442 45.0104 97.118 45.025 97.1869 45.0534C97.2558 45.0818 97.3184 45.1235 97.3711 45.1761C97.4238 45.2287 97.4657 45.2912 97.4942 45.3599C97.5228 45.4287 97.5375 45.5024 97.5375 45.5769C97.5375 45.6513 97.5228 45.7251 97.4942 45.7939C97.4657 45.8626 97.4238 45.9251 97.3711 45.9777C97.3184 46.0303 97.2558 46.072 97.1869 46.1004C97.118 46.1288 97.0442 46.1434 96.9697 46.1432Z" fill="#CCCCCC"/>
<path d="M96.9697 49.1165H80.9584C80.8839 49.1166 80.8101 49.1021 80.7412 49.0737C80.6723 49.0453 80.6097 49.0036 80.557 48.951C80.5042 48.8984 80.4624 48.8359 80.4339 48.7671C80.4053 48.6984 80.3906 48.6246 80.3906 48.5502C80.3906 48.4757 80.4053 48.402 80.4339 48.3332C80.4624 48.2644 80.5042 48.202 80.557 48.1494C80.6097 48.0968 80.6723 48.0551 80.7412 48.0267C80.8101 47.9983 80.8839 47.9837 80.9584 47.9838H96.9697C97.0442 47.9837 97.118 47.9983 97.1869 48.0267C97.2558 48.0551 97.3184 48.0968 97.3711 48.1494C97.4238 48.202 97.4657 48.2644 97.4942 48.3332C97.5228 48.402 97.5375 48.4757 97.5375 48.5502C97.5375 48.6246 97.5228 48.6984 97.4942 48.7671C97.4657 48.8359 97.4238 48.8984 97.3711 48.951C97.3184 49.0036 97.2558 49.0453 97.1869 49.0737C97.118 49.1021 97.0442 49.1166 96.9697 49.1165Z" fill="#CCCCCC"/>
<path d="M96.9697 52.0898H80.9584C80.8839 52.0899 80.8101 52.0753 80.7412 52.0469C80.6723 52.0185 80.6097 51.9768 80.557 51.9242C80.5042 51.8716 80.4624 51.8092 80.4339 51.7404C80.4053 51.6716 80.3906 51.5979 80.3906 51.5234C80.3906 51.449 80.4053 51.3753 80.4339 51.3065C80.4624 51.2377 80.5042 51.1752 80.557 51.1226C80.6097 51.07 80.6723 51.0283 80.7412 50.9999C80.8101 50.9715 80.8839 50.957 80.9584 50.9571H96.9697C97.0442 50.957 97.118 50.9715 97.1869 50.9999C97.2558 51.0283 97.3184 51.07 97.3711 51.1226C97.4238 51.1752 97.4657 51.2377 97.4942 51.3065C97.5228 51.3753 97.5375 51.449 97.5375 51.5234C97.5375 51.5979 97.5228 51.6716 97.4942 51.7404C97.4657 51.8092 97.4238 51.8716 97.3711 51.9242C97.3184 51.9768 97.2558 52.0185 97.1869 52.0469C97.118 52.0753 97.0442 52.0899 96.9697 52.0898Z" fill="#CCCCCC"/>
<path d="M96.9697 55.063H80.9584C80.8839 55.0632 80.8101 55.0486 80.7412 55.0202C80.6723 54.9918 80.6097 54.9501 80.557 54.8975C80.5042 54.8449 80.4624 54.7824 80.4339 54.7137C80.4053 54.6449 80.3906 54.5712 80.3906 54.4967C80.3906 54.4223 80.4053 54.3485 80.4339 54.2797C80.4624 54.211 80.5042 54.1485 80.557 54.0959C80.6097 54.0433 80.6723 54.0016 80.7412 53.9732C80.8101 53.9448 80.8839 53.9302 80.9584 53.9304H96.9697C97.0442 53.9302 97.118 53.9448 97.1869 53.9732C97.2558 54.0016 97.3184 54.0433 97.3711 54.0959C97.4238 54.1485 97.4657 54.211 97.4942 54.2797C97.5228 54.3485 97.5375 54.4223 97.5375 54.4967C97.5375 54.5712 97.5228 54.6449 97.4942 54.7137C97.4657 54.7824 97.4238 54.8449 97.3711 54.8975C97.3184 54.9501 97.2558 54.9918 97.1869 55.0202C97.118 55.0486 97.0442 55.0632 96.9697 55.063Z" fill="#CCCCCC"/>
<path d="M96.9697 58.0364H80.9584C80.8839 58.0366 80.8101 58.022 80.7412 57.9936C80.6723 57.9652 80.6097 57.9235 80.557 57.8709C80.5042 57.8183 80.4624 57.7558 80.4339 57.687C80.4053 57.6183 80.3906 57.5445 80.3906 57.4701C80.3906 57.3956 80.4053 57.3219 80.4339 57.2531C80.4624 57.1844 80.5042 57.1219 80.557 57.0693C80.6097 57.0167 80.6723 56.975 80.7412 56.9466C80.8101 56.9182 80.8839 56.9036 80.9584 56.9037H96.9697C97.0442 56.9036 97.118 56.9182 97.1869 56.9466C97.2558 56.975 97.3184 57.0167 97.3711 57.0693C97.4238 57.1219 97.4657 57.1844 97.4942 57.2531C97.5228 57.3219 97.5375 57.3956 97.5375 57.4701C97.5375 57.5445 97.5228 57.6183 97.4942 57.687C97.4657 57.7558 97.4238 57.8183 97.3711 57.8709C97.3184 57.9235 97.2558 57.9652 97.1869 57.9936C97.118 58.022 97.0442 58.0366 96.9697 58.0364Z" fill="#CCCCCC"/>
<path d="M24.7963 63.4875H1.27524C0.937141 63.4871 0.613003 63.3527 0.373932 63.1138C0.134862 62.8749 0.000384574 62.5511 0 62.2132V32.4802C0.000384574 32.1424 0.134862 31.8185 0.373932 31.5796C0.613003 31.3407 0.937141 31.2063 1.27524 31.2059H24.7963C25.1344 31.2063 25.4585 31.3407 25.6976 31.5796C25.9367 31.8185 26.0712 32.1424 26.0715 32.4802V62.2132C26.0712 62.5511 25.9367 62.8749 25.6976 63.1138C25.4585 63.3527 25.1344 63.4871 24.7963 63.4875ZM1.27524 31.4891C1.01227 31.4894 0.760164 31.5939 0.57422 31.7797C0.388275 31.9655 0.28368 32.2174 0.283384 32.4802V62.2132C0.28368 62.476 0.388275 62.7279 0.57422 62.9137C0.760164 63.0995 1.01227 63.204 1.27524 63.2043H24.7963C25.0593 63.204 25.3114 63.0995 25.4973 62.9137C25.6833 62.7279 25.7879 62.476 25.7882 62.2132V32.4802C25.7879 32.2174 25.6833 31.9655 25.4973 31.7797C25.3114 31.5939 25.0593 31.4894 24.7963 31.4891H1.27524Z" fill="#3F3D56"/>
<path d="M21.066 38.2259H13.9813C13.831 38.2259 13.6868 38.1662 13.5806 38.06C13.4743 37.9538 13.4146 37.8097 13.4146 37.6595C13.4146 37.5093 13.4743 37.3653 13.5806 37.2591C13.6868 37.1529 13.831 37.0932 13.9813 37.0932H21.066C21.2163 37.0932 21.3605 37.1529 21.4668 37.2591C21.573 37.3653 21.6328 37.5093 21.6328 37.6595C21.6328 37.8097 21.573 37.9538 21.4668 38.06C21.3605 38.1662 21.2163 38.2259 21.066 38.2259Z" fill="#3F3D56"/>
<path d="M21.066 41.1992H13.9813C13.831 41.1992 13.6868 41.1396 13.5806 41.0333C13.4743 40.9271 13.4146 40.7831 13.4146 40.6329C13.4146 40.4827 13.4743 40.3386 13.5806 40.2324C13.6868 40.1262 13.831 40.0665 13.9813 40.0665H21.066C21.2163 40.0665 21.3605 40.1262 21.4668 40.2324C21.573 40.3386 21.6328 40.4827 21.6328 40.6329C21.6328 40.7831 21.573 40.9271 21.4668 41.0333C21.3605 41.1396 21.2163 41.1992 21.066 41.1992Z" fill="#3F3D56"/>
<path d="M10.3459 42.8922H5.16839C4.99934 42.892 4.83726 42.8248 4.71773 42.7054C4.59819 42.586 4.53095 42.424 4.53076 42.2551V36.15C4.53095 35.981 4.59819 35.8191 4.71773 35.6996C4.83726 35.5802 4.99934 35.513 5.16839 35.5128H10.3459C10.5149 35.513 10.677 35.5802 10.7965 35.6996C10.9161 35.8191 10.9833 35.981 10.9835 36.15V42.2551C10.9833 42.424 10.9161 42.586 10.7965 42.7054C10.677 42.8248 10.5149 42.892 10.3459 42.8922Z" fill="#006DCC"/>
<path d="M21.0166 47.2873H5.00525C4.93074 47.2875 4.85693 47.2729 4.78806 47.2445C4.71918 47.2161 4.65658 47.1744 4.60385 47.1218C4.55112 47.0692 4.50928 47.0067 4.48074 46.938C4.45219 46.8692 4.4375 46.7955 4.4375 46.721C4.4375 46.6465 4.45219 46.5728 4.48074 46.504C4.50928 46.4353 4.55112 46.3728 4.60385 46.3202C4.65658 46.2676 4.71918 46.2259 4.78806 46.1975C4.85693 46.1691 4.93074 46.1545 5.00525 46.1547H21.0166C21.0911 46.1545 21.1649 46.1691 21.2338 46.1975C21.3027 46.2259 21.3653 46.2676 21.418 46.3202C21.4707 46.3728 21.5126 46.4353 21.5411 46.504C21.5696 46.5728 21.5843 46.6465 21.5843 46.721C21.5843 46.7955 21.5696 46.8692 21.5411 46.938C21.5126 47.0067 21.4707 47.0692 21.418 47.1218C21.3653 47.1744 21.3027 47.2161 21.2338 47.2445C21.1649 47.2729 21.0911 47.2875 21.0166 47.2873Z" fill="#CCCCCC"/>
<path d="M21.0166 50.2607H5.00525C4.93074 50.2608 4.85693 50.2462 4.78806 50.2178C4.71918 50.1894 4.65658 50.1477 4.60385 50.0951C4.55112 50.0425 4.50928 49.9801 4.48074 49.9113C4.45219 49.8425 4.4375 49.7688 4.4375 49.6943C4.4375 49.6199 4.45219 49.5461 4.48074 49.4774C4.50928 49.4086 4.55112 49.3461 4.60385 49.2935C4.65658 49.2409 4.71918 49.1992 4.78806 49.1708C4.85693 49.1424 4.93074 49.1279 5.00525 49.128H21.0166C21.0911 49.1279 21.1649 49.1424 21.2338 49.1708C21.3027 49.1992 21.3653 49.2409 21.418 49.2935C21.4707 49.3461 21.5126 49.4086 21.5411 49.4774C21.5696 49.5461 21.5843 49.6199 21.5843 49.6943C21.5843 49.7688 21.5696 49.8425 21.5411 49.9113C21.5126 49.9801 21.4707 50.0425 21.418 50.0951C21.3653 50.1477 21.3027 50.1894 21.2338 50.2178C21.1649 50.2462 21.0911 50.2608 21.0166 50.2607Z" fill="#CCCCCC"/>
<path d="M21.0166 53.234H5.00525C4.93074 53.2341 4.85693 53.2195 4.78806 53.1911C4.71918 53.1627 4.65658 53.121 4.60385 53.0684C4.55112 53.0158 4.50928 52.9533 4.48074 52.8846C4.45219 52.8158 4.4375 52.7421 4.4375 52.6676C4.4375 52.5931 4.45219 52.5194 4.48074 52.4507C4.50928 52.3819 4.55112 52.3194 4.60385 52.2668C4.65658 52.2142 4.71918 52.1725 4.78806 52.1441C4.85693 52.1157 4.93074 52.1011 5.00525 52.1013H21.0166C21.0911 52.1011 21.1649 52.1157 21.2338 52.1441C21.3027 52.1725 21.3653 52.2142 21.418 52.2668C21.4707 52.3194 21.5126 52.3819 21.5411 52.4507C21.5696 52.5194 21.5843 52.5931 21.5843 52.6676C21.5843 52.7421 21.5696 52.8158 21.5411 52.8846C21.5126 52.9533 21.4707 53.0158 21.418 53.0684C21.3653 53.121 21.3027 53.1627 21.2338 53.1911C21.1649 53.2195 21.0911 53.2341 21.0166 53.234Z" fill="#CCCCCC"/>
<path d="M21.0166 56.2073H5.00525C4.93074 56.2075 4.85693 56.1929 4.78806 56.1645C4.71918 56.1361 4.65658 56.0944 4.60385 56.0418C4.55112 55.9892 4.50928 55.9267 4.48074 55.858C4.45219 55.7892 4.4375 55.7155 4.4375 55.641C4.4375 55.5665 4.45219 55.4928 4.48074 55.424C4.50928 55.3553 4.55112 55.2928 4.60385 55.2402C4.65658 55.1876 4.71918 55.1459 4.78806 55.1175C4.85693 55.0891 4.93074 55.0745 5.00525 55.0746H21.0166C21.0911 55.0745 21.1649 55.0891 21.2338 55.1175C21.3027 55.1459 21.3653 55.1876 21.418 55.2402C21.4707 55.2928 21.5126 55.3553 21.5411 55.424C21.5696 55.4928 21.5843 55.5665 21.5843 55.641C21.5843 55.7155 21.5696 55.7892 21.5411 55.858C21.5126 55.9267 21.4707 55.9892 21.418 56.0418C21.3653 56.0944 21.3027 56.1361 21.2338 56.1645C21.1649 56.1929 21.0911 56.2075 21.0166 56.2073Z" fill="#CCCCCC"/>
<path d="M21.0166 59.1806H5.00525C4.93074 59.1807 4.85693 59.1662 4.78806 59.1378C4.71918 59.1094 4.65658 59.0677 4.60385 59.0151C4.55112 58.9625 4.50928 58.9 4.48074 58.8312C4.45219 58.7624 4.4375 58.6887 4.4375 58.6143C4.4375 58.5398 4.45219 58.4661 4.48074 58.3973C4.50928 58.3285 4.55112 58.266 4.60385 58.2134C4.65658 58.1608 4.71918 58.1191 4.78806 58.0907C4.85693 58.0623 4.93074 58.0478 5.00525 58.0479H21.0166C21.0911 58.0478 21.1649 58.0623 21.2338 58.0907C21.3027 58.1191 21.3653 58.1608 21.418 58.2134C21.4707 58.266 21.5126 58.3285 21.5411 58.3973C21.5696 58.4661 21.5843 58.5398 21.5843 58.6143C21.5843 58.6887 21.5696 58.7624 21.5411 58.8312C21.5126 58.9 21.4707 58.9625 21.418 59.0151C21.3653 59.0677 21.3027 59.1094 21.2338 59.1378C21.1649 59.1662 21.0911 59.1807 21.0166 59.1806Z" fill="#CCCCCC"/>
<path d="M33.6885 80.7205V74.6154C33.6887 74.4465 33.7559 74.2845 33.8754 74.1651C33.995 74.0456 34.157 73.9785 34.3261 73.9783H39.5036C39.6726 73.9785 39.8347 74.0456 39.9542 74.1651C40.0738 74.2845 40.141 74.4465 40.1412 74.6154V80.7205C40.141 80.8894 40.0738 81.0514 39.9542 81.1708C39.8347 81.2903 39.6726 81.3575 39.5036 81.3577H34.3261C34.157 81.3575 33.995 81.2903 33.8754 81.1708C33.7559 81.0514 33.6887 80.8894 33.6885 80.7205Z" fill="#E6E6E6"/>
<path d="M35.5537 78.6875V72.5824C35.5539 72.4135 35.6211 72.2515 35.7407 72.1321C35.8602 72.0126 36.0223 71.9454 36.1913 71.9453H41.3688C41.5378 71.9454 41.6999 72.0126 41.8195 72.1321C41.939 72.2515 42.0062 72.4135 42.0064 72.5824V78.6875C42.0062 78.8564 41.939 79.0184 41.8195 79.1378C41.6999 79.2573 41.5378 79.3245 41.3688 79.3247H36.1913C36.0223 79.3245 35.8602 79.2573 35.7407 79.1378C35.6211 79.0184 35.5539 78.8564 35.5537 78.6875Z" fill="#006DCC"/>
<path d="M58.7625 76.7341C58.5676 76.6216 58.3999 76.4678 58.271 76.2835C58.1421 76.0992 58.0552 75.8889 58.0164 75.6674C57.9777 75.446 57.988 75.2187 58.0466 75.0016C58.1052 74.7846 58.2108 74.583 58.3559 74.4111L56.751 62.6894L60.0941 62.8534L60.6189 74.2867C60.8918 74.5493 61.0587 74.9028 61.0881 75.2802C61.1176 75.6576 61.0074 76.0327 60.7786 76.3343C60.5498 76.636 60.2181 76.8434 59.8466 76.917C59.475 76.9907 59.0892 76.9256 58.7625 76.7341V76.7341Z" fill="#A0616A"/>
<path d="M60.5523 63.0095C60.4838 63.0901 60.3961 63.1521 60.2972 63.1898L57.2928 64.3356C57.1419 64.3931 56.9747 64.3907 56.8256 64.3288C56.6764 64.2669 56.5567 64.1502 56.491 64.0027L53.8298 58.0264C53.5743 57.4721 53.5308 56.8434 53.7075 56.2592C53.8382 55.8422 54.079 55.4682 54.4046 55.1765C54.7302 54.8848 55.1285 54.6863 55.5575 54.6019C55.8875 54.534 56.2283 54.5388 56.5562 54.616C56.9491 54.7035 57.314 54.8875 57.6178 55.1514C57.9217 55.4154 58.1548 55.7508 58.2962 56.1274L60.6624 62.3773C60.7022 62.4829 60.713 62.5972 60.6937 62.7084C60.6743 62.8196 60.6255 62.9235 60.5523 63.0095Z" fill="#CCCCCC"/>
<path d="M44.8972 105.344H42.8186L42.0649 97.2948L44.8976 97.3327L44.8972 105.344Z" fill="#A0616A"/>
<path d="M41.3336 104.751H45.3424V107.273H38.8096C38.8096 106.941 38.8749 106.613 39.0017 106.307C39.1285 106.001 39.3145 105.723 39.5488 105.489C39.7832 105.255 40.0615 105.069 40.3677 104.943C40.6739 104.816 41.0021 104.751 41.3336 104.751Z" fill="#2F2E41"/>
<path d="M54.5616 105.344H52.4829L51.4941 97.3326L54.5619 97.3328L54.5616 105.344Z" fill="#A0616A"/>
<path d="M50.9986 104.751H55.0074V107.273H48.4746C48.4746 106.941 48.5399 106.613 48.6667 106.307C48.7936 106.001 48.9795 105.723 49.2139 105.489C49.4483 105.255 49.7265 105.069 50.0327 104.943C50.339 104.816 50.6672 104.751 50.9986 104.751Z" fill="#2F2E41"/>
<path d="M54.8233 102.494L51.5586 102.252C51.373 102.238 51.1988 102.157 51.0689 102.024C50.9389 101.891 50.8621 101.714 50.8529 101.529L50.125 86.4961C50.118 86.3518 50.0585 86.215 49.9578 86.1115C49.857 86.0079 49.7219 85.9446 49.5778 85.9335C49.4337 85.9224 49.2905 85.9643 49.1751 86.0512C49.0596 86.1382 48.9799 86.2642 48.9509 86.4057L45.9141 101.214C45.8765 101.396 45.7736 101.559 45.6248 101.67C45.476 101.782 45.2915 101.836 45.1059 101.821L42.1548 101.585C42.0536 101.577 41.9551 101.549 41.865 101.502C41.7749 101.456 41.695 101.392 41.6299 101.314C41.5649 101.236 41.5161 101.146 41.4863 101.049C41.4565 100.952 41.4463 100.85 41.4564 100.749L44.1942 73.3922C44.2049 73.2853 44.2381 73.1819 44.2916 73.0886C44.3452 72.9954 44.4178 72.9146 44.5048 72.8514C44.5918 72.7882 44.6912 72.7441 44.7964 72.722C44.9017 72.6999 45.0104 72.7003 45.1155 72.7232L55.5267 74.9847C55.6991 75.0225 55.8532 75.1188 55.9627 75.2572C56.0721 75.3956 56.1304 75.5675 56.1274 75.7439L55.6425 101.748C55.6387 101.947 55.5569 102.137 55.4146 102.277C55.2724 102.417 55.081 102.495 54.8814 102.496C54.8621 102.496 54.8427 102.495 54.8233 102.494Z" fill="#2F2E41"/>
<path d="M51.967 50.5182C54.2669 50.5182 56.1313 48.6552 56.1313 46.3571C56.1313 44.059 54.2669 42.196 51.967 42.196C49.6671 42.196 47.8027 44.059 47.8027 46.3571C47.8027 48.6552 49.6671 50.5182 51.967 50.5182Z" fill="#A0616A"/>
<path d="M45.5057 75.5019C45.1053 75.1431 44.7874 74.7019 44.5739 74.2086C44.3605 73.7153 44.2565 73.1817 44.2691 72.6444C44.2691 66.6638 49.4497 53.3022 49.6122 52.8853C49.628 52.7849 49.7647 52.7415 50.4818 52.2574C51.1994 51.773 52.2341 51.6985 53.5573 52.0362C53.6918 52.0706 53.8143 52.1412 53.9115 52.2404C54.0086 52.3395 54.0767 52.4633 54.1083 52.5984L54.3545 52.9538C54.3759 53.0439 54.4182 53.1277 54.4779 53.1985C54.5377 53.2694 54.6132 53.3252 54.6985 53.3614C55.7655 53.8106 59.1573 55.8821 58.0015 63.6776C56.9279 70.9191 56.4922 75.1779 56.3548 76.6729C56.3386 76.8503 56.2606 77.0164 56.1345 77.1423C56.0083 77.2681 55.842 77.3458 55.6644 77.3617C55.1413 77.4085 54.2433 77.4707 53.1739 77.4707C50.6949 77.4707 47.2946 77.1365 45.5057 75.5019Z" fill="#CCCCCC"/>
<path d="M40.5297 73.2862C40.4306 73.0843 40.3771 72.8631 40.3728 72.6383C40.3686 72.4136 40.4137 72.1906 40.505 71.9851C40.5963 71.7796 40.7316 71.5966 40.9014 71.449C41.0711 71.3014 41.2712 71.1928 41.4875 71.1308L46.6914 60.504L49.3759 62.5015L43.436 72.2876C43.5161 72.6576 43.4576 73.0441 43.2716 73.3738C43.0856 73.7036 42.7849 73.9537 42.4267 74.0768C42.0685 74.1999 41.6775 74.1874 41.3278 74.0417C40.9782 73.896 40.6942 73.6271 40.5297 73.2862L40.5297 73.2862Z" fill="#A0616A"/>
<path d="M49.6699 62.8867C49.5681 62.9155 49.4606 62.9182 49.3575 62.8944L46.2239 62.173C46.0665 62.1367 45.929 62.0416 45.8397 61.9072C45.7504 61.7727 45.716 61.6091 45.7437 61.4502L46.8666 55.0059C46.9635 54.4033 47.278 53.857 47.7505 53.4703C48.0916 53.1968 48.5001 53.0203 48.9331 52.9594C49.3661 52.8985 49.8076 52.9555 50.2109 53.1243C50.5227 53.2516 50.803 53.4454 51.0323 53.692C51.3097 53.9835 51.5101 54.3395 51.6152 54.7278C51.7203 55.1161 51.7269 55.5245 51.6343 55.9159L50.1139 62.4231C50.0881 62.5329 50.0333 62.6339 49.9552 62.7154C49.8771 62.7969 49.7786 62.8561 49.6699 62.8867Z" fill="#CCCCCC"/>
<path d="M50.9917 50.1167C50.789 49.9101 50.6394 49.6576 50.5556 49.3806C50.4718 49.1037 50.4562 48.8107 50.5103 48.5264C50.6555 47.7675 50.7408 47.271 50.757 47.0903C50.8123 46.4724 50.1871 45.9721 49.5684 45.8925C49.5445 45.8893 49.5244 45.8873 49.5076 45.8859C49.5234 45.9014 49.5403 45.9172 49.5552 45.9312C49.6727 46.0414 49.819 46.1788 49.7842 46.3204C49.7632 46.4057 49.6852 46.4663 49.5457 46.5052C48.5782 46.7758 47.8331 46.5274 47.2007 45.7231C47.023 45.4946 46.9008 45.2279 46.8438 44.9441C46.6173 43.8336 47.2209 42.8869 47.7671 42.2884C48.2176 41.7949 48.9478 41.1958 49.8686 41.1445C50.5846 41.1046 51.4361 41.5163 51.691 42.2583C51.8112 42.0803 51.9712 41.9327 52.1584 41.8272C52.3456 41.7218 52.5549 41.6613 52.7695 41.6507C53.2584 41.6402 53.7395 41.7739 54.1527 42.0352C56.1719 43.1909 57.0397 45.9441 56.0477 48.0474C55.4237 49.3705 54.0718 50.3554 52.5195 50.6179C52.4223 50.6344 52.3239 50.6427 52.2253 50.6427C51.9949 50.6424 51.7669 50.5956 51.5549 50.5052C51.343 50.4148 51.1514 50.2827 50.9917 50.1167Z" fill="#2F2E41"/>
<path d="M31.4645 107.367H64.5262C64.5712 107.367 64.6143 107.349 64.6461 107.317C64.6779 107.286 64.6958 107.242 64.6958 107.197C64.6958 107.153 64.6779 107.109 64.6461 107.078C64.6143 107.046 64.5712 107.028 64.5262 107.028H31.4645C31.4195 107.028 31.3764 107.046 31.3446 107.078C31.3128 107.109 31.2949 107.153 31.2949 107.197C31.2949 107.242 31.3128 107.286 31.3446 107.317C31.3764 107.349 31.4195 107.367 31.4645 107.367Z" fill="#3F3D56"/>
</svg>
