<svg width="264" height="257" viewBox="0 0 264 257" fill="none" xmlns="http://www.w3.org/2000/svg">
<path d="M106.516 58.7999C115.046 60.7652 124.892 74.945 125.108 88.0734C125.153 88.5634 125.012 89.0522 124.714 89.4434C124.415 89.8346 123.981 90.0996 123.497 90.1861C118.328 91.0607 115.822 92.2399 111.135 94.9324C110.152 95.581 108.894 94.9324 108.187 93.9497C98.311 79.1312 97.9867 68.4005 102.91 60.1658C104.079 58.7704 104.816 58.397 106.516 58.7999Z" fill="#006DCC"/>
<path d="M130.031 96.3179C129.864 96.3068 129.697 96.3335 129.542 96.3961C129.387 96.4587 129.248 96.5555 129.136 96.6792C129.023 96.803 128.94 96.9505 128.893 97.1109C128.846 97.2712 128.835 97.4402 128.862 97.6052C129.363 100.642 130.719 104.877 131.043 106.547C131.049 106.57 131.049 106.594 131.043 106.616C132.586 112.247 135.632 113.072 137.215 113.092C137.302 113.094 137.389 113.115 137.467 113.155C137.545 113.195 137.613 113.252 137.666 113.322C137.719 113.392 137.756 113.473 137.773 113.559C137.79 113.645 137.787 113.734 137.765 113.819L133.284 131.507C133.284 131.507 133.284 131.586 133.215 131.635L128.98 120.826C128.922 120.687 128.892 120.538 128.892 120.388C128.892 120.238 128.922 120.089 128.98 119.951C129.094 119.767 129.15 119.553 129.139 119.337C129.129 119.121 129.053 118.914 128.921 118.742C128.824 118.626 128.702 118.534 128.564 118.472C128.426 118.411 128.276 118.382 128.125 118.389C127.878 118.393 127.641 118.484 127.454 118.645C127.268 118.806 127.142 119.026 127.101 119.269C127.059 119.512 127.103 119.762 127.225 119.976C127.347 120.19 127.541 120.355 127.771 120.442C127.915 120.491 128.046 120.572 128.153 120.679C128.261 120.786 128.342 120.917 128.39 121.061L132.625 131.871L132.458 131.812L117.581 122.182C117.453 122.097 117.345 121.986 117.262 121.857C117.18 121.728 117.124 121.583 117.1 121.432C117.076 121.28 117.084 121.126 117.123 120.977C117.161 120.829 117.23 120.69 117.325 120.57C118.308 119.234 119.291 117.131 116.962 112.188C116.254 110.694 114.22 106.479 112.579 103.875C112.49 103.733 112.37 103.614 112.228 103.525C112.086 103.437 111.926 103.381 111.76 103.364C111.593 103.346 111.425 103.365 111.267 103.422C111.11 103.478 110.967 103.569 110.85 103.688C100.866 113.927 96.4143 126.78 101.239 139.123C106.064 151.465 117.129 159.248 128.233 160.27C128.331 160.278 128.429 160.261 128.519 160.221C128.608 160.181 128.686 160.118 128.745 160.04C128.804 159.961 128.842 159.869 128.856 159.772C128.869 159.674 128.858 159.575 128.823 159.483L121.944 132.136C121.679 130.996 122.563 130.878 123.035 131.153L134.827 137.914C134.901 137.953 134.983 137.975 135.067 137.979C135.151 137.983 135.235 137.97 135.313 137.939C135.391 137.908 135.462 137.861 135.52 137.801C135.579 137.741 135.624 137.669 135.652 137.59L139.583 125.464C139.828 124.55 140.565 124.343 140.958 125.169L154.146 149.686C154.182 149.78 154.241 149.862 154.318 149.926C154.395 149.99 154.487 150.033 154.585 150.052C154.684 150.071 154.785 150.064 154.88 150.033C154.975 150.002 155.061 149.947 155.128 149.873C162.646 141.628 165.034 128.471 160.209 116.109C155.384 103.747 141.263 97.2416 130.031 96.3179Z" fill="#006DCC"/>
<path d="M129.609 165.615C123.966 165.479 118.426 164.073 113.401 161.503C108.376 158.932 103.994 155.263 100.581 150.767C97.0713 146.057 94.6912 140.604 93.6246 134.828C92.558 129.052 92.8334 123.108 94.4294 117.455C96.3927 110.781 100.088 104.746 105.14 99.9636C108.354 96.8682 103.46 91.9843 100.227 95.0502C95.0953 99.9289 91.1738 105.939 88.7751 112.601C86.3764 119.263 85.5668 126.393 86.4108 133.423C87.2573 140.18 89.6271 146.657 93.3414 152.364C97.0556 158.072 102.017 162.861 107.853 166.372C114.445 170.255 121.929 172.368 129.579 172.504C134.021 172.582 134.021 165.625 129.579 165.625L129.609 165.615Z" fill="#006DCC"/>
<path d="M162.714 158.943C173.416 149.116 177.346 134.465 174.85 120.354C173.165 109.927 167.889 100.416 159.935 93.4665C151.981 86.517 141.848 82.5655 131.289 82.2953C130.806 82.2436 130.318 82.2941 129.857 82.4434C129.395 82.5927 128.97 82.8375 128.609 83.1619C128.248 83.4862 127.959 83.8829 127.761 84.3262C127.564 84.7694 127.462 85.2493 127.462 85.7346C127.462 86.2199 127.564 86.6998 127.761 87.143C127.959 87.5863 128.248 87.983 128.609 88.3074C128.97 88.6317 129.395 88.8765 129.857 89.0258C130.318 89.1751 130.806 89.2256 131.289 89.1739C138.485 89.3974 145.474 91.6341 151.463 95.63C152.594 96.3617 153.674 97.1694 154.696 98.0474C156.762 99.8288 158.654 101.803 160.346 103.943C167.421 113.2 170.409 125.641 167.873 136.784C166.385 143.434 162.877 149.461 157.831 154.04C154.549 157.066 159.452 161.901 162.744 158.953L162.714 158.943Z" fill="#006DCC"/>
<path d="M120.039 98.8689C124.967 96.9433 128.623 94.5136 128.205 93.442C127.786 92.3703 123.451 93.0625 118.522 94.9881C113.594 96.9136 109.938 99.3434 110.356 100.415C110.775 101.487 115.11 100.794 120.039 98.8689Z" fill="#006DCC"/>
<path d="M127.516 138.17L136.841 143.083C136.915 143.127 136.999 143.153 137.085 143.159C137.17 143.166 137.257 143.152 137.337 143.12C137.416 143.088 137.488 143.037 137.545 142.973C137.602 142.909 137.644 142.832 137.667 142.749L140.919 132.794C141.175 131.998 141.666 131.969 142 132.735L155.256 162.707C155.358 162.955 155.374 163.23 155.301 163.489C155.228 163.747 155.07 163.974 154.853 164.132L153.389 165.114C153.25 165.222 153.087 165.296 152.914 165.329C152.74 165.363 152.562 165.355 152.392 165.306C152.223 165.257 152.067 165.169 151.938 165.048C151.809 164.928 151.71 164.779 151.65 164.613L143.661 145.677C143.258 144.695 142.757 144.753 142.55 145.785L141.322 152.025C141.317 152.13 141.281 152.231 141.22 152.316C141.158 152.401 141.074 152.466 140.976 152.503C140.878 152.541 140.771 152.549 140.669 152.527C140.566 152.505 140.472 152.453 140.398 152.379L135.485 148.625C134.669 148.006 134.257 148.291 134.571 149.264L140.919 168.986C140.976 169.144 140.998 169.313 140.981 169.48C140.965 169.647 140.912 169.809 140.825 169.953C140.738 170.097 140.621 170.22 140.481 170.313C140.341 170.405 140.182 170.466 140.015 170.489L137.48 170.941C137.2 170.986 136.914 170.929 136.673 170.781C136.432 170.634 136.251 170.405 136.163 170.136L126.651 138.848C126.464 138.111 126.838 137.806 127.516 138.17Z" fill="#006DCC"/>
<path d="M106.516 58.7998C116.019 62.249 122.357 70.4051 125.108 88.0734C125.173 88.5669 125.039 89.0658 124.738 89.4615C124.436 89.8573 123.99 90.1177 123.497 90.1861" fill="#006DCC"/>
<path d="M165.211 90.2156L164.022 89.1543L163.884 89.0462C153.537 81.4208 151.709 81.0768 139.484 77.8341H139.268L137.303 77.5491C136.998 77.5291 136.707 77.4174 136.467 77.2288C136.227 77.0402 136.05 76.7834 135.958 76.4922C135.867 76.201 135.866 75.889 135.955 75.5971C136.044 75.3052 136.219 75.0471 136.458 74.8566L165.437 51.479C165.707 51.2689 166.032 51.1392 166.373 51.1047C166.714 51.0703 167.058 51.1324 167.365 51.2841C167.673 51.4357 167.932 51.6708 168.112 51.9625C168.292 52.2541 168.386 52.5905 168.385 52.9334L167.726 89.2919C167.728 89.5848 167.639 89.871 167.472 90.1116C167.305 90.3522 167.067 90.5354 166.792 90.6364C166.518 90.7374 166.218 90.7511 165.935 90.6758C165.652 90.6006 165.399 90.4398 165.211 90.2156Z" fill="#006DCC"/>
<path d="M180.619 134.809L180.324 136.381C180.329 136.434 180.329 136.486 180.324 136.538C176.806 148.891 175.578 150.296 167.903 160.329L167.756 160.486L166.351 161.94C166.123 162.143 165.962 162.41 165.888 162.705C165.815 163.001 165.832 163.312 165.939 163.598C166.045 163.884 166.235 164.13 166.484 164.306C166.733 164.482 167.029 164.579 167.333 164.584L204.517 165.321C204.862 165.326 205.201 165.234 205.495 165.055C205.789 164.875 206.026 164.616 206.178 164.307C206.331 163.998 206.392 163.653 206.356 163.31C206.319 162.968 206.186 162.642 205.972 162.373L183.184 134.062C183.01 133.829 182.77 133.654 182.494 133.561C182.218 133.469 181.921 133.463 181.642 133.544C181.363 133.625 181.115 133.79 180.932 134.016C180.749 134.242 180.64 134.519 180.619 134.809Z" fill="#006DCC"/>
<path d="M170.822 96.7209L171.804 98.1065L171.893 98.2441C178.654 110.036 178.771 112.001 180.737 125.179C180.746 125.251 180.746 125.323 180.737 125.395L180.806 127.537C180.789 127.859 180.871 128.179 181.041 128.453C181.21 128.727 181.459 128.944 181.754 129.074C182.049 129.204 182.376 129.241 182.693 129.181C183.01 129.12 183.301 128.965 183.528 128.736L211.632 100.986C211.879 100.742 212.051 100.434 212.128 100.096C212.205 99.7579 212.184 99.405 212.067 99.0787C211.951 98.7524 211.743 98.4662 211.469 98.2539C211.195 98.0416 210.866 97.912 210.521 97.8805L172.158 94.1857C171.844 94.1292 171.52 94.1743 171.233 94.3143C170.946 94.4543 170.711 94.682 170.562 94.9644C170.414 95.2468 170.358 95.5692 170.405 95.885C170.452 96.2008 170.598 96.4936 170.822 96.7209Z" fill="#006DCC"/>
<path d="M80.2694 124.019L80.4365 122.427C80.4322 122.372 80.4322 122.316 80.4365 122.26C82.8833 109.643 83.9937 108.149 90.7839 97.4774L90.9117 97.3104L92.1891 95.7381C92.4 95.5174 92.5391 95.238 92.5883 94.9367C92.6375 94.6355 92.5944 94.3264 92.4648 94.05C92.3351 93.7737 92.1249 93.543 91.8617 93.3883C91.5986 93.2336 91.2948 93.1621 90.9903 93.1832L53.8456 95.6398C53.5083 95.6724 53.1867 95.798 52.9167 96.0028C52.6467 96.2076 52.4389 96.4833 52.3166 96.7993C52.1943 97.1153 52.1622 97.4591 52.224 97.7923C52.2857 98.1255 52.4389 98.4349 52.6664 98.6861L77.8226 125.012C78.0181 125.22 78.2722 125.364 78.5513 125.426C78.8305 125.487 79.1216 125.462 79.3865 125.355C79.6513 125.247 79.8774 125.062 80.035 124.824C80.1926 124.585 80.2743 124.305 80.2694 124.019Z" fill="#006DCC"/>
<path d="M98.8122 167.473L100.119 168.396C100.159 168.435 100.205 168.465 100.257 168.485C111.371 174.921 113.218 175.069 125.727 176.945H125.944L127.909 177.004C128.212 176.995 128.512 177.076 128.768 177.238C129.025 177.4 129.228 177.634 129.351 177.912C129.473 178.19 129.51 178.498 129.456 178.797C129.402 179.095 129.26 179.371 129.049 179.589L102.88 206.032C102.637 206.279 102.328 206.451 101.991 206.529C101.653 206.606 101.3 206.585 100.973 206.468C100.647 206.351 100.361 206.144 100.149 205.87C99.9363 205.596 99.8067 205.267 99.7752 204.922L96.4341 168.74C96.3873 168.447 96.4331 168.147 96.5652 167.881C96.6973 167.615 96.909 167.398 97.1709 167.258C97.4327 167.118 97.7316 167.064 98.0259 167.102C98.3201 167.141 98.595 167.27 98.8122 167.473Z" fill="#006DCC"/>
<path d="M80.6918 132.519L80.9178 134.2V134.367C83.9248 147.603 85.1335 149.107 92.7098 160.162L92.8376 160.339L94.2526 161.95C94.4794 162.178 94.6326 162.468 94.6923 162.784C94.7519 163.099 94.7153 163.426 94.587 163.72C94.4588 164.015 94.245 164.264 93.9733 164.436C93.7016 164.607 93.3847 164.693 93.0636 164.682L53.59 163.336C53.2427 163.323 52.9061 163.212 52.6196 163.016C52.3331 162.819 52.1087 162.545 51.9725 162.225C51.8364 161.905 51.7942 161.553 51.8509 161.211C51.9077 160.868 52.061 160.548 52.2929 160.289L78.0485 131.566C78.2471 131.335 78.5113 131.17 78.806 131.092C79.1007 131.015 79.4119 131.029 79.6986 131.132C79.9853 131.235 80.2337 131.423 80.4111 131.671C80.5885 131.919 80.6864 132.215 80.6918 132.519Z" fill="#006DCC"/>
<path d="M134.61 178.174L136.202 178.017H136.369C148.997 175.639 150.49 174.548 161.191 167.807L161.368 167.679L162.941 166.411C163.163 166.202 163.443 166.066 163.745 166.019C164.046 165.972 164.355 166.018 164.63 166.149C164.906 166.281 165.135 166.493 165.287 166.757C165.44 167.021 165.509 167.326 165.486 167.63L162.833 204.725C162.807 205.071 162.684 205.403 162.478 205.681C162.272 205.96 161.99 206.174 161.667 206.298C161.343 206.423 160.991 206.453 160.651 206.385C160.311 206.317 159.998 206.154 159.747 205.914L133.618 180.67C133.39 180.479 133.229 180.22 133.156 179.932C133.084 179.644 133.104 179.34 133.213 179.064C133.323 178.787 133.517 178.553 133.768 178.393C134.019 178.233 134.314 178.157 134.61 178.174Z" fill="#006DCC"/>
</svg>
