<svg width="1958" height="251" viewBox="0 0 1958 251" fill="none" xmlns="http://www.w3.org/2000/svg">
<path d="M139.833 54.9904H138.523L124.121 84.5805L84.0568 157.639L43.9923 84.5805L29.5901 54.9904H28.2808V194.823H0V12.0455H35.0891L84.0568 105.006H85.6279L134.596 12.0455H168.114V194.823H139.833V54.9904Z" fill="black"/>
<path d="M264.596 197.966C255.169 197.966 246.528 196.307 238.672 192.99C230.991 189.673 224.445 184.96 219.033 178.85C213.621 172.565 209.431 165.059 206.464 156.33C203.496 147.427 202.012 137.563 202.012 126.74C202.012 115.916 203.496 106.14 206.464 97.4116C209.431 88.5084 213.621 81.0018 219.033 74.8917C224.445 68.6071 230.991 63.8064 238.672 60.4895C246.528 57.1726 255.169 55.5141 264.596 55.5141C274.023 55.5141 282.577 57.1726 290.259 60.4895C298.114 63.8064 304.748 68.6071 310.16 74.8917C315.572 81.0018 319.761 88.5084 322.729 97.4116C325.697 106.14 327.181 115.916 327.181 126.74C327.181 137.563 325.697 147.427 322.729 156.33C319.761 165.059 315.572 172.565 310.16 178.85C304.748 184.96 298.114 189.673 290.259 192.99C282.577 196.307 274.023 197.966 264.596 197.966ZM264.596 174.398C274.372 174.398 282.228 171.43 288.164 165.495C294.099 159.385 297.067 150.307 297.067 138.262V115.218C297.067 103.173 294.099 94.182 288.164 88.2465C282.228 82.1365 274.372 79.0815 264.596 79.0815C254.82 79.0815 246.965 82.1365 241.029 88.2465C235.094 94.182 232.126 103.173 232.126 115.218V138.262C232.126 150.307 235.094 159.385 241.029 165.495C246.965 171.43 254.82 174.398 264.596 174.398Z" fill="black"/>
<path d="M358.984 194.823V58.6564H387.527V81.1763H388.836C391.804 73.8443 396.256 67.7342 402.191 62.8462C408.301 57.9582 416.593 55.5141 427.068 55.5141C441.034 55.5141 451.857 60.1403 459.538 69.3927C467.394 78.4705 471.322 91.4761 471.322 108.41V194.823H442.779V112.076C442.779 90.7778 434.225 80.1289 417.117 80.1289C413.451 80.1289 409.785 80.6526 406.119 81.7001C402.628 82.5729 399.485 83.9695 396.692 85.8898C393.899 87.8101 391.629 90.2541 389.884 93.2219C388.313 96.1896 387.527 99.6811 387.527 103.696V194.823H358.984Z" fill="black"/>
<path d="M596.511 172.303H595.202C592.234 180.334 587.346 186.618 580.538 191.157C573.904 195.696 566.048 197.966 556.97 197.966C539.688 197.966 526.333 191.768 516.906 179.374C507.479 166.804 502.765 149.26 502.765 126.74C502.765 104.22 507.479 86.7627 516.906 74.368C526.333 61.7988 539.688 55.5141 556.97 55.5141C566.048 55.5141 573.904 57.7836 580.538 62.3225C587.346 66.6868 592.234 72.9714 595.202 81.1763H596.511V1.04744H625.054V194.823H596.511V172.303ZM565.612 173.351C574.34 173.351 581.672 171.256 587.608 167.066C593.543 162.702 596.511 157.028 596.511 150.045V103.434C596.511 96.4515 593.543 90.8651 587.608 86.6754C581.672 82.3111 574.34 80.1289 565.612 80.1289C555.661 80.1289 547.718 83.3585 541.783 89.8177C535.847 96.1023 532.879 104.482 532.879 114.956V138.523C532.879 148.998 535.847 157.465 541.783 163.924C547.718 170.208 555.661 173.351 565.612 173.351Z" fill="black"/>
<path d="M765.619 194.823C758.112 194.823 752.351 192.728 748.336 188.539C744.321 184.174 741.877 178.675 741.004 172.041H739.695C737.076 180.596 732.276 187.055 725.293 191.419C718.31 195.783 709.843 197.966 699.892 197.966C685.752 197.966 674.841 194.3 667.16 186.967C659.653 179.635 655.9 169.772 655.9 157.377C655.9 143.761 660.788 133.548 670.564 126.74C680.515 119.931 695.004 116.527 714.033 116.527H738.647V105.006C738.647 96.626 736.378 90.1668 731.839 85.6279C727.3 81.0891 720.23 78.8196 710.628 78.8196C702.598 78.8196 696.052 80.5653 690.989 84.0568C685.926 87.5482 681.649 91.9999 678.158 97.4116L661.137 81.9619C665.676 74.2807 672.048 67.9961 680.253 63.1081C688.458 58.0455 699.194 55.5141 712.462 55.5141C730.093 55.5141 743.623 59.6166 753.05 67.8215C762.477 76.0264 767.19 87.8101 767.19 103.173V171.518H781.592V194.823H765.619ZM708.01 176.231C716.913 176.231 724.245 174.311 730.006 170.47C735.767 166.455 738.647 161.131 738.647 154.497V134.857H714.556C694.83 134.857 684.966 140.968 684.966 153.188V157.901C684.966 164.011 686.974 168.637 690.989 171.78C695.179 174.747 700.852 176.231 708.01 176.231Z" fill="black"/>
<path d="M891.309 58.6564H918.804L861.457 221.795C859.886 226.334 858.053 230.174 855.958 233.317C854.038 236.633 851.681 239.252 848.888 241.172C846.269 243.267 843.04 244.751 839.199 245.624C835.359 246.671 830.82 247.195 825.583 247.195H809.085V223.89H832.129L839.985 200.846L790.493 58.6564H819.036L846.269 138.785L854.125 168.375H855.435L864.076 138.785L891.309 58.6564Z" fill="black"/>
<path d="M1146.1 54.9904H1144.79L1130.39 84.5805L1090.32 157.639L1050.26 84.5805L1035.86 54.9904H1034.55V194.823H1006.27V12.0455H1041.35L1090.32 105.006H1091.89L1140.86 12.0455H1174.38V194.823H1146.1V54.9904Z" fill="black"/>
<path d="M1270.86 197.966C1261.43 197.966 1252.79 196.307 1244.94 192.99C1237.26 189.673 1230.71 184.96 1225.3 178.85C1219.89 172.565 1215.7 165.059 1212.73 156.33C1209.76 147.427 1208.28 137.563 1208.28 126.74C1208.28 115.916 1209.76 106.14 1212.73 97.4116C1215.7 88.5084 1219.89 81.0018 1225.3 74.8917C1230.71 68.6071 1237.26 63.8064 1244.94 60.4895C1252.79 57.1726 1261.43 55.5141 1270.86 55.5141C1280.29 55.5141 1288.84 57.1726 1296.52 60.4895C1304.38 63.8064 1311.01 68.6071 1316.43 74.8917C1321.84 81.0018 1326.03 88.5084 1328.99 97.4116C1331.96 106.14 1333.45 115.916 1333.45 126.74C1333.45 137.563 1331.96 147.427 1328.99 156.33C1326.03 165.059 1321.84 172.565 1316.43 178.85C1311.01 184.96 1304.38 189.673 1296.52 192.99C1288.84 196.307 1280.29 197.966 1270.86 197.966ZM1270.86 174.398C1280.64 174.398 1288.49 171.43 1294.43 165.495C1300.36 159.385 1303.33 150.307 1303.33 138.262V115.218C1303.33 103.173 1300.36 94.182 1294.43 88.2465C1288.49 82.1365 1280.64 79.0815 1270.86 79.0815C1261.09 79.0815 1253.23 82.1365 1247.29 88.2465C1241.36 94.182 1238.39 103.173 1238.39 115.218V138.262C1238.39 150.307 1241.36 159.385 1247.29 165.495C1253.23 171.43 1261.09 174.398 1270.86 174.398Z" fill="black"/>
<path d="M1365.25 194.823V58.6564H1393.79V84.8424H1395.1C1397.02 77.8595 1401.04 71.7494 1407.15 66.5122C1413.26 61.275 1421.72 58.6564 1432.55 58.6564H1440.14V86.1517H1428.88C1417.53 86.1517 1408.81 87.9847 1402.7 91.6507C1396.76 95.3167 1393.79 100.728 1393.79 107.886V194.823H1365.25Z" fill="black"/>
<path d="M1465.49 194.823V58.6564H1494.04V81.1763H1495.34C1498.31 73.8443 1502.76 67.7342 1508.7 62.8462C1514.81 57.9582 1523.1 55.5141 1533.58 55.5141C1547.54 55.5141 1558.37 60.1403 1566.05 69.3927C1573.9 78.4705 1577.83 91.4761 1577.83 108.41V194.823H1549.29V112.076C1549.29 90.7778 1540.73 80.1289 1523.63 80.1289C1519.96 80.1289 1516.29 80.6526 1512.63 81.7001C1509.14 82.5729 1505.99 83.9695 1503.2 85.8898C1500.41 87.8101 1498.14 90.2541 1496.39 93.2219C1494.82 96.1896 1494.04 99.6811 1494.04 103.696V194.823H1465.49Z" fill="black"/>
<path d="M1631.79 34.3035C1625.86 34.3035 1621.49 32.907 1618.7 30.1138C1616.08 27.3206 1614.77 23.7419 1614.77 19.3776V14.926C1614.77 10.5617 1616.08 6.98291 1618.7 4.18974C1621.49 1.39658 1625.86 0 1631.79 0C1637.73 0 1642.01 1.39658 1644.62 4.18974C1647.24 6.98291 1648.55 10.5617 1648.55 14.926V19.3776C1648.55 23.7419 1647.24 27.3206 1644.62 30.1138C1642.01 32.907 1637.73 34.3035 1631.79 34.3035ZM1617.39 58.6564H1645.93V194.823H1617.39V58.6564Z" fill="black"/>
<path d="M1686.69 194.823V58.6564H1715.23V81.1763H1716.54C1719.51 73.8443 1723.96 67.7342 1729.9 62.8462C1736.01 57.9582 1744.3 55.5141 1754.78 55.5141C1768.74 55.5141 1779.56 60.1403 1787.25 69.3927C1795.1 78.4705 1799.03 91.4761 1799.03 108.41V194.823H1770.49V112.076C1770.49 90.7778 1761.93 80.1289 1744.82 80.1289C1741.16 80.1289 1737.49 80.6526 1733.83 81.7001C1730.34 82.5729 1727.19 83.9695 1724.4 85.8898C1721.61 87.8101 1719.34 90.2541 1717.59 93.2219C1716.02 96.1896 1715.23 99.6811 1715.23 103.696V194.823H1686.69Z" fill="black"/>
<path d="M1958 207.654C1958 221.795 1952.59 232.444 1941.76 239.601C1930.94 246.759 1913.31 250.337 1888.87 250.337C1877.7 250.337 1868.18 249.552 1860.33 247.981C1852.64 246.584 1846.27 244.489 1841.21 241.696C1836.32 238.903 1832.74 235.499 1830.47 231.484C1828.2 227.468 1827.07 222.842 1827.07 217.605C1827.07 210.098 1829.08 204.25 1833.09 200.06C1837.28 195.871 1843.04 192.99 1850.37 191.419V188.539C1840.07 185.222 1834.92 178.239 1834.92 167.59C1834.92 160.607 1837.28 155.282 1842 151.616C1846.71 147.776 1852.38 145.07 1859.02 143.499V142.451C1850.99 138.611 1844.79 133.286 1840.42 126.478C1836.23 119.495 1834.14 111.377 1834.14 102.125C1834.14 88.1592 1838.77 76.8993 1848.02 68.3452C1857.44 59.7912 1870.89 55.5141 1888.34 55.5141C1897.95 55.5141 1906.15 56.9107 1912.96 59.7039V56.0379C1912.96 49.9278 1914.36 45.2143 1917.15 41.8975C1920.12 38.406 1924.66 36.6603 1930.77 36.6603H1951.71V59.7039H1923.96V65.2029C1930.07 69.2181 1934.78 74.4553 1938.1 80.9145C1941.41 87.1991 1943.07 94.2693 1943.07 102.125C1943.07 115.916 1938.36 127.089 1928.93 135.643C1919.51 144.023 1906.06 148.212 1888.61 148.212C1881.97 148.212 1876.04 147.514 1870.8 146.117C1867.31 147.339 1864.25 149.085 1861.63 151.355C1859.02 153.449 1857.71 156.243 1857.71 159.734C1857.71 163.4 1859.37 166.019 1862.68 167.59C1866 169.161 1870.71 169.947 1876.82 169.947H1910.34C1927.1 169.947 1939.23 173.351 1946.74 180.159C1954.25 186.793 1958 195.958 1958 207.654ZM1931.29 210.797C1931.29 206.083 1929.46 202.33 1925.79 199.537C1922.3 196.744 1915.84 195.347 1906.41 195.347H1860.33C1854.04 199.013 1850.9 204.25 1850.9 211.058C1850.9 216.645 1853.08 221.096 1857.44 224.413C1861.98 227.905 1869.58 229.65 1880.23 229.65H1898.03C1920.2 229.65 1931.29 223.366 1931.29 210.797ZM1888.61 127.525C1896.99 127.525 1903.44 125.692 1907.98 122.026C1912.7 118.186 1915.05 112.338 1915.05 104.482V99.2446C1915.05 91.3888 1912.7 85.6279 1907.98 81.9619C1903.44 78.1213 1896.99 76.201 1888.61 76.201C1880.23 76.201 1873.68 78.1213 1868.97 81.9619C1864.43 85.6279 1862.16 91.3888 1862.16 99.2446V104.482C1862.16 112.338 1864.43 118.186 1868.97 122.026C1873.68 125.692 1880.23 127.525 1888.61 127.525Z" fill="black"/>
</svg>
