<svg width="1956" height="106" viewBox="0 0 1956 106" fill="none" xmlns="http://www.w3.org/2000/svg">
<path d="M0.266602 79.1983H12.4906V10.2804H0.266602V79.1983Z" fill="black"/>
<path d="M31.2719 79.1983H42.969V49.0599C42.969 41.3672 41.9152 33.0423 41.3883 25.7711H41.8098L48.8702 40.4188L70.3675 79.1983H82.9076V10.2804H71.2105V40.2081C71.2105 47.9007 72.2643 56.6472 72.7912 63.7076H72.3697L65.3093 49.0599L43.812 10.2804H31.2719V79.1983Z" fill="black"/>
<path d="M115.601 79.1983H127.825V20.6076H147.742V10.2804H95.6848V20.6076H115.601V79.1983Z" fill="black"/>
<path d="M160.482 79.1983H203.055V68.8711H172.706V48.533H197.47V38.2059H172.706V20.6076H202.002V10.2804H160.482V79.1983Z" fill="black"/>
<path d="M247.324 80.4628C256.702 80.4628 264.711 76.88 269.348 72.2433V41.8941H245.321V51.9051H258.388V66.7636C256.175 68.7658 252.382 69.8196 248.483 69.8196C234.678 69.8196 227.407 60.3354 227.407 44.634C227.407 29.1433 235.626 19.6592 247.85 19.6592C254.279 19.6592 258.283 22.2936 261.76 25.6658L268.294 17.7623C263.973 13.3364 257.229 9.01587 247.429 9.01587C229.093 9.01587 214.867 22.399 214.867 44.9501C214.867 67.8174 228.671 80.4628 247.324 80.4628Z" fill="black"/>
<path d="M285.885 79.1983H298.109V52.2213H308.647L323.505 79.1983H337.204L320.765 50.4298C328.985 47.5846 334.465 41.2618 334.465 30.7239C334.465 15.3386 323.505 10.2804 309.174 10.2804H285.885V79.1983ZM298.109 42.5264V20.0807H307.909C317.288 20.0807 322.451 22.8205 322.451 30.7239C322.451 38.522 317.288 42.5264 307.909 42.5264H298.109Z" fill="black"/>
<path d="M349.512 79.1983H361.736V10.2804H349.512V79.1983Z" fill="black"/>
<path d="M394.428 79.1983H406.652V20.6076H426.568V10.2804H374.511V20.6076H394.428V79.1983Z" fill="black"/>
<path d="M449.148 79.1983H461.372V53.5912L482.132 10.2804H469.381L461.899 27.8787C459.897 33.0423 457.789 37.7843 455.576 43.0533H455.155C452.942 37.7843 451.045 33.0423 449.043 27.8787L441.561 10.2804H428.494L449.148 53.5912V79.1983Z" fill="black"/>
<path d="M537.073 105.543H545.187V0.164032H537.073V105.543Z" fill="black"/>
<path d="M609.286 79.1983H621.51V48.6384H649.436V79.1983H661.66V10.2804H649.436V37.9951H621.51V10.2804H609.286V79.1983Z" fill="black"/>
<path d="M706.244 80.4628C722.262 80.4628 732.273 71.611 732.273 48.9545V10.2804H720.576V49.9029C720.576 64.8667 714.674 69.8196 706.244 69.8196C697.919 69.8196 692.334 64.8667 692.334 49.9029V10.2804H680.11V48.9545C680.11 71.611 690.332 80.4628 706.244 80.4628Z" fill="black"/>
<path d="M750.743 79.1983H761.808V47.69C761.808 41.2618 760.754 32.0939 760.227 25.7711H760.649L766.128 41.7887L777.509 72.7702H784.78L796.056 41.7887L801.641 25.7711H802.063C801.43 32.0939 800.482 41.2618 800.482 47.69V79.1983H811.757V10.2804H797.847L785.94 44.0017C784.464 48.3222 783.094 52.9589 781.619 57.4902H781.197C779.722 52.9589 778.247 48.3222 776.772 44.0017L764.548 10.2804H750.743V79.1983Z" fill="black"/>
<path d="M830.527 79.1983H842.751V10.2804H830.527V79.1983Z" fill="black"/>
<path d="M861.532 79.1983H902.42V68.8711H873.756V10.2804H861.532V79.1983Z" fill="black"/>
<path d="M915.692 79.1983H927.916V10.2804H915.692V79.1983Z" fill="black"/>
<path d="M960.608 79.1983H972.832V20.6076H992.748V10.2804H940.691V20.6076H960.608V79.1983Z" fill="black"/>
<path d="M1015.33 79.1983H1027.55V53.5912L1048.31 10.2804H1035.56L1028.08 27.8787C1026.08 33.0423 1023.97 37.7843 1021.76 43.0533H1021.33C1019.12 37.7843 1017.23 33.0423 1015.22 27.8787L1007.74 10.2804H994.674L1015.33 53.5912V79.1983Z" fill="black"/>
<path d="M1103.25 105.543H1111.37V0.164032H1103.25V105.543Z" fill="black"/>
<path d="M1175.47 79.1983H1187.69V52.2213H1198.23L1213.09 79.1983H1226.79L1210.35 50.4298C1218.57 47.5846 1224.05 41.2618 1224.05 30.7239C1224.05 15.3386 1213.09 10.2804 1198.76 10.2804H1175.47V79.1983ZM1187.69 42.5264V20.0807H1197.49C1206.87 20.0807 1212.03 22.8205 1212.03 30.7239C1212.03 38.522 1206.87 42.5264 1197.49 42.5264H1187.69Z" fill="black"/>
<path d="M1239.09 79.1983H1251.32V10.2804H1239.09V79.1983Z" fill="black"/>
<path d="M1298.97 80.4628C1308.35 80.4628 1316.36 76.88 1321 72.2433V41.8941H1296.97V51.9051H1310.04V66.7636C1307.82 68.7658 1304.03 69.8196 1300.13 69.8196C1286.33 69.8196 1279.06 60.3354 1279.06 44.634C1279.06 29.1433 1287.28 19.6592 1299.5 19.6592C1305.93 19.6592 1309.93 22.2936 1313.41 25.6658L1319.94 17.7623C1315.62 13.3364 1308.88 9.01587 1299.08 9.01587C1280.74 9.01587 1266.52 22.399 1266.52 44.9501C1266.52 67.8174 1280.32 80.4628 1298.97 80.4628Z" fill="black"/>
<path d="M1337.53 79.1983H1349.76V48.6384H1377.68V79.1983H1389.91V10.2804H1377.68V37.9951H1349.76V10.2804H1337.53V79.1983Z" fill="black"/>
<path d="M1422.58 79.1983H1434.81V20.6076H1454.72V10.2804H1402.67V20.6076H1422.58V79.1983Z" fill="black"/>
<path d="M1467.46 79.1983H1510.04V68.8711H1479.69V48.533H1504.45V38.2059H1479.69V20.6076H1508.98V10.2804H1467.46V79.1983Z" fill="black"/>
<path d="M1552.2 80.4628C1570.22 80.4628 1582.65 66.7636 1582.65 44.4232C1582.65 22.1883 1570.22 9.01587 1552.2 9.01587C1534.28 9.01587 1521.85 22.1883 1521.85 44.4232C1521.85 66.7636 1534.28 80.4628 1552.2 80.4628ZM1552.2 69.8196C1541.34 69.8196 1534.39 59.9139 1534.39 44.4232C1534.39 29.0379 1541.34 19.6592 1552.2 19.6592C1563.05 19.6592 1570.01 29.0379 1570.01 44.4232C1570.01 59.9139 1563.05 69.8196 1552.2 69.8196Z" fill="black"/>
<path d="M1623.52 80.4628C1639.54 80.4628 1649.55 71.611 1649.55 48.9545V10.2804H1637.85V49.9029C1637.85 64.8667 1631.95 69.8196 1623.52 69.8196C1615.2 69.8196 1609.61 64.8667 1609.61 49.9029V10.2804H1597.39V48.9545C1597.39 71.611 1607.61 80.4628 1623.52 80.4628Z" fill="black"/>
<path d="M1687.12 80.4628C1702.61 80.4628 1711.88 71.1895 1711.88 60.0193C1711.88 50.0083 1706.09 44.8447 1697.97 41.3672L1688.59 37.4682C1682.9 35.1499 1677.64 33.1477 1677.64 27.7733C1677.64 22.7151 1681.96 19.6592 1688.49 19.6592C1694.39 19.6592 1699.03 21.8721 1703.45 25.5604L1709.67 17.7623C1704.3 12.388 1696.5 9.01587 1688.49 9.01587C1675 9.01587 1665.31 17.4462 1665.31 28.4056C1665.31 38.522 1672.47 43.8963 1679.22 46.7416L1688.7 50.8513C1694.92 53.4858 1699.34 55.2773 1699.34 60.9677C1699.34 66.3421 1695.13 69.8196 1687.33 69.8196C1681.01 69.8196 1674.37 66.6582 1669.42 62.0215L1662.25 70.3465C1668.78 76.7746 1677.85 80.4628 1687.12 80.4628Z" fill="black"/>
<path d="M1725.68 79.1983H1737.38V49.0599C1737.38 41.3672 1736.32 33.0423 1735.8 25.7711H1736.22L1743.28 40.4188L1764.78 79.1983H1777.32V10.2804H1765.62V40.2081C1765.62 47.9007 1766.67 56.6472 1767.2 63.7076H1766.78L1759.72 49.0599L1738.22 10.2804H1725.68V79.1983Z" fill="black"/>
<path d="M1796.1 79.1983H1838.67V68.8711H1808.32V48.533H1833.09V38.2059H1808.32V20.6076H1837.62V10.2804H1796.1V79.1983Z" fill="black"/>
<path d="M1874.19 80.4628C1889.68 80.4628 1898.96 71.1895 1898.96 60.0193C1898.96 50.0083 1893.16 44.8447 1885.05 41.3672L1875.67 37.4682C1869.98 35.1499 1864.71 33.1477 1864.71 27.7733C1864.71 22.7151 1869.03 19.6592 1875.56 19.6592C1881.47 19.6592 1886.1 21.8721 1890.53 25.5604L1896.75 17.7623C1891.37 12.388 1883.57 9.01587 1875.56 9.01587C1862.08 9.01587 1852.38 17.4462 1852.38 28.4056C1852.38 38.522 1859.55 43.8963 1866.29 46.7416L1875.77 50.8513C1881.99 53.4858 1886.42 55.2773 1886.42 60.9677C1886.42 66.3421 1882.2 69.8196 1874.4 69.8196C1868.08 69.8196 1861.44 66.6582 1856.49 62.0215L1849.32 70.3465C1855.86 76.7746 1864.92 80.4628 1874.19 80.4628Z" fill="black"/>
<path d="M1931.24 80.4628C1946.73 80.4628 1956 71.1895 1956 60.0193C1956 50.0083 1950.2 44.8447 1942.09 41.3672L1932.71 37.4682C1927.02 35.1499 1921.75 33.1477 1921.75 27.7733C1921.75 22.7151 1926.07 19.6592 1932.61 19.6592C1938.51 19.6592 1943.14 21.8721 1947.57 25.5604L1953.79 17.7623C1948.41 12.388 1940.61 9.01587 1932.61 9.01587C1919.12 9.01587 1909.42 17.4462 1909.42 28.4056C1909.42 38.522 1916.59 43.8963 1923.33 46.7416L1932.82 50.8513C1939.03 53.4858 1943.46 55.2773 1943.46 60.9677C1943.46 66.3421 1939.24 69.8196 1931.45 69.8196C1925.12 69.8196 1918.48 66.6582 1913.53 62.0215L1906.37 70.3465C1912.9 76.7746 1921.96 80.4628 1931.24 80.4628Z" fill="black"/>
</svg>
