<svg width="103" height="102" viewBox="0 0 103 102" fill="none" xmlns="http://www.w3.org/2000/svg">
<path d="M100.367 37.9226C94.8813 16.3664 75.9266 0.805836 53.6778 0.181715C41.9156 -0.148238 29.5384 3.75012 20.527 17.3919C4.41797 41.778 21.5169 58.6296 33.4378 66.6372C39.1971 70.5136 44.3865 75.1746 48.8557 80.4853C56.9079 90.034 72.3985 101.9 90.8471 83.308C104.219 69.8328 104.021 52.2812 100.367 37.9226Z" fill="#F2F2F2"/>
<path d="M50.1767 101.837C77.6123 101.837 99.8533 99.0306 99.8533 95.5685C99.8533 92.1064 77.6123 89.2998 50.1767 89.2998C22.741 89.2998 0.5 92.1064 0.5 95.5685C0.5 99.0306 22.741 101.837 50.1767 101.837Z" fill="#3F3D56"/>
<path opacity="0.1" d="M50.1764 98.7978C74.5325 98.7978 94.2771 96.8291 94.2771 94.4006C94.2771 91.9721 74.5325 90.0034 50.1764 90.0034C25.8202 90.0034 6.07568 91.9721 6.07568 94.4006C6.07568 96.8291 25.8202 98.7978 50.1764 98.7978Z" fill="black"/>
<path d="M28.4035 57.2075H25.8145V96.5336H28.4035V57.2075Z" fill="#3F3D56"/>
<path d="M48.856 56.1726V57.2075L6.65527 57.725V56.6901L6.71483 56.6512L14.1634 51.7743H45.4903L48.856 56.1726Z" fill="#3F3D56"/>
<path d="M41.3481 49.9633C41.3481 49.9633 32.0277 50.7394 35.1345 53.068C38.2413 55.3965 41.3481 51.5156 41.3481 51.5156V49.9633Z" fill="#FFB9B9"/>
<path opacity="0.1" d="M48.856 56.2036V57.2075L6.65527 57.7249V56.69L6.71483 56.6512L48.856 56.2036Z" fill="black"/>
<path d="M55.3288 37.2858L55.5554 36.4364C55.5554 36.4364 52.4809 41.9428 52.222 42.4603C51.9631 42.9777 47.5618 47.376 47.044 48.1522C46.691 48.6553 46.2529 49.0931 45.7495 49.4458H40.8303C40.8303 49.4458 39.7947 52.8092 41.3481 53.068C42.9016 53.3267 47.8207 54.3616 48.8563 54.3616C49.8919 54.3616 56.3644 48.4109 56.3644 48.4109L55.3288 37.2858Z" fill="#575A89"/>
<path d="M56.3644 74.8008L54.811 96.5336H56.3644L58.1768 74.2833L56.3644 74.8008Z" fill="#3F3D56"/>
<path d="M75.2639 72.2135L73.7104 93.9463H75.2639L77.0762 71.696L75.2639 72.2135Z" fill="#3F3D56"/>
<path d="M78.1115 74.8008L76.5581 96.5336H78.1115L79.9238 74.2833L78.1115 74.8008Z" fill="#3F3D56"/>
<path d="M54.0339 72.7309L52.4805 94.4637H54.0339L55.8462 72.2134L54.0339 72.7309Z" fill="#3F3D56"/>
<path d="M84.0664 45.0474L79.6651 76.6118L53.5161 75.5769L53.6921 72.6636L54.0339 67.0389L74.2281 68.0738L77.5938 45.0474H84.0664Z" fill="#3F3D56"/>
<path opacity="0.1" d="M84.0664 45.0474L79.665 76.6118L53.5161 75.5769L53.6921 72.6637C59.1498 72.8732 77.5938 71.696 77.5938 71.696C77.5938 67.5668 81.2236 51.4017 82.689 45.0474L84.0664 45.0474Z" fill="black"/>
<path d="M38.2411 83.3386C38.2411 83.3386 37.4644 89.2892 35.911 90.3241C34.3576 91.359 42.3835 92.6526 42.3835 92.6526L42.9013 84.8909L38.2411 83.3386Z" fill="#FFB9B9"/>
<path d="M64.3906 85.9259C64.3906 85.9259 65.6851 87.4782 65.944 88.5131C66.2029 89.548 70.0864 90.0655 70.0864 90.0655L72.9343 86.9608C72.9343 86.9608 69.3097 83.8561 68.2741 83.8561C67.2385 83.8561 64.3906 85.9259 64.3906 85.9259Z" fill="#FFB9B9"/>
<path d="M57.5295 32.4993C60.9612 32.4993 63.7431 29.7193 63.7431 26.29C63.7431 22.8606 60.9612 20.0806 57.5295 20.0806C54.0978 20.0806 51.3159 22.8606 51.3159 26.29C51.3159 29.7193 54.0978 32.4993 57.5295 32.4993Z" fill="#FFB9B9"/>
<path d="M55.8467 30.5589C55.8467 30.5589 58.9535 36.5095 58.4357 37.5444C57.9179 38.5793 65.1671 32.6287 65.1671 32.6287C65.1671 32.6287 62.5781 28.4891 62.5781 27.1955C62.5781 25.9018 55.8467 30.5589 55.8467 30.5589Z" fill="#FFB9B9"/>
<path d="M58.6944 61.0884C58.6944 61.0884 38.7591 57.9837 37.9824 65.2279C37.2057 72.4722 34.3578 81.7863 34.0989 82.5625C33.84 83.3386 42.6426 87.737 43.6782 86.1846C44.7138 84.6323 46.5261 72.2135 46.0083 71.1786C45.4905 70.1437 45.2316 68.8501 46.2672 69.1088C47.3028 69.3675 58.6944 71.6961 61.0245 70.9199C63.3546 70.1437 69.3093 59.7947 69.3093 59.7947L58.6944 61.0884Z" fill="#2F2E41"/>
<path opacity="0.1" d="M58.6944 61.0884C58.6944 61.0884 38.7591 57.9837 37.9824 65.2279C37.2057 72.4722 34.3578 81.7863 34.0989 82.5625C33.84 83.3386 42.6426 87.737 43.6782 86.1846C44.7138 84.6323 46.5261 72.2135 46.0083 71.1786C45.4905 70.1437 45.2316 68.8501 46.2672 69.1088C47.3028 69.3675 58.6944 71.6961 61.0245 70.9199C63.3546 70.1437 69.3093 59.7947 69.3093 59.7947L58.6944 61.0884Z" fill="black"/>
<path d="M58.1766 59.536L58.9533 66.0041C58.9533 66.0041 46.5261 70.6611 51.1863 78.1641C55.8465 85.6671 61.0245 89.8067 61.0245 89.8067C61.0245 89.8067 69.3093 85.1497 69.3093 83.8561C69.3093 82.5624 59.2122 75.3182 60.5067 75.3182C61.8012 75.3182 80.442 74.2833 76.5585 63.9343C72.675 53.5853 58.1766 59.536 58.1766 59.536Z" fill="#2F2E41"/>
<path d="M37.983 90.5829C37.983 90.5829 35.9118 88.2544 35.9118 88.7719C35.9118 89.2893 29.9571 92.394 28.9215 92.6527C27.8859 92.9115 26.3325 93.4289 28.4037 94.2051C30.4749 94.9812 43.6789 95.24 43.6789 94.7225C43.6789 94.2051 44.1967 89.2893 43.161 89.8068C42.1254 90.3242 38.2419 91.6178 37.983 90.5829Z" fill="#2F2E41"/>
<path d="M68.5327 88.7719C68.5327 88.7719 65.6848 87.9957 65.4258 88.7719C65.1669 89.548 64.908 92.6527 62.5779 93.6876C60.2478 94.7225 59.4711 96.2749 62.5779 96.5336C65.6847 96.7923 74.2285 90.8417 74.2285 89.8068C74.2285 88.7719 73.1929 85.6672 72.675 85.9259C72.1572 86.1846 70.8628 88.5131 68.5327 88.7719Z" fill="#2F2E41"/>
<path d="M33.0632 92.1353H21.1538V96.7923H33.0632V92.1353Z" fill="#3F3D56"/>
<path d="M65.1666 31.0764C65.1666 31.0764 64.1976 28.4867 62.4814 30.0402C60.7653 31.5938 57.3996 35.4747 57.3996 35.4747C57.3996 35.4747 55.3284 36.2509 54.5517 37.5445C53.775 38.8381 53.775 47.376 55.3284 50.222C56.8818 53.068 56.8818 57.9837 57.3996 59.2773C57.9174 60.571 57.3996 61.8646 59.2119 61.8646C61.0242 61.8646 58.1763 59.7948 64.131 61.8646C70.0857 63.9344 76.8171 66.5216 77.3349 64.7106C77.8527 62.8995 76.5582 61.8646 77.3349 61.0884C78.1116 60.3122 77.3349 60.0535 76.8171 58.2424C76.2993 56.4314 75.7815 56.1726 75.5226 53.8441C75.2637 51.5156 75.5226 49.1871 75.0048 48.1522C74.487 47.1173 74.487 45.5649 74.487 42.9777C74.487 40.3905 72.9336 35.216 70.0857 33.6636C67.2378 32.1113 65.1666 31.0764 65.1666 31.0764Z" fill="#575A89"/>
<path d="M51.4623 19.3853C52.9055 17.9775 54.4223 16.5243 56.3435 15.9111C58.9078 15.0927 61.7665 15.9515 63.9741 17.4908C64.4503 17.8229 64.9167 18.1988 65.2029 18.7038C65.4654 19.167 65.5572 19.7046 65.6405 20.2303C65.9336 22.0819 66.1737 23.9582 66.0304 25.8274C65.8871 27.6965 65.3357 29.5752 64.1838 31.0547C63.1626 29.9644 62.3789 28.6742 61.8822 27.2656C61.7511 26.8929 61.6334 26.5001 61.3685 26.2068C61.1036 25.9134 60.6374 25.7556 60.305 25.9694C59.843 26.2666 59.9011 27.06 59.4134 27.3127C59.2464 27.3883 59.0594 27.4079 58.8804 27.3685C57.6089 27.1496 57.1661 25.5929 56.3386 24.6036C55.1189 23.1456 53.4113 23.2379 51.7445 22.8189C49.8103 22.3326 50.2892 20.5297 51.4623 19.3853Z" fill="#2F2E41"/>
<path d="M40.9474 54.4459C43.8867 54.4459 46.2694 53.9283 46.2694 53.2898C46.2694 52.6512 43.8867 52.1336 40.9474 52.1336C38.0082 52.1336 35.6255 52.6512 35.6255 53.2898C35.6255 53.9283 38.0082 54.4459 40.9474 54.4459Z" fill="#006DCC"/>
<path d="M40.5107 53.4194L40.4065 47.9144C40.3832 46.6829 40.4273 45.2871 41.3435 44.4631C41.9224 43.9425 42.7928 43.7187 43.1561 43.0302C43.3539 42.6551 43.3577 42.2117 43.3568 41.7877L43.3422 34.2944" stroke="#006DCC" stroke-width="6" stroke-miterlimit="10"/>
<path d="M43.405 31.9393H42.9645C42.4046 31.9393 41.9507 32.3929 41.9507 32.9524V35.7049C41.9507 36.2645 42.4046 36.7181 42.9645 36.7181H43.405C43.9649 36.7181 44.4188 36.2645 44.4188 35.7049V32.9524C44.4188 32.3929 43.9649 31.9393 43.405 31.9393Z" fill="#006DCC"/>
<path d="M50.2933 52.2057C50.2933 52.2057 41.7123 49.9311 41.0125 51.8876C40.3126 53.8441 48.3385 55.6551 48.3385 55.6551H51.7042L50.2933 52.2057Z" fill="#FFB9B9"/>
<path d="M68.2739 35.2159C68.2739 35.2159 64.3904 38.0618 63.3548 42.2014C62.3192 46.341 61.5425 50.7393 61.5425 50.7393L49.6331 52.2917C49.6331 52.2917 48.5975 56.4313 50.1509 56.69C51.7043 56.9487 63.3548 57.7249 65.1671 56.69C66.9794 55.6551 73.193 42.7189 72.9341 41.4253C72.6752 40.1316 72.1574 35.4746 68.2739 35.2159Z" fill="#575A89"/>
<path d="M21.8605 53.6122L26.0673 53.9495L32.0659 53.5603L31.9615 53.5504L26.4049 53.0153C25.1325 52.5482 26.0154 49.7975 26.0154 49.7975L21.7577 50.0139L21.4191 50.031C19.9129 53.5603 21.8605 53.6122 21.8605 53.6122Z" fill="#D1D9EC"/>
<path opacity="0.1" d="M21.8605 53.6122L26.0673 53.9496L32.0659 53.5603L31.9615 53.5505L25.8985 53.7679L21.8346 53.3268C20.6816 53.0237 21.3417 51.0229 21.7577 50.014L21.4191 50.0311C19.9129 53.5603 21.8605 53.6122 21.8605 53.6122Z" fill="black"/>
<path d="M14.8879 28.4919L16.1478 46.7484V48.9518C16.1862 49.5055 16.4497 50.4697 17.0055 50.466L18.0377 49.5813H36.6216C36.9415 49.5792 35.8658 49.1125 35.8341 48.7944L37.1373 48.1144L35.7735 34.7277C35.7519 34.5163 35.6704 34.3154 35.5385 34.1487C35.4065 33.982 35.2297 33.8564 35.0287 33.7867L16.5661 27.3978C15.9377 27.1803 15.2983 27.2577 14.8984 27.5898C14.6242 27.8177 14.8562 28.0372 14.8879 28.4919Z" fill="#4C4C56"/>
<path d="M15.7803 47.067L15.9491 49.4877C15.9675 49.7544 16.0871 50.0041 16.2833 50.1859C16.4796 50.3677 16.7379 50.4678 17.0054 50.466L17.396 50.4634L36.767 50.3461C36.8426 50.3456 36.9173 50.3293 36.9862 50.2983C37.0551 50.2673 37.1169 50.2223 37.1674 50.1662C37.2179 50.11 37.2562 50.0439 37.2797 49.9721C37.3033 49.9003 37.3115 49.8244 37.304 49.7492L37.1373 48.1144L15.7803 47.067Z" fill="#DFE6F5"/>
<path d="M28.768 49.5899C28.9114 49.5899 29.0277 49.3575 29.0277 49.0709C29.0277 48.7842 28.9114 48.5519 28.768 48.5519C28.6246 48.5519 28.5083 48.7842 28.5083 49.0709C28.5083 49.3575 28.6246 49.5899 28.768 49.5899Z" fill="white"/>
<path d="M19.2844 54.2194C19.2844 54.2194 13.987 52.2212 12.5587 53.6745C12.5587 53.6745 12.325 54.1156 13.2858 54.2194L17.1682 54.5308C17.1682 54.5308 18.7651 54.6865 19.2844 54.2194Z" fill="#D1D9EC"/>
<path d="M19.1433 53.6996C18.1027 53.2749 14.97 52.1754 12.9658 53.3919C12.9658 53.3919 15.1836 53.1463 16.4023 53.8503C17.6209 54.5542 19.2847 54.2194 19.2847 54.2194L19.3096 54.1752C19.333 54.1336 19.3472 54.0876 19.3514 54.0401C19.3556 53.9927 19.3496 53.9449 19.3339 53.8999C19.3181 53.8549 19.293 53.8138 19.2602 53.7792C19.2273 53.7447 19.1875 53.7176 19.1433 53.6996Z" fill="#DFE6F5"/>
<path d="M14.4948 28.62L15.9495 49.4876C15.968 49.7544 16.0875 50.0041 16.2838 50.1859C16.4801 50.3677 16.7383 50.4678 17.0059 50.466L17.3965 50.4634C17.1286 50.2074 16.9004 49.913 16.7192 49.5899C16.7192 49.5899 15.291 28.6221 15.1871 28.1031C15.1416 27.9082 15.0416 27.7302 14.8989 27.5898C14.752 27.7152 14.6384 27.8747 14.5679 28.0544C14.4975 28.2341 14.4723 28.4283 14.4948 28.62Z" fill="#DFE6F5"/>
<path opacity="0.1" d="M14.4948 28.62L15.9495 49.4876C15.968 49.7544 16.0875 50.0041 16.2838 50.1859C16.4801 50.3677 16.7383 50.4678 17.0059 50.466L17.3965 50.4634C17.1286 50.2074 16.9004 49.913 16.7192 49.5899C16.7192 49.5899 15.291 28.6221 15.1871 28.1031C15.1416 27.9082 15.0416 27.7302 14.8989 27.5898C14.752 27.7152 14.6384 27.8747 14.5679 28.0544C14.4975 28.2341 14.4723 28.4283 14.4948 28.62Z" fill="black"/>
<path d="M22.6737 38.6785C21.9393 39.1487 21.1601 39.5449 20.3475 39.8612C19.8223 40.0656 19.2445 40.2377 18.7024 40.0838C18.1603 39.9299 17.7155 39.3224 17.9318 38.8023C18.0042 38.6513 18.1151 38.522 18.2533 38.4273C18.3915 38.3326 18.5522 38.276 18.7192 38.2629C19.0549 38.2416 19.3892 38.3207 19.6796 38.4902C20.2135 38.7776 20.64 39.2298 20.8954 39.7793C21.0255 40.0613 21.1187 40.3796 21.359 40.5764C21.5547 40.7118 21.7796 40.7993 22.0155 40.8316C22.5666 40.951 23.1325 41.0711 23.6903 40.9883C24.2482 40.9054 24.8052 40.5747 24.9932 40.0433" stroke="#F2F2F2" stroke-width="2" stroke-miterlimit="10"/>
<path d="M27.1184 36.4637C27.0122 38.1359 26.8394 39.8021 26.6001 41.4623L27.8048 41.3446C28.2488 41.3012 28.7569 41.2197 28.9898 40.8395C29.207 40.4849 29.0739 40.001 28.7926 39.6948C28.5112 39.3886 28.115 39.219 27.7315 39.0582L27.1032 38.7947" stroke="#F2F2F2" stroke-width="2" stroke-miterlimit="10"/>
<path d="M33.3383 38.8742C32.9112 38.7756 32.475 38.6788 32.0383 38.7173C31.6016 38.7559 31.1566 38.9518 30.9236 39.3229C30.4933 40.0084 30.9748 40.943 31.6513 41.3878C32.2147 41.7554 32.8872 41.9189 33.5566 41.851" stroke="#F2F2F2" stroke-width="2" stroke-miterlimit="10"/>
</svg>
