<svg width="102" height="52" viewBox="0 0 102 52" fill="none" xmlns="http://www.w3.org/2000/svg">
<path d="M58.486 50.2053C57.8547 50.2049 57.2494 49.9535 56.8032 49.5063C56.3569 49.0591 56.1063 48.4529 56.1063 47.8207C56.1063 47.1886 56.3569 46.5823 56.8032 46.1351C57.2494 45.688 57.8547 45.4366 58.486 45.4361H93.8585C93.6806 45.1091 93.418 44.8361 93.0983 44.6458C92.7786 44.4554 92.4136 44.3549 92.0417 44.3546H21.7306C20.8133 44.3556 19.9339 44.7213 19.2856 45.3712C18.6374 46.0211 18.2733 46.9022 18.2734 47.8207C18.2739 48.7391 18.6381 49.6198 19.2863 50.2696C19.9344 50.9194 20.8134 51.2852 21.7306 51.2868H92.0417C92.4136 51.2866 92.7786 51.186 93.0983 50.9957C93.418 50.8054 93.6806 50.5323 93.8585 50.2053L58.486 50.2053Z" fill="#CCCCCC"/>
<path d="M93.906 46.75H60.275C60.2235 46.7499 60.1742 46.7294 60.1378 46.6929C60.1015 46.6564 60.0811 46.6069 60.0811 46.5554C60.0811 46.5038 60.1015 46.4544 60.1378 46.4179C60.1742 46.3814 60.2235 46.3608 60.275 46.3607H93.906C93.9575 46.3608 94.0068 46.3814 94.0432 46.4179C94.0795 46.4544 94.0999 46.5038 94.0999 46.5554C94.0999 46.6069 94.0795 46.6564 94.0432 46.6929C94.0068 46.7294 93.9575 46.7499 93.906 46.75Z" fill="#CCCCCC"/>
<path d="M93.906 48.0154H60.275C60.2234 48.0154 60.174 47.9949 60.1375 47.9583C60.101 47.9218 60.0806 47.8723 60.0806 47.8207C60.0806 47.7691 60.101 47.7196 60.1375 47.683C60.174 47.6465 60.2234 47.626 60.275 47.626H93.906C93.9575 47.626 94.007 47.6465 94.0434 47.683C94.0799 47.7196 94.1004 47.7691 94.1004 47.8207C94.1004 47.8723 94.0799 47.9218 94.0434 47.9583C94.007 47.9949 93.9575 48.0154 93.906 48.0154Z" fill="#CCCCCC"/>
<path d="M93.906 49.2807H60.275C60.2235 49.2806 60.1742 49.26 60.1378 49.2235C60.1015 49.187 60.0811 49.1376 60.0811 49.086C60.0811 49.0345 60.1015 48.985 60.1378 48.9485C60.1742 48.912 60.2235 48.8915 60.275 48.8914H93.906C93.9575 48.8915 94.0068 48.912 94.0432 48.9485C94.0795 48.985 94.0999 49.0345 94.0999 49.086C94.0999 49.1376 94.0795 49.187 94.0432 49.2235C94.0068 49.26 93.9575 49.2806 93.906 49.2807Z" fill="#CCCCCC"/>
<path d="M49.3493 43.4895C48.718 43.4891 48.1127 43.2376 47.6665 42.7905C47.2202 42.3433 46.9696 41.7371 46.9696 41.1049C46.9696 40.4728 47.2202 39.8665 47.6665 39.4193C48.1127 38.9722 48.718 38.7207 49.3493 38.7203H84.7218C84.5439 38.3933 84.2813 38.1203 83.9616 37.93C83.642 37.7396 83.277 37.6391 82.9051 37.6388H12.5939C11.6766 37.6398 10.7972 38.0055 10.149 38.6554C9.5007 39.3053 9.13663 40.1863 9.13672 41.1049C9.1372 42.0233 9.50145 42.904 10.1496 43.5538C10.7977 44.2036 11.6768 44.5694 12.5939 44.571H82.9051C83.277 44.5707 83.642 44.4702 83.9616 44.2799C84.2813 44.0895 84.5439 43.8165 84.7218 43.4895L49.3493 43.4895Z" fill="#006DCC"/>
<path d="M84.7688 40.0343H51.1378C51.0863 40.0342 51.037 40.0136 51.0006 39.9771C50.9643 39.9406 50.9438 39.8912 50.9438 39.8396C50.9438 39.7881 50.9643 39.7386 51.0006 39.7021C51.037 39.6656 51.0863 39.6451 51.1378 39.645H84.7688C84.8204 39.645 84.8698 39.6655 84.9063 39.702C84.9427 39.7385 84.9632 39.788 84.9632 39.8396C84.9632 39.8912 84.9427 39.9408 84.9063 39.9773C84.8698 40.0138 84.8204 40.0343 84.7688 40.0343Z" fill="#CCCCCC"/>
<path d="M84.7693 41.2995H51.1382C51.0867 41.2995 51.0372 41.279 51.0008 41.2425C50.9643 41.206 50.9438 41.1565 50.9438 41.1049C50.9438 41.0532 50.9643 41.0037 51.0008 40.9672C51.0372 40.9307 51.0867 40.9102 51.1382 40.9102H84.7693C84.8208 40.9102 84.8703 40.9307 84.9067 40.9672C84.9432 41.0037 84.9637 41.0532 84.9637 41.1049C84.9637 41.1565 84.9432 41.206 84.9067 41.2425C84.8703 41.279 84.8208 41.2995 84.7693 41.2995Z" fill="#CCCCCC"/>
<path d="M84.7688 42.5649H51.1378C51.0863 42.5647 51.037 42.5442 51.0006 42.5077C50.9643 42.4712 50.9438 42.4217 50.9438 42.3702C50.9438 42.3186 50.9643 42.2692 51.0006 42.2327C51.037 42.1962 51.0863 42.1757 51.1378 42.1755H84.7688C84.7944 42.1755 84.8197 42.1805 84.8433 42.1902C84.867 42.2 84.8885 42.2143 84.9066 42.2324C84.9247 42.2505 84.939 42.2719 84.9488 42.2956C84.9586 42.3192 84.9637 42.3446 84.9637 42.3702C84.9637 42.3958 84.9586 42.4212 84.9488 42.4448C84.939 42.4685 84.9247 42.4899 84.9066 42.508C84.8885 42.5261 84.867 42.5404 84.8433 42.5502C84.8197 42.5599 84.7944 42.5649 84.7688 42.5649Z" fill="#CCCCCC"/>
<path d="M40.2126 36.5496C39.5813 36.5492 38.976 36.2978 38.5297 35.8506C38.0835 35.4035 37.8328 34.7972 37.8328 34.165C37.8328 33.5329 38.0835 32.9266 38.5297 32.4794C38.976 32.0323 39.5813 31.7809 40.2126 31.7804H75.5851C75.4072 31.4534 75.1446 31.1804 74.8249 30.9901C74.5052 30.7998 74.1402 30.6992 73.7683 30.6989H3.45713C2.53981 30.6999 1.66042 31.0656 1.01218 31.7155C0.363945 32.3654 -0.000114133 33.2465 2.684e-08 34.165C0.000464128 35.0834 0.364709 35.9641 1.01282 36.6139C1.66094 37.2637 2.53999 37.6295 3.45713 37.6311H73.7683C74.1402 37.6309 74.5052 37.5303 74.8249 37.34C75.1446 37.1497 75.4072 36.8767 75.5851 36.5496L40.2126 36.5496Z" fill="#CCCCCC"/>
<path d="M75.6321 33.0944H42.0011C41.9496 33.0943 41.9003 33.0737 41.8639 33.0372C41.8275 33.0007 41.8071 32.9513 41.8071 32.8997C41.8071 32.8482 41.8275 32.7988 41.8639 32.7623C41.9003 32.7258 41.9496 32.7052 42.0011 32.7051H75.6321C75.6836 32.7051 75.7331 32.7256 75.7695 32.7621C75.806 32.7986 75.8265 32.8481 75.8265 32.8997C75.8265 32.9514 75.806 33.0009 75.7695 33.0374C75.7331 33.0739 75.6836 33.0944 75.6321 33.0944Z" fill="#CCCCCC"/>
<path d="M75.6325 34.3597H42.0015C41.976 34.3597 41.9507 34.3546 41.9271 34.3448C41.9035 34.3351 41.8821 34.3207 41.8641 34.3026C41.846 34.2846 41.8317 34.2631 41.8219 34.2395C41.8122 34.2159 41.8071 34.1906 41.8071 34.165C41.8071 34.1394 41.8122 34.1141 41.8219 34.0905C41.8317 34.0669 41.846 34.0454 41.8641 34.0274C41.8821 34.0093 41.9035 33.9949 41.9271 33.9852C41.9507 33.9754 41.976 33.9703 42.0015 33.9703H75.6325C75.6581 33.9703 75.6833 33.9754 75.7069 33.9852C75.7305 33.9949 75.752 34.0093 75.77 34.0274C75.7881 34.0454 75.8024 34.0669 75.8121 34.0905C75.8219 34.1141 75.8269 34.1394 75.8269 34.165C75.8269 34.1906 75.8219 34.2159 75.8121 34.2395C75.8024 34.2631 75.7881 34.2846 75.77 34.3026C75.752 34.3207 75.7305 34.3351 75.7069 34.3448C75.6833 34.3546 75.6581 34.3597 75.6325 34.3597Z" fill="#CCCCCC"/>
<path d="M75.6325 35.625H42.0015C41.95 35.625 41.9005 35.6045 41.8641 35.568C41.8276 35.5315 41.8071 35.482 41.8071 35.4304C41.8071 35.3787 41.8276 35.3292 41.8641 35.2927C41.9005 35.2562 41.95 35.2357 42.0015 35.2357H75.6325C75.6581 35.2357 75.6833 35.2407 75.7069 35.2505C75.7305 35.2603 75.752 35.2747 75.77 35.2927C75.7881 35.3108 75.8024 35.3323 75.8121 35.3559C75.8219 35.3795 75.8269 35.4048 75.8269 35.4304C75.8269 35.4559 75.8219 35.4813 75.8121 35.5049C75.8024 35.5285 75.7881 35.5499 75.77 35.568C75.752 35.5861 75.7305 35.6004 75.7069 35.6102C75.6833 35.62 75.6581 35.625 75.6325 35.625Z" fill="#CCCCCC"/>
<path d="M76.4088 21.7449C76.2244 21.7446 76.0469 21.6741 75.9124 21.5477C75.7778 21.4214 75.6963 21.2485 75.6842 21.0642L75.5763 19.414C75.5637 19.2213 75.628 19.0314 75.7552 18.8862C75.8824 18.741 76.062 18.6523 76.2545 18.6397L89.1652 17.7931C89.3687 17.7797 89.5729 17.8066 89.766 17.8723C89.9591 17.9379 90.1375 18.0411 90.2908 18.1757C90.4441 18.3104 90.5694 18.474 90.6596 18.6571C90.7498 18.8403 90.8031 19.0395 90.8164 19.2432C90.8298 19.447 90.8029 19.6514 90.7373 19.8448C90.6717 20.0382 90.5688 20.2168 90.4343 20.3703C90.2998 20.5238 90.1365 20.6493 89.9535 20.7397C89.7706 20.83 89.5717 20.8833 89.3682 20.8967L76.4575 21.7433C76.4412 21.7443 76.425 21.7448 76.4088 21.7449Z" fill="#006DCC"/>
<path d="M78.9547 21.9576C78.7666 21.9573 78.586 21.8841 78.4506 21.7534C78.3152 21.6228 78.2355 21.4447 78.2283 21.2565L78.1362 18.7918C78.1327 18.6962 78.148 18.6009 78.1812 18.5112C78.2144 18.4216 78.265 18.3393 78.3299 18.2692C78.3949 18.1991 78.473 18.1425 78.5598 18.1027C78.6466 18.0628 78.7405 18.0404 78.8359 18.0369L89.4528 17.6395C89.6455 17.6323 89.8332 17.7021 89.9746 17.8335C90.116 17.9649 90.1995 18.1471 90.2067 18.3401L90.2987 20.8048C90.3023 20.9004 90.287 20.9957 90.2538 21.0854C90.2206 21.175 90.17 21.2573 90.105 21.3274C90.0401 21.3975 89.962 21.4541 89.8751 21.4939C89.7883 21.5338 89.6945 21.5562 89.5991 21.5597L78.9822 21.9571C78.973 21.9574 78.9638 21.9576 78.9547 21.9576Z" fill="#2F2E41"/>
<path d="M91.3964 44.6774H89.7449C89.552 44.6772 89.3672 44.6004 89.2308 44.4639C89.0945 44.3273 89.0178 44.1422 89.0176 43.9492V30.1665C89.0178 29.9734 89.0945 29.7883 89.2308 29.6518C89.3672 29.5153 89.552 29.4385 89.7449 29.4382H91.3964C91.5892 29.4385 91.774 29.5153 91.9104 29.6518C92.0467 29.7883 92.1234 29.9734 92.1236 30.1665V43.9492C92.1234 44.1422 92.0467 44.3273 91.9104 44.4639C91.774 44.6004 91.5892 44.6772 91.3964 44.6774Z" fill="#2F2E41"/>
<path d="M84.0655 37.3921L82.6532 36.5349C82.4884 36.4346 82.3701 36.273 82.3242 36.0855C82.2783 35.8979 82.3085 35.6998 82.4083 35.5346L89.5429 23.7481C89.643 23.5831 89.8044 23.4646 89.9917 23.4186C90.179 23.3726 90.3768 23.4029 90.5418 23.5028L91.9541 24.36C92.1189 24.4603 92.2372 24.6219 92.2831 24.8094C92.329 24.9969 92.2988 25.1951 92.199 25.3603L85.0644 37.1468C84.9643 37.3118 84.8029 37.4303 84.6156 37.4763C84.4283 37.5223 84.2305 37.492 84.0655 37.3921Z" fill="#2F2E41"/>
<path d="M88.8871 15.0545C92.0386 15.0545 94.5935 12.4963 94.5935 9.34044C94.5935 6.18463 92.0386 3.62634 88.8871 3.62634C85.7355 3.62634 83.1807 6.18463 83.1807 9.34044C83.1807 12.4963 85.7355 15.0545 88.8871 15.0545Z" fill="#006DCC"/>
<path d="M85.7989 11.2914C85.6154 11.231 85.4469 11.132 85.3047 11.0009C85.2105 10.9074 85.1379 10.7943 85.092 10.6697C85.046 10.5451 85.0278 10.4119 85.0387 10.2795C85.0447 10.1852 85.0723 10.0935 85.1196 10.0117C85.1668 9.9298 85.2323 9.86 85.3109 9.80769C85.5149 9.67661 85.7879 9.67622 86.0658 9.79885L86.0552 7.56814L86.279 7.56708L86.2914 10.1895L86.119 10.0809C85.919 9.95517 85.6335 9.86668 85.4317 9.99631C85.3819 10.0306 85.3406 10.0759 85.311 10.1287C85.2815 10.1815 85.2645 10.2405 85.2615 10.3009C85.2539 10.3996 85.2677 10.4987 85.3018 10.5915C85.336 10.6843 85.3897 10.7687 85.4593 10.8388C85.7064 11.0752 86.0669 11.1491 86.478 11.2152L86.4425 11.4364C86.2241 11.4074 86.0087 11.3589 85.7989 11.2914Z" fill="#2F2E41"/>
<path d="M83.7485 7.45549L83.7192 7.67761L84.9141 7.83562L84.9434 7.6135L83.7485 7.45549Z" fill="#2F2E41"/>
<path d="M87.5195 7.95408L87.4902 8.17621L88.6851 8.33422L88.7144 8.1121L87.5195 7.95408Z" fill="#2F2E41"/>
<path d="M93.6523 33.8644H84.0297C83.7775 33.8642 83.5358 33.7637 83.3575 33.5852C83.1792 33.4067 83.0789 33.1646 83.0786 32.9121L85.0931 17.4432C85.0947 17.1918 85.1956 16.9514 85.3737 16.7743C85.5518 16.5972 85.7927 16.4979 86.0437 16.498H89.4586C90.8226 16.4996 92.1303 17.0428 93.0948 18.0086C94.0593 18.9744 94.6018 20.2839 94.6033 21.6497V32.9121C94.6031 33.1646 94.5028 33.4067 94.3245 33.5852C94.1462 33.7637 93.9044 33.8642 93.6523 33.8644Z" fill="#2F2E41"/>
<path d="M101.931 27.7691C101.991 27.8965 102.012 28.0383 101.993 28.1776C101.974 28.3169 101.915 28.4476 101.823 28.5541L100.743 29.8055C100.681 29.8779 100.605 29.9372 100.52 29.9801C100.434 30.0231 100.341 30.0487 100.246 30.0557C100.151 30.0627 100.055 30.0508 99.9644 30.0207C99.8738 29.9906 99.7899 29.943 99.7177 29.8804L89.9271 21.4104C89.7728 21.2769 89.6462 21.1143 89.5546 20.9318C89.463 20.7493 89.4082 20.5506 89.3933 20.3469C89.3784 20.1432 89.4038 19.9385 89.4679 19.7446C89.532 19.5507 89.6336 19.3714 89.767 19.2168C89.9003 19.0623 90.0628 18.9355 90.2451 18.8439C90.4273 18.7522 90.6258 18.6974 90.8293 18.6825C91.0327 18.6677 91.2371 18.6931 91.4307 18.7574C91.6243 18.8216 91.8034 18.9234 91.9577 19.057L101.748 27.5269C101.826 27.5938 101.888 27.6763 101.931 27.7691Z" fill="#006DCC"/>
<path d="M99.7704 24.9739C99.8299 25.1012 99.8512 25.2431 99.832 25.3824C99.8128 25.5217 99.7538 25.6524 99.6622 25.7589L97.818 27.8963C97.6918 28.0422 97.5129 28.1321 97.3206 28.1461C97.1283 28.1602 96.9383 28.0973 96.7922 27.9712L88.7528 21.0161C88.6805 20.9536 88.6213 20.8774 88.5784 20.792C88.5355 20.7065 88.5099 20.6134 88.5029 20.5181C88.496 20.4227 88.5078 20.3269 88.5379 20.2361C88.5679 20.1453 88.6155 20.0613 88.6779 19.9889L90.522 17.8516C90.5845 17.7792 90.6605 17.7199 90.7459 17.6769C90.8312 17.634 90.9242 17.6083 91.0194 17.6014C91.1147 17.5944 91.2104 17.6063 91.301 17.6364C91.3917 17.6664 91.4756 17.7141 91.5478 17.7766L99.5873 24.7317C99.6647 24.7986 99.7271 24.8811 99.7704 24.9739Z" fill="#2F2E41"/>
<path d="M88.9941 5.95141C88.2313 5.3193 87.2116 5.91715 86.3489 5.83229C85.5236 5.75111 84.8593 5.02381 84.6783 4.24116C84.4671 3.32807 84.9248 2.40055 85.6144 1.81563C86.3697 1.175 87.3837 0.975918 88.35 1.0734C89.4576 1.18513 90.478 1.68168 91.3966 2.2883C92.2829 2.85517 93.1008 3.52284 93.8339 4.27799C94.4908 4.97727 95.052 5.81501 95.2442 6.76915C95.4189 7.63627 95.3164 8.60278 94.8167 9.34967C94.5515 9.73266 94.1922 10.0407 93.7734 10.2442C93.337 10.4692 92.8701 10.6329 92.448 10.8859C91.8098 11.2685 91.1972 12.0481 91.4145 12.8432C91.4612 13.0169 91.5497 13.1765 91.6724 13.3079C91.8199 13.4656 92.0763 13.2486 91.9285 13.0904C91.6688 12.8126 91.6717 12.4355 91.8008 12.0955C91.9547 11.7122 92.2341 11.3926 92.5931 11.189C93.035 10.9248 93.5251 10.7576 93.9786 10.5159C94.4127 10.2948 94.7871 9.97188 95.0699 9.57469C95.6034 8.80173 95.7485 7.80624 95.6068 6.89057C95.4534 5.89968 94.9266 5.00663 94.2732 4.26228C93.5622 3.45222 92.6948 2.77157 91.8102 2.16211C90.8611 1.50815 89.8159 0.959894 88.6672 0.776259C87.6715 0.617075 86.598 0.747164 85.7406 1.30517C84.9402 1.82602 84.3356 2.70731 84.2922 3.68004C84.2784 4.12251 84.3826 4.56067 84.5941 4.94943C84.8056 5.33819 85.1167 5.6635 85.4954 5.89188C85.8838 6.11469 86.3322 6.20977 86.7775 6.16371C87.2536 6.12408 87.7281 5.96881 88.2086 6.00027C88.426 6.00934 88.6345 6.08911 88.8025 6.22749C88.9692 6.3656 89.1594 6.08839 88.9941 5.95141Z" fill="#2F2E41"/>
<path d="M82.2844 35.7337C82.2865 35.721 82.2888 35.7084 82.2916 35.6958C82.3115 35.6022 82.3497 35.5135 82.4041 35.4348C82.4584 35.3562 82.5279 35.2891 82.6083 35.2374L83.9961 34.3411C84.1582 34.2366 84.3552 34.2008 84.5436 34.2416C84.7321 34.2823 84.8968 34.3962 85.0015 34.5583L89.2826 41.2046C89.3871 41.3669 89.4229 41.5642 89.3823 41.753C89.3416 41.9418 89.2277 42.1066 89.0656 42.2114L87.6778 43.1077C87.5156 43.2122 87.3187 43.2479 87.1302 43.2072C86.9417 43.1665 86.7771 43.0526 86.6724 42.8904L82.3913 36.2442C82.2935 36.0933 82.2554 35.9112 82.2844 35.7337Z" fill="#2F2E41"/>
</svg>
