<svg width="103" height="76" viewBox="0 0 103 76" fill="none" xmlns="http://www.w3.org/2000/svg">
<path d="M94.4691 18.53C82.8923 2.41638 58.4368 -4.12001 34.3857 2.91983C21.6706 6.64158 9.41086 14.0987 3.33524 28.538C-7.52558 54.3498 15.2781 62.5935 30.1892 65.2208C37.3994 66.4913 44.1902 68.6254 50.3957 71.5309C61.5599 76.7582 81.3214 81.3902 96.2228 59.6159C107.023 43.8339 102.18 29.2633 94.4691 18.53Z" fill="#F2F2F2"/>
<path d="M27.3509 21.718C27.3185 21.4619 27.253 21.2111 27.156 20.9719C27.1437 20.9267 27.122 20.8845 27.0925 20.8481C27.0629 20.8117 27.0261 20.7818 26.9844 20.7604C26.9286 20.7459 26.8701 20.7453 26.814 20.7585L25.9396 20.8924C25.8664 20.8957 25.7963 20.9229 25.7401 20.9699C25.6262 21.0897 25.7383 21.2826 25.7348 21.4479C25.7309 21.6338 25.5658 21.7847 25.3868 21.8346C25.204 21.8715 25.0155 21.8692 24.8337 21.8277L23.6109 21.6376C23.9711 21.5226 24.2916 21.3087 24.536 21.0202C24.6969 20.8295 24.7825 20.4735 24.5499 20.3833C24.4808 20.3643 24.4088 20.3585 24.3376 20.3662C23.7836 20.3705 23.3476 19.9078 22.829 19.713C22.497 19.5963 22.1367 19.5876 21.7996 19.6882C21.4624 19.7887 21.1656 19.9933 20.9517 20.2727L21.6031 20.3042C21.6644 20.3008 21.7252 20.317 21.7766 20.3504C21.9194 20.4678 21.7419 20.6931 21.762 20.8768C21.7881 21.1155 22.105 21.1664 22.3438 21.1906C22.5826 21.2147 22.8856 21.4088 22.7707 21.6196C21.5703 22.0332 20.3488 20.8112 19.0882 20.9616C18.7691 20.9997 18.4679 21.125 18.1564 21.2039C16.2534 21.6855 14.2862 20.4006 12.3422 20.6727C11.9101 20.7464 11.4854 20.8584 11.0731 21.0075C10.8085 21.0944 10.5325 21.1883 10.3403 21.3898C10.1481 21.5913 10.0749 21.9359 10.257 22.1467C9.75506 22.188 9.24975 22.14 8.76458 22.0048C8.89578 22.0777 9.00493 22.1846 9.08056 22.3143C9.1562 22.444 9.19554 22.5917 9.19444 22.7418C8.4107 22.8697 7.64772 23.1024 6.926 23.4337C7.0607 23.6577 7.21803 23.8674 7.39552 24.0593L6.40332 24.6969C6.73853 24.7814 6.91184 25.2386 6.71691 25.5241C7.06448 25.3694 7.27989 24.9693 7.65157 24.8882C7.89507 24.8351 8.14283 24.9347 8.37382 25.0283C8.60482 25.1219 8.8587 25.2127 9.09783 25.1424C9.33696 25.0722 9.51333 24.762 9.36139 24.5644C10.3835 24.2661 11.4398 24.1011 12.5041 24.0733C12.5862 24.063 12.6695 24.0788 12.7421 24.1185C12.8807 24.2146 12.8442 24.4223 12.8368 24.5908C12.8293 24.7593 12.9606 24.9808 13.1112 24.9048C12.934 25.0585 13.0855 25.3477 13.2554 25.5093C13.4254 25.6709 13.6302 25.8938 13.5262 26.104C13.499 26.1588 13.453 26.2027 13.4268 26.2581C13.3497 26.4214 13.4722 26.6119 13.6166 26.7204C13.761 26.8289 13.9379 26.9047 14.0383 27.055C14.1386 27.2052 14.093 27.4682 13.9136 27.4892L13.4037 26.8415C13.2295 27.0223 13.11 27.2487 13.0592 27.4945C13.6 27.9367 13.6813 28.8366 13.2286 29.3686C12.9972 29.6405 12.6683 29.8057 12.3811 30.0177C12.094 30.2298 11.8283 30.5318 11.829 30.8888C11.8302 31.5055 11.7799 32.0786 12.0109 32.6504C12.437 33.7048 12.929 34.7314 13.4838 35.7241C13.6295 35.9848 13.8179 36.2705 14.113 36.3154C13.74 35.407 13.4042 34.4844 13.1056 33.5478C13.3001 33.5485 13.5248 33.564 13.6388 33.7216C13.7332 33.8521 13.7129 34.0295 13.7423 34.1879C13.7796 34.3413 13.8418 34.4876 13.9264 34.621L15.7079 37.795C15.8556 38.0581 16.025 38.3406 16.3072 38.4471C16.4876 38.5153 16.6964 38.5024 16.8625 38.6005C16.9927 38.6774 17.0804 38.8139 17.2131 38.8863C17.5884 39.0911 18.1102 38.6983 18.4609 38.9428C18.5612 39.0127 18.625 39.1238 18.7174 39.2038C19.0413 39.4844 19.5726 39.2967 19.9465 39.506C20.1875 39.6409 20.3124 39.9106 20.4409 40.1551C20.7629 40.7675 21.2838 41.3674 21.9738 41.4162C22.1906 41.4315 22.412 41.3904 22.6238 41.4386C22.8357 41.4868 23.0442 41.6718 23.0102 41.8864C22.9519 42.2544 23.1337 42.6574 23.0849 43.0268C22.996 43.6996 22.0418 43.9953 21.9599 44.669C21.9419 44.8165 21.97 44.9688 21.9349 45.1132C21.8918 45.2901 21.759 45.4342 21.7118 45.6101C21.6223 45.9434 21.8611 46.2752 22.1233 46.4994C22.3856 46.7237 22.6985 46.9171 22.8419 47.231C22.9935 47.5628 22.919 47.9497 22.9683 48.3112C23.0759 49.1003 23.7573 49.6853 24.4586 50.0625C24.6722 50.1774 24.9017 50.2887 25.0399 50.488C25.2204 50.7482 25.2025 51.0913 25.2627 51.4022C25.4103 52.1637 26.0512 52.7911 26.0694 53.5665C26.0823 54.1176 25.776 54.6176 25.5931 55.1377C25.4215 55.6359 25.3595 56.1653 25.4111 56.6898C25.4627 57.2142 25.6268 57.7213 25.8922 58.1765C26.0291 58.4077 26.1928 58.6257 26.2896 58.8763C26.4624 59.3235 26.4063 59.8319 26.5656 60.2841C26.7762 60.8819 27.355 61.3757 27.2996 62.0072C27.5624 62.5529 28.1425 62.8211 28.726 62.9835L29.7716 63.2747C29.9718 63.3304 30.181 63.3866 30.3849 63.3462C30.5887 63.3059 30.7833 63.1366 30.778 62.9287C30.2653 62.8131 29.7361 62.6901 29.3134 62.3776C28.8907 62.065 28.6012 61.5085 28.7615 61.0078C28.8359 60.7756 28.9941 60.5075 28.8437 60.3157C28.7576 60.2058 28.6001 60.1771 28.503 60.0769C28.3515 59.9206 28.4035 59.658 28.5124 59.4695C28.6214 59.281 28.7788 59.1126 28.8227 58.8993C28.8449 58.78 28.8301 58.6568 28.7803 58.5462C28.7304 58.4356 28.648 58.3428 28.5439 58.2804C28.7378 58.2072 28.9142 58.094 29.0615 57.9482C29.1976 57.7928 29.2605 57.5531 29.1534 57.3764C29.4713 57.4167 29.8467 57.4364 30.0554 57.1932C30.2221 56.9989 30.2106 56.7085 30.1448 56.4611C30.0789 56.2137 29.9676 55.9735 29.9641 55.7175C30.6976 55.7523 31.4326 55.7274 32.162 55.643C32.0565 55.2877 31.8168 54.9874 31.4938 54.8059C31.8241 54.75 32.1251 54.3544 32.2294 54.036C32.3338 53.7175 32.3072 53.3707 32.2427 53.0418C32.2179 52.9571 32.2145 52.8677 32.2328 52.7814C32.27 52.6628 32.3864 52.5904 32.4942 52.5285L34.1339 51.5866C34.2317 51.5376 34.3204 51.4721 34.3961 51.393C34.5679 51.1912 34.5424 50.8865 34.4544 50.6364C34.3665 50.3864 34.2256 50.1512 34.1917 49.8883C34.0904 49.1021 34.9318 48.5379 35.2158 47.7978C35.3273 47.5073 35.35 47.1916 35.3715 46.8813C35.3947 46.5479 35.3964 46.1607 35.1405 45.9459C34.8953 45.74 34.512 45.7859 34.2553 45.5944C34.02 45.4188 33.9388 45.0777 33.6817 44.9359C33.4483 44.8071 33.1556 44.889 32.8959 44.8284C32.4387 44.7218 32.151 44.1947 31.6841 44.1459C31.4207 44.1184 31.1226 44.2472 30.9066 44.0937C30.7164 43.9585 30.7088 43.6867 30.6726 43.4561C30.6091 43.0977 30.4373 42.7674 30.1804 42.5096C29.9235 42.2518 29.5938 42.0789 29.2357 42.0143C28.9641 41.9707 28.6684 41.9873 28.4374 41.8379C28.2034 41.6868 28.0961 41.4037 27.9123 41.1944C27.6161 40.8569 27.1496 40.737 26.7126 40.6343L24.9349 40.2163C24.6194 40.1421 24.2126 40.1027 24.0433 40.3792C23.9931 40.4845 23.9577 40.5961 23.9378 40.711C23.8743 40.9189 23.7467 41.1013 23.5731 41.2319C23.3995 41.3626 23.1889 41.4349 22.9717 41.4384C22.8227 41.1842 22.5814 40.9974 22.298 40.917C22.1177 40.8667 21.9248 40.8611 21.7529 40.7872C21.6592 40.7415 21.5759 40.6772 21.508 40.5981C21.4401 40.5191 21.3891 40.427 21.358 40.3276C21.3268 40.2281 21.3164 40.1233 21.3271 40.0197C21.3379 39.916 21.3697 39.8157 21.4206 39.7248C21.5231 39.5422 21.5627 39.3311 21.5333 39.1238C21.5038 38.9165 21.407 38.7247 21.2578 38.578C20.9554 38.3065 20.5182 38.2409 20.1128 38.2681C20.0066 38.0364 20.1842 37.775 20.3754 37.6066C20.5667 37.4382 20.799 37.2727 20.8407 37.0212C20.9062 36.6257 20.4016 36.3253 20.0185 36.4432C19.6355 36.5611 19.3909 36.9333 19.2293 37.3002C19.1366 37.5107 19.0577 37.7324 18.9115 37.9099C18.7652 38.0874 18.5296 38.2145 18.3068 38.1575C17.9913 38.0769 17.8695 37.702 17.7997 37.3839C17.706 36.9571 17.6118 36.5244 17.6314 36.0879C17.6511 35.6514 17.7982 35.2033 18.12 34.9078C18.6443 34.4263 19.4488 34.4735 20.1564 34.5503C19.9892 34.3618 20.0306 34.0443 20.2094 33.8669C20.3039 33.783 20.4174 33.7234 20.54 33.6932C20.6627 33.6631 20.7909 33.6633 20.9134 33.6939C21.1267 33.7383 21.3188 33.8532 21.4588 34.0201C21.6599 34.2654 21.7171 34.5965 21.8691 34.8749C22.0211 35.1532 22.3629 35.3907 22.6427 35.2413C22.8843 35.1123 22.9227 34.7772 22.8625 34.5099C22.8024 34.2426 22.6747 33.9827 22.6964 33.7096C22.738 33.1885 23.2781 32.8748 23.7546 32.6602C24.2312 32.4456 24.7769 32.157 24.8524 31.6397C24.855 31.5384 24.8741 31.4382 24.9089 31.3431C24.9618 31.2591 25.0352 31.19 25.1223 31.1424C26.5131 30.223 27.9271 29.2924 29.5168 28.79C29.5995 28.7639 29.6092 28.7929 29.6935 28.7725C29.8115 28.7043 29.7333 28.5156 29.6202 28.4396C29.5071 28.3636 29.3559 28.3054 29.3272 28.1721C29.3062 28.0742 29.3638 27.978 29.3788 27.879C29.4156 27.6356 29.1245 27.4109 28.8985 27.5082C28.7708 27.339 29.0234 27.1425 29.2278 27.0862C29.8413 26.9173 30.471 26.8144 31.1064 26.7792C31.1797 26.7676 31.2548 26.7804 31.3201 26.8156C31.4268 26.8895 31.4132 27.0591 31.3376 27.1647C31.262 27.2702 31.1443 27.3365 31.0501 27.4257C30.9471 27.5261 30.8737 27.6528 30.8378 27.792C30.8019 27.9312 30.8049 28.0776 30.8465 28.2153C31.1782 28.384 31.5388 28.5577 31.9061 28.4983C32.2735 28.4388 32.5995 28.026 32.4269 27.6963C32.2661 27.3892 31.7831 27.32 31.7 26.9835C31.6028 26.5895 32.1604 26.239 32.0348 25.8531C31.9798 25.6841 31.8113 25.5846 31.6821 25.4626C31.5295 25.313 31.4257 25.1207 31.3843 24.911C31.3429 24.7012 31.3659 24.4839 31.4503 24.2875C31.2398 24.3246 31.0235 24.3106 30.8195 24.2467C30.6155 24.1829 30.4298 24.071 30.278 23.9206C29.9976 23.6375 29.7739 23.191 29.3757 23.2037C29.0103 23.2153 28.6956 23.6417 28.354 23.5116C28.2699 23.4796 28.1813 23.4145 28.0998 23.4526C28.0732 23.47 28.0508 23.4931 28.0343 23.5204C28.0179 23.5477 28.0079 23.5783 28.0051 23.61C27.9182 24.0252 28.0676 24.4983 27.8414 24.8571C27.5952 25.2475 27.0257 25.3017 26.7272 25.6537C26.5652 25.8449 26.5024 26.1024 26.3535 26.3039C26.2046 26.5054 25.8885 26.6335 25.7098 26.4579C25.7976 26.2773 25.8216 26.0722 25.7779 25.8762C25.7341 25.6802 25.6251 25.5048 25.4688 25.3788C25.3029 25.2705 25.124 25.1835 24.9364 25.1197C24.7268 25.031 24.5274 24.9198 24.3416 24.7882C24.2486 24.732 24.173 24.6511 24.1233 24.5545C24.084 24.4335 24.0893 24.3024 24.1382 24.185C24.2289 23.9251 24.3887 23.6949 24.6006 23.5192C24.8124 23.3436 25.0682 23.2292 25.3404 23.1883C25.5783 23.1559 25.8553 23.1674 26.0127 22.986C26.0961 22.89 26.1398 22.745 26.2607 22.706C26.3381 22.6905 26.4184 22.7003 26.4897 22.7342L27.3779 23.0469C27.477 23.0916 27.586 23.1097 27.6943 23.0992C27.7479 23.092 27.7969 23.0647 27.8313 23.0229C27.8657 22.9811 27.883 22.9278 27.8797 22.8738C27.8514 22.7262 27.6244 22.6554 27.6451 22.5066C27.6566 22.4584 27.6825 22.4148 27.7194 22.3816C28.0399 22.0404 28.4319 21.7743 28.8673 21.6023C29.3027 21.4303 29.7707 21.3567 30.2379 21.3869C30.35 21.571 30.1727 21.7891 30.0251 21.9463C29.8776 22.1035 29.7591 22.3844 29.9375 22.5054C30.0106 22.5427 30.0919 22.5611 30.174 22.5587C30.3926 22.5883 30.6051 22.6528 30.8034 22.7497C31.1103 22.8833 31.4113 23.0294 31.7065 23.1882C31.6804 22.9935 31.6555 22.7885 31.7293 22.6065C31.803 22.4245 32.0127 22.2817 32.1958 22.3526C32.3722 22.4209 32.4627 22.6546 32.6507 22.676C32.9015 22.7046 33.0004 22.334 32.8957 22.1043C32.7909 21.8747 32.5836 21.6823 32.5662 21.4305C32.5546 21.2605 32.6192 21.0498 32.4835 20.9469C32.4352 20.916 32.3804 20.8968 32.3234 20.8908L28.9352 20.2671C28.734 20.2301 28.4433 20.2585 28.4344 20.4629C28.4294 20.577 28.5313 20.6899 28.4862 20.7948C28.438 20.9068 28.2798 20.8966 28.1645 20.9362C27.9857 20.9976 27.8959 21.21 27.9131 21.3984C27.9446 21.5856 28.017 21.7635 28.1253 21.9193C27.9049 21.8271 27.5712 21.8102 27.3509 21.718Z" fill="#3F3D56"/>
<path d="M24.6469 18.8412C24.4333 18.7704 24.2031 18.7671 23.9875 18.8317C23.7719 18.8963 23.5814 19.0256 23.4417 19.2022C23.3859 19.2757 23.3391 19.3769 23.3858 19.4565C23.4528 19.5706 23.6234 19.5255 23.7492 19.4847C23.934 19.4186 24.1353 19.4138 24.3231 19.471C24.4412 19.5116 24.5469 19.5833 24.6655 19.6223C24.7233 19.6464 24.7865 19.6544 24.8484 19.6454C24.9104 19.6363 24.9687 19.6106 25.0171 19.5709C25.0985 19.4878 25.1036 19.3587 25.1038 19.2424C25.1094 19.2035 25.1063 19.1638 25.0947 19.1262C25.083 19.0886 25.0631 19.0542 25.0365 19.0253C24.989 18.9977 24.9356 18.982 24.8808 18.9792C24.7581 18.9565 24.6471 18.8916 24.5671 18.7958" fill="#3F3D56"/>
<path d="M25.869 18.5009C25.8212 18.4983 25.7735 18.508 25.7305 18.5292C25.6876 18.5503 25.6508 18.5822 25.6237 18.6217C25.5966 18.6612 25.5801 18.707 25.5758 18.7547C25.5715 18.8024 25.5796 18.8504 25.5992 18.8941C25.7461 18.9341 25.8995 18.9441 26.0503 18.9235C26.1255 18.9118 26.1956 18.8781 26.2517 18.8267C26.3078 18.7752 26.3474 18.7083 26.3655 18.6344C26.188 18.6667 26.0048 18.6317 25.8516 18.5362" fill="#3F3D56"/>
<path d="M29.9677 17.9327C29.568 18.0177 29.1798 18.1496 28.811 18.3257C28.9849 18.3925 29.1326 18.5135 29.2326 18.6706C29.3325 18.8278 29.3793 19.013 29.3661 19.1988C29.3505 19.2701 29.3523 19.3441 29.3713 19.4146C29.4138 19.5176 29.5369 19.5563 29.6451 19.5827C29.8395 19.6419 30.0426 19.6678 30.2456 19.6594C30.3472 19.6541 30.4458 19.6235 30.5326 19.5704C30.6194 19.5174 30.6916 19.4435 30.7427 19.3556C30.7721 19.2721 30.8066 19.1904 30.846 19.1112C31.1054 18.716 31.876 19.1938 32.1545 18.8119C32.2526 18.6773 32.2437 18.4748 32.3716 18.3682C32.4377 18.3218 32.5144 18.2925 32.5946 18.2831C33.1547 18.1718 33.7204 18.0912 34.2893 18.0416C34.5588 18.0182 34.9102 17.9214 34.9124 17.6508C33.8972 17.4513 32.8445 17.593 31.918 18.0537C31.5842 18.2209 31.1428 18.5727 30.8212 18.351C30.7008 18.268 30.7068 18.0444 30.5411 17.9511C30.3717 17.8557 30.1475 17.8945 29.9677 17.9327Z" fill="#3F3D56"/>
<path d="M33.2879 18.5537L33.7645 18.6453C33.6768 18.6414 33.5892 18.6563 33.5077 18.689C33.4262 18.7216 33.3526 18.7712 33.2917 18.8346C33.2309 18.8979 33.1843 18.9735 33.155 19.0563C33.1257 19.1391 33.1144 19.2272 33.1218 19.3148C33.5681 19.4639 34.0547 19.3188 34.5248 19.3386C34.9949 19.3584 35.5419 19.6943 35.4617 20.1581C35.4374 20.2983 35.3564 20.4384 35.3985 20.5743C35.428 20.6696 35.512 20.7372 35.5595 20.825C35.6583 21.0078 35.5793 21.2391 35.4545 21.4053C35.3298 21.5715 35.1621 21.7041 35.0526 21.8808C34.7802 22.3201 34.9349 22.8881 35.0972 23.3789C35.1441 23.5643 35.2307 23.7374 35.3511 23.8861C35.5915 24.1417 35.9832 24.1639 36.334 24.1691C36.5894 24.1728 36.8819 24.1602 37.0433 23.9623C37.2542 23.7039 37.1067 23.3008 37.2455 22.9976C37.3716 22.7223 37.6928 22.6041 37.9837 22.5203C38.5168 22.3668 39.06 22.2363 39.564 22.0045C40.1898 21.7166 40.7746 21.2679 41.4624 21.2308C41.6554 21.2204 41.8532 21.2432 42.039 21.1903C42.2249 21.1374 42.4015 20.9767 42.3874 20.7839C42.3754 20.6192 42.2361 20.4983 42.1272 20.3741C42.0183 20.2499 41.9328 20.059 42.0329 19.9276L43.8357 19.5908C43.7079 19.2424 43.6084 18.7836 43.902 18.5569C44.008 18.4751 44.1499 18.4424 44.2401 18.3435C44.3938 18.1749 44.3165 17.8845 44.139 17.7411C43.9615 17.5978 43.7216 17.5645 43.4942 17.5456C42.7037 17.4799 41.9086 17.5233 41.1166 17.5667C39.5683 17.6516 38.0201 17.7365 36.4718 17.8214C36.1601 17.8385 35.8002 17.8124 35.5144 17.9187C35.2724 18.0088 35.1003 18.1741 34.8235 18.2321C34.3126 18.3394 33.7503 18.2668 33.2879 18.5537Z" fill="#3F3D56"/>
<path d="M41.8258 22.3216C41.7773 22.3139 41.7276 22.3252 41.6871 22.3531C41.6603 22.3826 41.6444 22.4203 41.642 22.4601C41.6112 22.6355 41.6479 22.8162 41.7446 22.9658C41.7938 23.0392 41.8619 23.098 41.9416 23.1363C42.0213 23.1745 42.1097 23.1907 42.1978 23.1831C42.4124 23.1558 42.5705 22.9726 42.7678 22.8833C43.0719 22.7457 44.3631 22.5312 43.4699 22.0485C43.1621 21.8821 42.9632 22.029 42.7205 22.1385C42.4445 22.2798 42.1352 22.3431 41.8258 22.3216Z" fill="#3F3D56"/>
<path d="M49.6497 18.2812C49.5454 18.3238 49.4582 18.3998 49.4016 18.4973C49.3755 18.5468 49.3695 18.6044 49.3847 18.6582C49.3999 18.712 49.4352 18.7579 49.4833 18.7865C49.5223 18.8006 49.5636 18.8071 49.605 18.8058L50.0291 18.8184C50.2093 18.8238 50.4343 18.8622 50.4827 19.0359C50.5187 19.1648 50.4382 19.3305 50.5353 19.4227C50.577 19.4549 50.6271 19.4745 50.6796 19.479C50.8193 19.5148 50.9652 19.5196 51.1069 19.4927C51.4155 19.41 51.2533 19.2216 51.3505 19.0538C51.4992 18.7972 51.4735 18.9525 51.7355 18.8055C51.929 18.6968 52.179 18.4998 52.0175 18.2229C51.7367 17.7414 50.0642 18.0744 49.6497 18.2812Z" fill="#3F3D56"/>
<path d="M58.0204 18.0392L57.7742 18.072C57.2188 18.1462 56.6603 18.221 56.1255 18.3878C56.357 18.4793 56.5999 18.5389 56.8475 18.565C56.9838 18.5717 57.1192 18.5909 57.252 18.6225C57.4882 18.6928 57.7262 18.8745 57.9545 18.7814C58.096 18.7237 58.1422 18.5764 58.2594 18.4982C58.3403 18.4443 58.6473 18.357 58.6817 18.3026C58.9591 17.8625 58.2337 18.0107 58.0204 18.0392Z" fill="#3F3D56"/>
<path d="M59.1016 19.1587C58.7726 19.3427 58.4674 19.5662 58.1928 19.8244C58.0771 19.9332 57.9589 20.0685 57.9694 20.227C57.9833 20.4377 58.2077 20.5598 58.4021 20.6422L59.1893 20.9756C59.2848 20.8409 59.1974 20.655 59.0987 20.5227C59 20.3904 58.8827 20.2373 58.9263 20.0781C58.9761 19.8964 59.1976 19.8345 59.3833 19.8032C59.6859 19.7522 60.5022 19.7563 60.4041 19.2685C60.2886 18.6937 59.4054 18.9889 59.1016 19.1587Z" fill="#3F3D56"/>
<path d="M58.9433 51.6865C58.8684 51.9036 58.8613 52.1592 58.9909 52.3487C59.1364 52.5613 59.4275 52.6406 59.6794 52.5867C59.9302 52.5199 60.1538 52.3762 60.3186 52.1756C60.4694 52.0076 60.5934 51.8174 60.6863 51.6116C60.816 51.291 60.9075 50.9563 60.9588 50.6143L61.2032 49.3306C61.2579 49.0437 61.2557 48.1641 60.7286 48.4507C60.5846 48.529 60.2511 49.1471 60.1002 49.3224C59.8282 49.6383 59.7922 49.9448 59.649 50.3275C59.4696 50.8069 59.1091 51.2064 58.9433 51.6865Z" fill="#3F3D56"/>
<path d="M86.7866 58.2556C86.6141 58.1883 86.4467 58.1086 86.2857 58.0171C86.1242 58.4611 86.0384 58.929 86.0317 59.4014L87.2121 58.7333C87.3897 58.6328 87.5909 58.4932 87.5871 58.2892C87.5887 58.264 87.5835 58.2388 87.572 58.2163C87.5605 58.1938 87.5432 58.1749 87.5218 58.1614C87.4956 58.1509 87.4671 58.1475 87.4391 58.1517C87.2641 58.1663 87.1045 58.2524 86.9394 58.3123C86.7743 58.3722 86.5812 58.4039 86.4297 58.315" fill="#3F3D56"/>
<path d="M93.0126 58.6523C92.883 58.6875 92.7565 58.733 92.6341 58.7881C92.3632 58.926 92.1789 59.1878 91.9352 59.3694C91.7019 59.5432 91.4211 59.6386 91.1455 59.7313C91.0644 59.803 91.1016 59.9474 91.1897 60.0104C91.2843 60.0642 91.3928 60.0886 91.5014 60.0805C91.7878 60.0868 92.0895 60.0895 92.3403 59.9512C92.4817 59.8595 92.6139 59.7545 92.7353 59.6376C93.0286 59.3929 93.3808 59.2314 93.7294 59.0753C93.8563 59.0274 93.9736 58.9572 94.0759 58.8681C94.295 58.6522 94.3104 58.3191 93.9945 58.2457C93.7392 58.1863 93.2556 58.5736 93.0126 58.6523Z" fill="#3F3D56"/>
<path d="M95.7649 56.8546C95.779 56.706 95.7593 56.5562 95.7071 56.4164C95.6549 56.2766 95.5716 56.1505 95.4636 56.0476C95.4604 56.3448 95.4513 56.6615 95.2842 56.9072C95.1651 57.0823 94.9784 57.2006 94.848 57.3674C94.7175 57.5343 94.6596 57.7987 94.8126 57.945C94.9104 58.0195 95.0296 58.0605 95.1525 58.0621C95.4571 58.098 95.8097 58.118 96.0233 57.8978C96.1399 57.7777 96.1966 57.5998 96.3389 57.5114C96.3919 57.4892 96.4392 57.4553 96.4773 57.4123C96.536 57.3189 96.4427 57.1959 96.3377 57.1622C96.2327 57.1286 96.1169 57.1444 96.0114 57.1125C95.9058 57.0805 95.809 56.9618 95.8631 56.8657" fill="#3F3D56"/>
<path d="M90.8742 45.9575C90.7144 45.9964 90.5489 46.0061 90.3856 45.9863C90.1144 45.9364 89.9034 45.732 89.6844 45.5644C89.164 45.168 88.5313 44.9469 87.8773 44.9328C87.2824 44.9216 86.6819 45.0828 86.0977 44.9703C86.1358 45.1827 86.3175 45.342 86.5114 45.4367C86.7052 45.5314 86.9192 45.579 87.114 45.6718C87.4259 45.8218 87.6734 46.0792 87.8109 46.397C87.8736 46.5434 87.9131 46.7028 88.0081 46.8307C88.2024 47.0922 88.5705 47.1496 88.8955 47.1282C89.3191 47.1003 89.7616 46.9784 90.1557 47.1363C90.4572 47.2571 90.673 47.521 90.9247 47.7263C91.1764 47.9315 91.531 48.0838 91.8201 47.9358C91.5198 47.8385 91.2585 47.6478 91.0742 47.3915C90.89 47.1352 90.7925 46.8268 90.7959 46.5111C91.0794 46.5372 91.896 46.5271 91.852 46.0452C91.8147 45.6369 91.1176 45.9134 90.8742 45.9575Z" fill="#3F3D56"/>
<path d="M87.1655 49.2801C87.2158 49.0039 87.4911 48.76 87.4054 48.4927C87.3461 48.3079 87.1318 48.2166 86.9378 48.2121C86.7437 48.2075 86.5531 48.2653 86.3591 48.2708C86.2328 48.2641 86.1062 48.2659 85.9802 48.2762C85.5951 48.3395 85.3577 48.7432 84.9948 48.8868C84.7741 48.9741 84.5262 48.9574 84.2967 49.0178C83.7757 49.1548 83.446 49.6472 83.0818 50.0442C82.4934 50.6829 81.7267 51.13 80.8813 51.3279C80.585 51.3965 80.2666 51.4404 80.0311 51.6328C79.7193 51.8876 79.6426 52.3245 79.5732 52.7212C79.3815 53.8169 79.0886 54.8924 78.6982 55.934L79.9353 56.092C80.1705 56.122 80.4143 56.1514 80.6409 56.0817C80.8056 56.0196 80.9616 55.9365 81.105 55.8345C81.6559 55.4923 82.2726 55.2697 82.915 55.1809C83.239 55.1364 83.5786 55.1283 83.8826 55.2487C84.1867 55.3692 84.4475 55.6423 84.473 55.9684C84.6044 55.9275 84.7445 55.9231 84.8783 55.9556C85.0121 55.9882 85.1345 56.0565 85.2325 56.1532C85.4263 56.3506 85.5531 56.6039 85.5952 56.8773C85.6278 57.0466 85.6604 57.2495 85.8174 57.3205C85.9456 57.3784 86.0925 57.316 86.2327 57.3048C86.7083 57.2667 87.103 57.8215 87.5705 57.7259C88.0719 57.6235 88.195 56.8724 88.6841 56.722C88.965 56.6356 89.3591 56.7406 89.4936 56.4793C89.6121 56.2489 89.3756 55.983 89.4 55.7251C89.43 55.4074 89.8046 55.2726 90.0934 55.1371C91.0889 54.6698 91.5613 53.3296 91.0789 52.3411C90.7931 51.7554 90.2307 51.2944 90.1268 50.651C90.0469 50.156 90.242 49.5788 89.9265 49.1891C89.7659 48.9909 89.4942 48.8815 89.3987 48.645C89.3385 48.4961 89.3627 48.3272 89.3303 48.1699C89.298 48.0127 89.1608 47.8482 89.0056 47.8889C88.5549 48.0073 88.4111 49.3999 88.1698 49.7382C87.803 50.2526 87.05 49.9138 87.1655 49.2801Z" fill="#3F3D56"/>
<path d="M78.835 46.4837C78.681 46.4405 78.5128 46.3979 78.3652 46.4597C78.2176 46.5214 78.1315 46.7381 78.2499 46.8457C79.1765 46.8095 80.1087 46.7737 81.0274 46.8996C82.0859 47.0446 83.1335 47.4038 84.1966 47.2981C83.5893 47.1189 82.972 46.9756 82.3479 46.869L81.3071 46.6701C81.0279 46.6116 80.7458 46.568 80.4619 46.5395C79.8682 46.4905 79.4188 46.6474 78.835 46.4837Z" fill="#3F3D56"/>
<path d="M79.763 43.2558C79.686 43.2494 79.5908 43.2438 79.551 43.31C79.5129 43.3732 79.5565 43.4567 79.536 43.5276C79.5081 43.6244 79.3813 43.6491 79.2814 43.636C79.1815 43.6228 79.0735 43.5912 78.985 43.6394C78.9401 43.67 78.9064 43.7144 78.8889 43.7659C78.8714 43.8174 78.871 43.8731 78.8879 43.9248C78.9241 44.0274 78.9826 44.1207 79.0592 44.198C79.1901 44.363 79.3392 44.5126 79.5037 44.644C79.8222 44.8791 80.2536 44.9924 80.4542 45.3337C80.4825 45.3999 80.526 45.4584 80.5811 45.5046C80.6774 45.5656 80.803 45.5192 80.9067 45.4719L81.2701 45.3058C81.3355 45.2822 81.394 45.2424 81.44 45.1902C81.523 45.0775 81.472 44.9173 81.4023 44.7959C81.3326 44.6745 81.2434 44.5489 81.2584 44.4097C81.285 44.1616 81.604 44.0667 81.7352 43.8544C81.8674 43.6404 81.7813 43.3646 81.7966 43.1135C81.8144 42.8198 81.9989 42.4378 81.702 42.2184C81.4498 42.0319 81.2087 42.2042 81.0276 42.4101C80.6456 42.8443 80.4651 43.3144 79.763 43.2558Z" fill="#3F3D56"/>
<path d="M81.9689 38.8679C82.093 39.1055 82.3516 39.2473 82.4869 39.4787C82.6336 39.7295 82.6169 40.0536 82.776 40.2967C82.9392 40.5461 83.2677 40.6786 83.3592 40.9623C83.4591 41.272 83.2324 41.6484 83.4131 41.9191C83.4468 41.9633 83.4894 42.0001 83.538 42.027C83.5867 42.0539 83.6404 42.0705 83.6957 42.0756C83.7511 42.0806 83.8069 42.0742 83.8597 42.0566C83.9124 42.0389 83.9609 42.0106 84.0021 41.9732C84.0783 41.8902 84.1191 41.7807 84.1158 41.6681C84.1125 41.5555 84.0653 41.4486 83.9843 41.3702C83.8773 41.2727 83.7236 41.2305 83.6343 41.1165C83.5877 41.0507 83.5567 40.9752 83.5436 40.8957C83.4949 40.6663 83.5027 40.4286 83.5664 40.2029C83.5903 40.1457 83.5963 40.0825 83.5838 40.0217C83.5435 39.9048 83.3852 39.8965 83.2741 39.8422C83.0217 39.719 83.0279 39.3628 83.072 39.0853C83.0426 39.27 82.3849 38.9559 82.316 38.8513C82.1792 38.6435 82.2536 38.2425 82.2265 38.0129C81.9312 38.1553 81.8172 38.5774 81.9689 38.8679Z" fill="#3F3D56"/>
<path d="M75.3426 42.5238C75.2212 42.3879 75.0383 42.2457 74.8756 42.3277C74.7514 42.3902 74.7172 42.5621 74.7659 42.6923C74.8252 42.8189 74.9165 42.9277 75.0307 43.0081C75.3699 43.2879 75.7351 43.5405 76.031 43.8657C76.5606 44.4478 76.8411 45.2332 77.417 45.7694C77.5327 45.8937 77.686 45.9767 77.8534 46.0056C78.0211 46.0213 78.2096 45.9138 78.2288 45.7464C78.2447 45.6085 78.1486 45.485 78.0547 45.3828C77.831 45.1394 77.586 44.9154 77.3748 44.6611C77.2773 44.5634 77.216 44.4353 77.2011 44.2981C77.2 44.1611 77.3248 44.0178 77.4575 44.0517C77.2962 44.0105 77.1765 43.7417 76.9398 43.6911C76.7419 43.6489 76.694 43.7714 76.4586 43.6704C76.0094 43.4777 75.6571 42.876 75.3426 42.5238Z" fill="#3F3D56"/>
<path d="M85.8959 29.2876C85.7671 29.2493 85.6404 29.2041 85.5165 29.152C85.183 29.0519 84.7418 29.2971 84.7863 29.6425C84.8158 29.872 85.0293 30.0267 85.1472 30.2258C85.3221 30.521 85.2755 30.8954 85.1836 31.226C85.161 31.3283 85.1181 31.4251 85.0574 31.5105C84.9726 31.6008 84.8711 31.6738 84.7586 31.7256C84.3083 31.9781 83.9112 32.3156 83.5892 32.7193C83.5542 32.7566 83.5298 32.8026 83.5186 32.8525C83.5027 32.9691 83.6198 33.054 83.6861 33.1513C83.8333 33.3674 83.7269 33.6581 83.7415 33.9191C83.7392 33.956 83.7464 33.9929 83.7624 34.0262C83.7785 34.0596 83.8027 34.0883 83.8329 34.1096C83.9216 34.1547 84.0267 34.0781 84.0748 33.991C84.2344 33.7018 84.1142 33.2377 84.4135 33.0983C84.4701 33.0719 84.5388 33.0608 84.5766 33.011C84.6365 32.9321 84.5787 32.8152 84.609 32.7209C84.6546 32.5793 84.8483 32.5729 84.9969 32.5792C85.253 32.5899 85.5089 32.5558 85.7532 32.4785C85.8491 32.4557 85.9361 32.4052 86.0036 32.3334C86.0931 32.2217 86.0851 32.0629 86.0673 31.9209C85.9777 31.2129 85.7535 30.5286 85.4067 29.9049C85.6697 29.9385 85.9557 29.9676 86.1826 29.8305C86.3097 29.7538 86.4621 29.5242 86.399 29.368C86.2994 29.121 86.1194 29.3289 85.8959 29.2876Z" fill="#3F3D56"/>
<path d="M52.1865 33.1815C52.218 33.3503 52.2489 33.528 52.1936 33.6906C52.1383 33.8532 51.9643 33.989 51.8 33.9392C51.6725 33.9005 51.5988 33.7723 51.5083 33.6745C51.0048 33.1308 49.8688 33.4456 49.5578 32.773C49.4308 32.4984 49.5171 32.1695 49.4305 31.8797C49.3759 31.7122 49.2672 31.5676 49.1215 31.4686C48.9758 31.3696 48.8014 31.3218 48.6256 31.3328C48.4652 31.3559 48.3091 31.4025 48.1624 31.4711C47.1789 31.865 46.1465 32.1233 45.0934 32.2388C44.8933 32.251 44.6953 32.2871 44.5037 32.3462C44.0713 32.503 43.7759 32.9039 43.5657 33.3131C43.3554 33.7223 43.2002 34.1652 42.9183 34.5287C42.622 34.9108 42.2069 35.1783 41.8197 35.4677C41.6705 35.5638 41.5463 35.6941 41.4572 35.8476C41.3733 36.02 41.378 36.2205 41.3845 36.4122L41.4637 38.7398C41.4739 39.0392 41.4867 39.3493 41.6206 39.6173C41.7879 39.9518 42.1184 40.171 42.3476 40.4665C42.5816 40.7702 42.7035 41.1455 42.6926 41.5288C42.6878 41.6829 42.6724 41.8651 42.7924 41.9619C42.8654 42.0092 42.9508 42.0338 43.0378 42.0325L46.1857 42.2902C46.7394 42.3355 47.353 42.41 47.7146 42.832C47.8852 43.0312 48.0222 43.3176 48.2836 43.3389C48.3957 43.3481 48.5048 43.3021 48.6169 43.2932C48.8998 43.2708 49.1483 43.4855 49.3051 43.7221C49.5424 44.0826 49.6502 44.5131 49.6106 44.943C49.5849 45.2128 49.5013 45.4752 49.4832 45.7456C49.4146 46.7747 50.2868 47.6688 50.3037 48.7C50.3136 49.3065 50.0258 49.8733 49.7451 50.4111C50.1981 51.0975 49.8271 52.0115 50.0075 52.8139C50.1786 53.5752 50.8132 54.1712 50.9713 54.9353C51.0437 55.2851 51.0479 55.7156 51.3563 55.8958C51.4916 55.9617 51.6416 55.9918 51.7919 55.983C52.6983 55.9937 53.5944 55.7897 54.4069 55.3875C54.7882 55.1982 55.1834 54.9157 55.25 54.4951C55.3037 54.156 55.1317 53.7766 55.3067 53.4812C55.513 53.1331 56.0413 53.1607 56.3447 52.893C56.837 52.4587 56.4531 51.6305 56.6526 51.005C56.8319 50.4427 57.449 50.144 57.755 49.6394C57.8754 49.4224 57.9618 49.1882 58.0111 48.9449C58.1513 48.3636 58.2385 47.7708 58.2718 47.1737C58.2799 46.811 58.3067 46.4489 58.3519 46.0889C58.6817 44.0392 60.7075 42.6667 61.3653 40.6977C61.4281 40.5096 61.4576 40.2591 61.2903 40.1527C61.1911 40.1054 61.0787 40.0936 60.9718 40.1194L59.5207 40.3024C59.3405 40.3251 59.1494 40.3463 58.9839 40.2715C58.8184 40.1966 58.6998 39.9871 58.7876 39.8281C59.034 39.3815 58.527 38.8172 58.3018 38.3596C57.6952 37.1274 56.9729 35.9557 56.1446 34.8602C56.0915 34.8039 56.0583 34.7318 56.05 34.6548L56.4618 34.6686C56.3228 34.1696 56.0934 33.6236 55.6087 33.441C55.3356 33.3382 55.0332 33.3737 54.7418 33.3897C53.9073 33.4353 53.0125 33.3092 52.1865 33.1815Z" fill="#3F3D56"/>
<path d="M54.7423 21.9371C54.9607 22.1691 55.2055 22.415 55.5214 22.4555C56.0795 22.5269 56.4808 21.9496 56.7363 21.4482C56.7458 21.576 56.8047 21.6951 56.9006 21.7802C56.9965 21.8652 57.1218 21.9095 57.2498 21.9035C57.3875 21.8803 57.519 21.8289 57.636 21.7525C58.7418 21.1481 59.9803 20.8278 61.2405 20.8205C61.2284 20.725 61.252 20.6284 61.3069 20.5494C61.3618 20.4703 61.444 20.4144 61.5377 20.3924C61.7939 20.3416 62.0247 20.5632 62.1483 20.7934C62.2719 21.0235 62.349 21.2903 62.5453 21.4626C62.7417 21.6348 63.1219 21.6273 63.1994 21.3779C63.2739 21.1384 63.0244 20.9341 62.8172 20.7929C62.6099 20.6517 62.3915 20.3903 62.5311 20.182C63.5898 19.9475 64.6552 19.7122 65.7386 19.6656C65.923 19.6721 66.1068 19.6404 66.2785 19.5726C66.4437 19.4915 66.575 19.3074 66.5306 19.1288C66.2942 19.1844 66.0466 19.1683 65.8193 19.0825C65.5921 18.9968 65.3955 18.8453 65.2547 18.6474C66.758 18.5233 68.3569 18.4175 69.6892 19.1251C69.849 19.4684 69.0342 19.754 69.2522 20.0636C69.3217 20.1624 69.4611 20.1739 69.5818 20.1762C70.5076 20.1934 71.4388 20.2102 72.3541 20.0704C72.6886 20.0193 73.0265 19.9472 73.3623 19.9886C73.9217 20.0576 74.4002 20.431 74.9505 20.5527C75.1745 20.6022 75.4256 20.6039 75.6145 20.4736C75.8033 20.3433 75.8844 20.0466 75.7297 19.8772C76.2479 19.3692 77.1078 19.4951 77.7914 19.7383C78.475 19.9815 79.1226 20.3737 79.8461 20.4279C80.3649 20.4667 80.8909 20.3272 81.4036 20.4159C81.7257 20.4716 82.0256 20.615 82.3404 20.7031C82.9359 20.8696 83.5659 20.8345 84.1842 20.8425C85.7617 20.8637 87.3221 21.1739 88.7879 21.7575C88.9786 21.8196 89.1533 21.9229 89.2997 22.06C89.4361 22.2061 89.5057 22.4331 89.414 22.6107L87.8993 22.3893C88.042 22.6703 88.4112 22.7182 88.711 22.8152C89.0109 22.9121 89.3218 23.2433 89.1416 23.5019C88.8167 23.3984 88.5223 23.7233 88.3582 24.0222C88.1941 24.3212 87.9941 24.6792 87.6536 24.6974C87.3488 24.7137 86.98 24.454 86.7813 24.6859C87.0559 25.0323 87.2909 25.4082 87.4822 25.8068C87.6786 26.2159 87.8184 26.7314 87.553 27.0995C87.5113 27.1652 87.448 27.2143 87.374 27.2384C87.1572 27.2932 87.0164 27.0281 86.861 26.8673C86.6652 26.6648 86.369 26.6074 86.1038 26.5124C85.8386 26.4174 85.5592 26.2306 85.5384 25.9496C85.5255 25.7747 85.6178 25.6122 85.6858 25.4506C85.8 25.1782 85.85 24.8832 85.8318 24.5884C85.8169 24.3512 85.7504 24.1045 85.5802 23.9388C85.4099 23.7731 85.1158 23.7205 84.933 23.8723C84.8477 23.9431 84.7794 24.0564 84.6686 24.0606C84.4729 24.0681 84.3226 23.7268 84.1651 23.8433C84.1836 23.9674 84.1578 24.0941 84.0924 24.2012C83.6225 24.61 82.9006 24.4371 82.2948 24.5815C82.0067 24.6639 81.7309 24.7844 81.4746 24.9397C81.3788 24.9807 81.2972 25.0492 81.2402 25.1366C81.1646 25.2835 81.248 25.4718 81.3813 25.5695C81.5226 25.6562 81.6814 25.7105 81.8463 25.7283C82.5849 25.8682 83.3342 26.0848 83.9173 26.5593C84.5004 27.0338 84.8827 27.8182 84.6982 28.547L83.2418 27.155C83.2971 27.7395 83.3285 28.3256 83.3359 28.9133C83.3454 29.028 83.3296 29.1435 83.2898 29.2515C83.1859 29.4809 82.9045 29.5581 82.6579 29.6087C82.5893 29.6217 82.5243 29.6492 82.467 29.6891C82.4098 29.7291 82.3616 29.7807 82.3258 29.8406C82.2899 29.9005 82.2671 29.9674 82.2588 30.0367C82.2506 30.106 82.2571 30.1763 82.278 30.243C82.3656 30.5286 82.5841 30.7514 82.7841 30.9733C82.9841 31.1952 83.181 31.4474 83.2072 31.745C83.2333 32.0427 83.0088 32.3782 82.7108 32.3575C82.4849 32.3418 82.3173 32.1395 82.221 31.9345C82.1246 31.7296 82.0673 31.5012 81.9225 31.327C81.4843 30.7999 80.5 31.0257 80.1074 30.4637C80.0074 30.5773 79.938 30.7145 79.9058 30.8624C79.8737 31.0103 79.8799 31.164 79.9238 31.3088C80.1065 31.1945 80.3565 31.3007 80.4937 31.4669C80.6309 31.633 80.6957 31.8461 80.8034 32.0327C80.9488 32.2845 81.1802 32.5078 81.2005 32.7979C81.1951 32.9076 81.197 33.0176 81.2061 33.127C81.2421 33.3028 81.3907 33.429 81.4936 33.5759C81.7333 33.9178 81.7214 34.3875 81.567 34.7754C81.4125 35.1633 81.135 35.4874 80.8602 35.8017C80.3801 36.3506 79.8902 36.8962 79.3211 37.352C79.1587 37.4821 78.9854 37.61 78.8843 37.7918C78.7831 37.9737 78.7779 38.2289 78.9333 38.3672C78.8221 38.3728 78.6227 38.4275 78.5115 38.4331C78.4724 37.9869 78.4639 37.5385 78.486 37.091C78.0472 36.8803 77.5746 37.4448 77.6313 37.9284C77.6879 38.4121 78.0376 38.8002 78.2866 39.2187C78.4687 39.5247 78.604 39.8815 78.5433 40.2324C78.4825 40.5833 78.1693 40.9069 77.8147 40.876C77.2505 40.8268 77.0145 40.0167 76.4559 39.924C76.4066 39.9124 76.3549 39.9175 76.3089 39.9386C76.2259 39.9841 76.2115 40.0951 76.2069 40.1896C76.184 40.6534 76.1642 41.1357 76.3452 41.5633C76.61 42.1889 77.2942 42.7144 77.1507 43.3784C76.3776 43.019 75.9756 42.1518 75.7931 41.3188C75.6106 40.4859 75.5802 39.6114 75.2531 38.8239C75.0047 39.1424 74.4825 38.8791 74.2556 38.545C74.0404 38.2283 73.9079 37.8619 73.6991 37.5409C73.4904 37.2199 73.1706 36.9324 72.7881 36.9148C72.3871 36.8963 72.0394 37.1715 71.7335 37.4316C71.4821 37.6454 71.2239 37.8677 71.0769 38.1633C70.863 38.5934 70.9189 39.1006 70.9086 39.5809C70.8975 40.1002 70.7874 40.6481 70.4336 41.0282C70.0798 41.4084 69.4267 41.5408 69.0364 41.1982C68.8326 41.0193 68.734 40.7521 68.6461 40.4955C68.2225 39.259 67.8698 37.9993 67.5895 36.7226C67.524 37.014 67.2681 37.3896 67.0238 37.2179C66.9689 37.1718 66.9245 37.1146 66.8934 37.05C66.4376 36.2772 65.5934 35.8137 64.7405 35.5357C63.8875 35.2578 62.9902 35.1282 62.1467 34.8227C61.674 34.6515 61.2225 34.4265 60.8012 34.1523C60.6937 34.3102 60.631 34.4941 60.6196 34.6848C60.6082 34.8754 60.6486 35.0655 60.7365 35.2351C60.9236 35.5664 61.347 35.7582 61.7094 35.6423C61.8967 35.5825 62.0549 35.4524 62.2407 35.3882C62.4265 35.324 62.676 35.3555 62.7572 35.5346C62.835 35.706 62.7174 35.9134 62.7758 36.0923C62.8646 36.3649 63.2756 36.3859 63.4193 36.634C63.5263 36.8186 63.4383 37.0636 63.2856 37.2126C63.1329 37.3615 62.9292 37.4432 62.7428 37.5469C62.138 37.8832 61.708 38.4575 61.1794 38.9042C60.6509 39.351 59.9052 39.6772 59.2753 39.3906C59.4255 38.6301 58.5198 38.0718 58.3532 37.3148C58.2984 37.0656 58.3268 36.8009 58.2485 36.5581C58.1352 36.2065 57.8233 35.9648 57.5675 35.6984C57.2572 35.3717 57.0155 34.9862 56.8566 34.5646C56.6977 34.143 56.6248 33.6938 56.6423 33.2435C56.6561 32.9307 56.7136 32.6127 56.6423 32.3077C56.5711 32.0028 56.3186 31.7076 56.0058 31.7214C55.2914 31.753 54.3914 31.8062 54.0166 31.197C53.8828 30.9796 53.8246 30.6612 54.018 30.4946C54.1544 30.3771 54.3559 30.3881 54.535 30.4058L56.1447 30.5642C56.5212 30.6012 56.9282 30.6318 57.2512 30.4349C57.5743 30.238 57.7143 29.7155 57.4151 29.4839C57.1966 29.3146 56.805 29.3238 56.7414 29.0547C56.6885 28.8306 56.9365 28.5764 56.8026 28.3891C56.7065 28.2548 56.4906 28.292 56.3598 28.3927C56.229 28.4934 56.134 28.6406 55.9876 28.7168C55.7308 28.8505 55.4238 28.7233 55.1475 28.6368C54.8712 28.5503 54.5007 28.543 54.3666 28.7997C54.2167 29.0868 54.4996 29.463 54.3508 29.7507C54.1541 30.1311 53.4881 29.9146 53.2118 30.2418C52.8948 30.6172 53.4275 31.1771 53.3206 31.6567C53.1841 31.7243 53.0325 31.7553 52.8804 31.7468C52.7284 31.7382 52.5811 31.6904 52.4531 31.6079C52.3271 31.5223 52.2268 31.404 52.1626 31.2658C52.0985 31.1277 52.073 30.9747 52.0889 30.8231C52.1154 30.6074 52.2278 30.3871 52.1525 30.1832C52.0916 30.0184 51.9261 29.9202 51.7723 29.8352L50.208 28.9706C50.0628 29.2401 50.2464 29.5742 50.476 29.7766C50.7057 29.979 50.9933 30.1314 51.1441 30.3978C51.2395 30.5824 51.2609 30.7964 51.2039 30.9962C51.1469 31.196 51.0158 31.3665 50.8374 31.4728C50.815 31.4883 50.7896 31.4987 50.7628 31.5033C50.736 31.508 50.7086 31.5068 50.6823 31.4999C50.6573 31.4852 50.6356 31.4657 50.6183 31.4425C50.601 31.4192 50.5886 31.3928 50.5817 31.3646C50.3057 30.6582 49.8914 29.9616 49.2289 29.5926C48.5664 29.2235 47.6144 29.2994 47.18 29.9211C47.0768 30.0687 47.0076 30.237 46.9177 30.3932C46.4401 31.2226 45.4162 31.6153 44.4597 31.5897C44.3661 31.5949 44.273 31.573 44.1915 31.5267C44.0369 31.4199 44.0439 31.1932 44.0676 31.0068L44.168 30.2156C44.1881 30.0568 44.2174 29.8811 44.3431 29.782C44.5203 29.6422 44.7759 29.7304 45.0016 29.7271C45.1726 29.7191 45.3369 29.6587 45.4724 29.5541C45.6079 29.4495 45.708 29.3058 45.7591 29.1424C45.8047 28.9774 45.8044 28.8031 45.7582 28.6382C45.7121 28.4733 45.6219 28.3242 45.4972 28.2068C45.3938 28.1097 45.255 27.9876 45.3096 27.8566C45.3314 27.8204 45.3609 27.7893 45.396 27.7657C45.431 27.7421 45.4708 27.7265 45.5126 27.7199C45.918 27.6021 46.3463 27.5713 46.7449 27.4323C47.1435 27.2934 47.5301 27.0091 47.6245 26.5976C47.6534 26.4715 47.6666 26.3187 47.7798 26.2562C47.8367 26.2322 47.8977 26.2197 47.9594 26.2195C48.1755 26.1888 48.3723 26.0782 48.5109 25.9096C48.6496 25.741 48.7202 25.5266 48.7088 25.3085C48.8998 25.175 49.1674 25.2732 49.3522 25.4153C49.537 25.5573 49.7002 25.7449 49.9251 25.8061C50.3442 25.9202 50.7491 25.5491 51.1835 25.5473C51.3661 25.5466 51.5552 25.6112 51.727 25.5493C51.9012 25.4865 52.0052 25.313 52.1389 25.1849C52.2726 25.0568 52.5072 24.9786 52.6306 25.1167L52.5255 24.3378C52.7372 24.3913 52.9579 24.3989 53.1727 24.36C53.3876 24.3212 53.5917 24.2368 53.7713 24.1125L52.4127 23.6534C52.3654 23.6415 52.3217 23.6182 52.2856 23.5854C52.1868 23.479 52.2849 23.3132 52.3653 23.1923C52.5574 22.903 52.5897 22.4264 52.2737 22.2824C52.058 22.1841 51.8105 22.3021 51.6034 22.4176L50.6118 22.9706C50.5803 23.1591 50.8108 23.266 50.9537 23.393C51.0401 23.4698 51.1012 23.571 51.1291 23.6832C51.157 23.7955 51.1503 23.9135 51.1098 24.0219C51.0694 24.1302 50.9972 24.2238 50.9026 24.2903C50.808 24.3569 50.6955 24.3932 50.5799 24.3947C50.6452 24.4796 50.6906 24.5781 50.7127 24.6829C50.7347 24.7877 50.733 24.8962 50.7075 25.0002L50.0403 25.0482C49.9654 25.0633 49.8876 25.0481 49.8239 25.006C49.7525 24.9426 49.7622 24.8315 49.7457 24.7375C49.7057 24.5106 49.4836 24.3516 49.2569 24.3108C49.0302 24.27 48.7983 24.3223 48.5738 24.3739C48.4784 24.4082 48.3738 24.4058 48.2801 24.3671C48.2264 24.3322 48.1856 24.2807 48.1639 24.2204C48.0655 23.9817 48.1575 23.7012 48.3156 23.497C48.4737 23.2929 48.6901 23.1437 48.8844 22.9738C49.3491 22.5659 49.6906 22.0361 49.8702 21.4444C50.2375 21.2904 50.6177 21.0813 50.985 20.9274C51.5512 20.6406 52.1862 20.5176 52.8186 20.572L54.0624 20.5958C54.4307 20.6028 54.8089 20.6118 55.1494 20.7523C55.49 20.8927 55.7892 21.1964 55.8127 21.5641C55.8198 21.6057 55.8162 21.6485 55.8022 21.6883C55.7883 21.7282 55.7644 21.7638 55.7329 21.7919C55.6848 21.8182 55.6304 21.8305 55.5757 21.8274C55.2322 21.8395 55.0858 21.9251 54.7423 21.9371Z" fill="#3F3D56"/>
<path d="M44.828 25.8363C44.8766 25.7903 44.9116 25.7318 44.9291 25.6672C44.9466 25.6026 44.946 25.5344 44.9273 25.4702C44.809 25.4245 44.6804 25.4128 44.5558 25.4363C44.4313 25.4598 44.3158 25.5177 44.2223 25.6033C44.1486 25.6779 44.0851 25.7618 44.0334 25.8531C43.87 26.1198 43.7254 26.4384 43.8202 26.7365C43.8279 26.769 43.842 26.7997 43.8617 26.8267C43.8815 26.8536 43.9064 26.8764 43.935 26.8936C43.9774 26.9107 44.0232 26.9178 44.0688 26.9146C44.2489 26.9144 44.4288 26.9033 44.6075 26.8814C44.7173 26.868 44.8447 26.837 44.8872 26.7349C44.9429 26.6006 44.808 26.4487 44.8473 26.3087C44.8732 26.2461 44.9124 26.1899 44.9622 26.1441C44.987 26.121 45.0059 26.0924 45.0177 26.0607C45.0295 26.029 45.0337 25.995 45.03 25.9613C45.0141 25.8957 44.9136 25.8584 44.8774 25.9155" fill="#3F3D56"/>
<path d="M45.7611 24.6256C45.6011 24.5888 45.4363 24.5785 45.273 24.5949C45.2368 24.5938 45.2011 24.602 45.1689 24.6186C45.1378 24.6415 45.1153 24.6742 45.1049 24.7114C45.0704 24.8221 45.0788 24.9418 45.1286 25.0465C45.1784 25.1513 45.2657 25.2334 45.3733 25.2766C45.432 25.2901 45.4881 25.3127 45.5398 25.3436C45.6779 25.4507 45.5899 25.6697 45.616 25.8425C45.6453 26.0366 45.8331 26.1994 45.7987 26.3927C45.7716 26.5449 45.609 26.6654 45.6352 26.8178C45.6626 26.9774 45.8651 27.0254 46.0265 27.0382C46.12 27.0545 46.2163 27.0435 46.3037 27.0064C46.3913 26.9465 46.4536 26.8562 46.4786 26.753C46.5447 26.5563 46.5725 26.3487 46.5604 26.1415C46.5597 26.0473 46.536 25.9546 46.4915 25.8716C46.4429 25.8058 46.389 25.7441 46.3304 25.6871C46.0212 25.3273 46.3468 24.7907 45.7611 24.6256Z" fill="#3F3D56"/>
<path opacity="0.8" d="M86.4246 52.8099C86.4246 52.8099 62.7408 39.2115 52.5446 41.7881C52.5446 41.7881 30.9358 44.1141 28.4315 49.2314C28.4315 49.2314 21.5624 27.7603 19.0581 27.0446" stroke="#006DCC" stroke-miterlimit="10"/>
<path opacity="0.8" d="M28.4315 49.2314C32.4026 38.639 68.1788 26.9015 68.1788 26.9015C63.0986 28.1898 52.5446 41.7881 52.5446 41.7881C52.5446 41.7881 30.2203 25.5417 19.0581 27.0446C19.0581 27.0446 68.2146 28.655 86.4246 52.8099" stroke="#006DCC" stroke-miterlimit="10"/>
<path d="M19.0585 28.0824C19.6315 28.0824 20.096 27.6177 20.096 27.0446C20.096 26.4715 19.6315 26.0068 19.0585 26.0068C18.4855 26.0068 18.021 26.4715 18.021 27.0446C18.021 27.6177 18.4855 28.0824 19.0585 28.0824Z" fill="#006DCC"/>
<path d="M28.4311 50.2692C29.0041 50.2692 29.4686 49.8046 29.4686 49.2314C29.4686 48.6583 29.0041 48.1937 28.4311 48.1937C27.8581 48.1937 27.3936 48.6583 27.3936 49.2314C27.3936 49.8046 27.8581 50.2692 28.4311 50.2692Z" fill="#006DCC"/>
<path d="M68.1786 27.9392C68.7516 27.9392 69.2161 27.4746 69.2161 26.9015C69.2161 26.3283 68.7516 25.8637 68.1786 25.8637C67.6056 25.8637 67.1411 26.3283 67.1411 26.9015C67.1411 27.4746 67.6056 27.9392 68.1786 27.9392Z" fill="#006DCC"/>
<path d="M86.4247 53.8476C86.9977 53.8476 87.4622 53.383 87.4622 52.8099C87.4622 52.2367 86.9977 51.7721 86.4247 51.7721C85.8517 51.7721 85.3872 52.2367 85.3872 52.8099C85.3872 53.383 85.8517 53.8476 86.4247 53.8476Z" fill="#006DCC"/>
<path d="M52.5443 42.8258C53.1173 42.8258 53.5818 42.3612 53.5818 41.7881C53.5818 41.2149 53.1173 40.7503 52.5443 40.7503C51.9713 40.7503 51.5068 41.2149 51.5068 41.7881C51.5068 42.3612 51.9713 42.8258 52.5443 42.8258Z" fill="#006DCC"/>
</svg>
