<svg width="102" height="56" viewBox="0 0 102 56" fill="none" xmlns="http://www.w3.org/2000/svg">
<path d="M35.0595 34.0372C35.1643 33.8257 35.3386 33.6593 35.4836 33.4742C35.4626 33.4916 35.4407 33.508 35.418 33.5232C35.3107 33.5687 35.2115 33.6312 35.1241 33.7082C35.0706 33.7825 35.0344 33.8678 35.0183 33.9579L34.7686 34.9272C34.8175 34.8655 34.8665 34.8048 34.9165 34.7441C34.9134 34.501 34.9622 34.26 35.0595 34.0372Z" fill="#F2F2F2"/>
<path d="M58.6397 34.6922C58.6231 34.8019 58.5901 34.9085 58.5418 35.0084C58.5442 35.4187 58.4895 35.8273 58.3792 36.2224C58.333 36.3892 58.2986 36.559 58.2763 36.7306C58.0452 38.3108 57.8218 39.9615 58.2166 41.4928C58.245 41.3998 58.2966 41.3156 58.3664 41.248C58.627 40.9279 58.7299 40.5098 58.8072 40.1045C59.2138 37.9701 59.1011 35.7907 59.0032 33.6103C58.9426 33.5436 58.8702 33.4888 58.7896 33.4487C58.7942 33.5441 58.7919 33.6396 58.7828 33.7346C58.7514 34.056 58.7037 34.3756 58.6397 34.6922Z" fill="#F2F2F2"/>
<path d="M44.9045 34.0391C44.9019 33.9147 44.8759 33.7918 44.8281 33.6769C44.7774 33.581 44.7134 33.4926 44.6381 33.4145L44.4265 33.1736C44.3188 35.731 44.0896 38.2952 44.5656 40.7987C44.643 41.204 44.7458 41.6221 45.0064 41.9422C45.0763 42.0098 45.1279 42.094 45.1563 42.187C45.5481 40.6587 45.3277 39.005 45.0965 37.4248C45.0742 37.2532 45.0399 37.0834 44.9937 36.9167C44.8199 36.274 44.7802 35.6025 44.8771 34.9438C44.9159 34.6439 44.9251 34.3409 44.9045 34.0391Z" fill="#F2F2F2"/>
<path d="M46.1177 28.6425C46.4008 29.1076 46.5771 29.6608 46.7358 30.1875L46.8034 30.4166C46.771 29.6422 46.7554 28.8687 46.7495 28.0942C46.5967 28.2303 46.4429 28.3635 46.2881 28.4966L46.1177 28.6425Z" fill="#F2F2F2"/>
<path d="M48.3953 54.7407C48.4381 54.1983 48.3961 53.6526 48.2709 53.1232C48.1847 52.7884 48.0515 52.4604 48.0397 52.1138C48.0422 51.8829 48.0705 51.6531 48.124 51.4285C48.5266 49.3822 48.7 47.2292 48.0907 45.2348C47.9271 44.7003 47.7106 44.1833 47.5441 43.6497C47.4682 43.8499 47.3758 44.0435 47.2679 44.2284C47.2448 44.1424 47.2028 44.0626 47.1451 43.9949C47.0873 43.9271 47.0151 43.8731 46.9338 43.8367C46.9384 43.9321 46.9361 44.0276 46.927 44.1226C46.8978 44.4426 46.8524 44.7609 46.7908 45.0762C46.7734 45.1994 46.7325 45.318 46.6704 45.4258C46.5891 45.538 46.4806 45.6277 46.3549 45.6862C46.4118 45.8144 46.4686 45.9437 46.5244 46.0719L46.1159 46.1973C46.3843 46.7847 46.161 47.4544 46.018 48.079C45.5057 50.2516 45.967 52.572 45.7241 54.7681L48.3953 54.7407Z" fill="#F2F2F2"/>
<path d="M46.912 23.659C47.0168 23.4476 47.1912 23.2811 47.3362 23.0961C47.3151 23.1135 47.2932 23.1298 47.2705 23.145C47.1633 23.1905 47.064 23.253 46.9767 23.3301C46.9231 23.4043 46.887 23.4896 46.8709 23.5797L46.6211 24.549C46.6701 24.4873 46.719 24.4266 46.769 24.3659C46.766 24.1228 46.8147 23.8819 46.912 23.659Z" fill="#F2F2F2"/>
<path d="M56.7568 23.661C56.7542 23.5365 56.7282 23.4137 56.6804 23.2987C56.6297 23.2028 56.5657 23.1145 56.4904 23.0363L56.2788 22.7955C56.173 25.3136 55.9497 27.8397 56.3983 30.3069C56.4777 30.0406 56.558 29.7743 56.6373 29.507C56.7583 29.0677 56.9159 28.6394 57.1085 28.2264C57.0624 27.8348 57.0056 27.4363 56.9488 27.0515C56.9265 26.8799 56.8922 26.7101 56.846 26.5434C56.6722 25.9007 56.6325 25.2292 56.7294 24.5705C56.7685 24.269 56.7777 23.9643 56.7568 23.661Z" fill="#F2F2F2"/>
<path d="M52.4854 42.9076L52.1504 54.7005L53.032 54.6907C52.8768 53.2553 52.8061 51.8119 52.8204 50.3681C52.8204 49.9481 52.8351 49.5242 52.7479 49.113C52.6862 48.8261 52.5784 48.551 52.5197 48.2641C52.462 47.9197 52.44 47.5703 52.454 47.2214L52.4854 42.9076Z" fill="#F2F2F2"/>
<path d="M44.9095 42.9135C44.9232 42.8812 44.9369 42.8489 44.9496 42.8156C44.9957 42.6961 45.0368 42.5757 45.075 42.4543C45.072 42.4586 45.0694 42.4632 45.0672 42.468C44.9898 42.5953 44.9055 42.7177 44.8184 42.8371C44.8497 42.8626 44.8801 42.887 44.9095 42.9135Z" fill="#F2F2F2"/>
<path d="M18.261 29.7312C18.2583 29.6068 18.2324 29.4839 18.1846 29.369C18.1338 29.273 18.0699 29.1847 17.9945 29.1066L17.783 28.8657C17.6752 31.4231 17.446 33.9873 17.9221 36.4907C17.9994 36.8961 18.1023 37.3141 18.3628 37.6343C18.4327 37.7019 18.4843 37.7861 18.5127 37.8791C18.9045 36.3507 18.6841 34.6971 18.453 33.1169C18.4323 32.9454 18.3996 32.7756 18.355 32.6087C18.1813 31.9661 18.1416 31.2945 18.2384 30.6359C18.2756 30.3358 18.2832 30.0328 18.261 29.7312Z" fill="#F2F2F2"/>
<path d="M18.2659 38.6055C18.2796 38.5732 18.2933 38.5409 18.3061 38.5076C18.3521 38.3882 18.3932 38.2678 18.4314 38.1464C18.4285 38.1507 18.4258 38.1553 18.4236 38.1601C18.3462 38.2873 18.262 38.4097 18.1748 38.5292C18.2062 38.5546 18.2365 38.5791 18.2659 38.6055Z" fill="#F2F2F2"/>
<path d="M13.9893 48.9778C13.9318 51.0241 13.8737 53.07 13.8149 55.1156L14.2352 55.1108C14.1725 54.8503 14.0794 54.5977 14.0255 54.3343C13.9679 53.99 13.9459 53.6405 13.9599 53.2916L13.9893 48.9778Z" fill="#F2F2F2"/>
<path d="M20.2828 54.8914C20.1569 54.8324 20.0483 54.742 19.9673 54.629C19.9042 54.5189 19.8633 54.3975 19.8469 54.2717C19.7853 53.9563 19.7399 53.638 19.7107 53.3181C19.7015 53.2231 19.6993 53.1275 19.7039 53.0322C19.6226 53.0686 19.5504 53.1226 19.4926 53.1903C19.4349 53.2581 19.3929 53.3378 19.3698 53.4238C19.0844 52.9189 18.8976 52.3644 18.8193 51.7897C18.7899 51.8876 18.7596 51.9953 18.7214 52.0972C18.5176 52.7032 18.2218 53.2897 18.163 53.9271C18.1349 54.3107 18.168 54.6964 18.261 55.0696L20.2064 55.0481C20.2416 54.9952 20.2602 54.9433 20.2828 54.8914Z" fill="#F2F2F2"/>
<path d="M21.562 51.6586C21.6002 51.78 21.6414 51.9004 21.6874 52.0198C21.7001 52.0522 21.7138 52.0845 21.7276 52.1178C21.7569 52.0913 21.7873 52.0668 21.8186 52.0424C21.7315 51.9229 21.6472 51.8005 21.5698 51.6733C21.5677 51.6681 21.565 51.6632 21.562 51.6586Z" fill="#F2F2F2"/>
<path d="M35.596 53.6951C35.4587 53.1118 35.3647 52.5191 35.3149 51.922C35.1594 50.486 35.004 49.05 34.8486 47.6141C34.8437 47.5768 34.8398 47.5387 34.8359 47.5015C34.83 47.5201 34.8251 47.5387 34.8192 47.5573C34.7007 47.9048 34.4656 48.1976 34.2315 48.4835C33.9974 48.7694 33.7045 49.065 33.3607 48.9808C33.2198 48.9348 33.0919 48.8559 32.9875 48.7508L32.2038 48.0742C32.0491 47.9411 31.8953 47.8079 31.7425 47.6718C31.7356 48.6166 31.7141 49.5605 31.6651 50.5043C31.6494 50.8029 31.6249 51.1142 31.4839 51.3747C31.773 52.2724 31.9332 53.2066 31.9599 54.1494C31.9668 54.4049 31.9599 54.6604 31.9521 54.916L34.2481 54.8905H34.2619L35.9888 54.8719C35.8448 54.4862 35.6998 54.0965 35.596 53.6951Z" fill="#F2F2F2"/>
<path d="M31.7171 43.9474C31.766 44.0081 31.815 44.0688 31.865 44.1304L31.6152 43.1612C31.5991 43.0711 31.5629 42.9857 31.5094 42.9115C31.422 42.8344 31.3228 42.7719 31.2155 42.7264C31.1929 42.7112 31.1709 42.6949 31.1499 42.6775C31.2949 42.8625 31.4692 43.029 31.574 43.2405C31.6713 43.4633 31.7201 43.7042 31.7171 43.9474Z" fill="#F2F2F2"/>
<path d="M34.557 39.6492C34.6187 40.3296 34.6549 41.0121 34.6892 41.6945C34.7235 42.3769 34.7588 43.0417 34.7931 43.7153C34.8731 43.1941 34.9943 42.6802 35.1555 42.1781C35.0144 41.9177 34.9899 41.6064 34.9743 41.3077C34.9253 40.3639 34.9037 39.4201 34.8969 38.4753C34.747 38.6094 34.5952 38.7406 34.4424 38.8669C34.4993 39.1246 34.5376 39.386 34.557 39.6492Z" fill="#F2F2F2"/>
<path d="M21.5439 46.6232C21.3127 48.2034 21.0894 49.8541 21.4842 51.3854C21.5126 51.2925 21.5641 51.2082 21.634 51.1406C21.8946 50.8205 21.9974 50.4024 22.0748 49.9971C22.5509 47.4936 22.3217 44.9294 22.2139 42.3721L22.0053 42.6129C21.9275 42.6922 21.8615 42.7822 21.8094 42.8802C21.7599 42.9965 21.733 43.1211 21.73 43.2474C21.7107 43.5476 21.7209 43.8489 21.7604 44.1471C21.857 44.8027 21.8183 45.4711 21.6468 46.1112C21.6004 46.2792 21.566 46.4503 21.5439 46.6232Z" fill="#F2F2F2"/>
<path d="M56.9647 54.6476L57.7326 54.6398C57.3232 52.2822 57.9138 49.7513 57.3575 47.3947C57.2703 47.0275 57.1615 46.6427 57.1341 46.2697C56.9382 46.7896 56.7139 47.3026 56.663 47.8539C56.5738 48.8065 57.0225 49.719 57.189 50.6618C57.4182 51.9611 57.1077 53.2858 56.9696 54.5977C56.9676 54.6153 56.9666 54.629 56.9647 54.6476Z" fill="#F2F2F2"/>
<path d="M83.3715 53.4659C82.4821 50.8165 83.3715 47.8637 82.728 45.1438C82.5801 44.5191 82.3567 43.8446 82.63 43.262L82.2216 43.1367C82.2774 43.0084 82.3342 42.8792 82.391 42.7509C82.3116 42.7105 82.2378 42.6598 82.1716 42.6002L81.8719 45.3621C81.822 45.9593 81.7281 46.5519 81.5907 47.1352C81.4213 47.7863 81.146 48.408 80.9491 49.0493C80.4231 50.7686 80.4809 52.6053 80.764 54.3902L83.7026 54.3588C83.5949 54.0602 83.4724 53.7655 83.3715 53.4659Z" fill="#F2F2F2"/>
<path d="M81.997 27.2777L82.0048 27.2503L82.0401 27.1358C81.9561 27.0663 81.8632 27.0083 81.7639 26.9634C81.7412 26.9482 81.7193 26.9319 81.6982 26.9145C81.7952 27.0379 81.9039 27.1524 81.997 27.2777Z" fill="#F2F2F2"/>
<path d="M72.1064 35.8955C72.1446 36.0169 72.1858 36.1373 72.2318 36.2568C72.2446 36.2891 72.2583 36.3214 72.272 36.3547C72.3014 36.3283 72.3317 36.3038 72.3631 36.2793C72.2759 36.1599 72.1917 36.0375 72.1143 35.9102C72.1121 35.9051 72.1095 35.9002 72.1064 35.8955Z" fill="#F2F2F2"/>
<path d="M84.1774 37.8565C84.4781 36.2783 84.4977 34.6765 84.4438 33.0679C84.3723 33.133 84.2868 33.1808 84.1939 33.2074C84.1009 33.2341 84.0031 33.2389 83.908 33.2216L83.8913 33.2167C83.8674 33.4731 83.8199 33.7268 83.7493 33.9745C83.7031 34.1412 83.6687 34.311 83.6464 34.4826C83.4153 36.0629 83.1919 37.7136 83.5867 39.2448C83.6151 39.1519 83.6667 39.0677 83.7366 39.0001C83.9971 38.6799 84.1 38.2619 84.1774 37.8565Z" fill="#F2F2F2"/>
<path d="M40.6231 54.8249C40.6231 54.3118 40.6264 53.7985 40.6329 53.2848C40.6179 53.7978 40.6036 54.3112 40.5898 54.8249H40.6231Z" fill="#F2F2F2"/>
<path d="M101.665 12.3517C101.6 11.983 101.522 11.6204 101.433 11.264C100.483 7.42406 98.2582 4.35957 94.1843 2.70102C93.835 2.55873 93.4719 2.42818 93.0951 2.30939C92.2377 2.03717 91.3617 1.82775 90.4738 1.68278C81.9284 0.254314 74.7425 0.93379 68.2648 2.22225C67.8994 2.29372 67.537 2.36911 67.1756 2.44548C58.0952 4.36348 50.3628 7.33497 42.1121 7.07552C41.7507 7.06475 41.3873 7.04712 41.0239 7.02363C37.427 6.78473 33.7165 5.90454 29.7425 4.03256C25.0456 1.82083 20.2694 2.56395 15.9604 5.19765C13.5282 6.68193 11.2449 8.76931 9.20849 11.2679L9.20163 11.2757C8.9143 11.6282 8.63219 11.9872 8.35531 12.3527C1.72874 21.1526 -1.9504 34.3114 1.06755 44.5084C1.17596 44.8759 1.2935 45.2388 1.42019 45.5971C2.29197 48.083 3.58888 50.3682 5.36772 52.34C6.3999 53.4807 7.72372 54.3185 9.19673 54.7632C9.44946 54.8416 9.70707 54.9052 9.96763 54.959C10.0411 53.7205 9.95588 52.483 9.59443 51.3012C9.39852 50.657 9.12229 50.0382 8.95283 49.3871C8.81551 48.8038 8.72155 48.2112 8.6717 47.614C8.51628 46.1781 8.36086 44.7421 8.20544 43.3061C8.10749 42.4249 8.00953 41.5301 8.03598 40.6381C8.06269 39.6954 8.22297 38.7612 8.51204 37.8634C8.37098 37.603 8.34649 37.2917 8.33082 36.993C8.28185 36.0492 8.2603 35.1054 8.25344 34.1606C8.10063 34.2967 7.94684 34.4298 7.79208 34.563L7.00355 35.2434C6.89914 35.3486 6.77123 35.4275 6.63035 35.4735C6.28653 35.5577 5.98189 35.2523 5.75954 34.9762C5.53718 34.7001 5.29328 34.3975 5.17181 34.05C5.0789 33.7271 5.04277 33.3905 5.06504 33.0552C5.07288 32.6254 5.09443 32.1966 5.11696 31.7677L5.30209 28.1804C5.33736 27.4951 5.37262 26.8156 5.43433 26.1351C5.47841 25.6456 5.5411 25.1482 5.79284 24.7302C6.26596 23.9469 7.28076 23.6737 8.2025 23.7403C8.17953 23.695 8.16683 23.6452 8.16531 23.5944C8.16378 23.5437 8.17347 23.4932 8.19369 23.4466C8.25133 23.3591 8.33391 23.2909 8.43074 23.2508L9.79327 22.5155C9.8898 22.4543 9.999 22.4158 10.1126 22.4029C10.1728 22.4009 10.2326 22.4133 10.287 22.4391L10.5505 22.2551C10.6093 22.2087 10.6755 22.1726 10.7464 22.1483C10.8348 22.1261 10.9278 22.1306 11.0138 22.1611C11.0802 22.0287 11.1185 21.884 11.1264 21.7362C11.1207 21.5524 11.0815 21.3713 11.0108 21.2016C10.6967 20.9639 10.4411 20.6575 10.2637 20.3059C10.0862 19.9543 9.99168 19.5667 9.98722 19.1729C9.69336 19.0085 9.31526 18.9164 9.19575 18.5698C9.11445 18.3339 9.21143 18.0734 9.17812 17.8277C9.11306 17.7633 9.06349 17.685 9.03315 17.5986C8.94891 17.3548 9.05862 17.0826 9.01356 16.8281C8.98809 16.6881 8.91561 16.551 8.94401 16.412C8.9728 16.3132 9.02603 16.2233 9.09878 16.1505L10.0617 15.0109C10.2742 14.7603 10.4936 14.5028 10.7855 14.353C11.4849 13.9936 12.3224 14.353 13.108 14.353C13.3715 14.353 13.6438 14.3118 13.8917 14.397C14.07 14.4699 14.2339 14.574 14.3755 14.7045L15.453 15.5856C15.8155 15.8793 16.2063 16.2289 16.2416 16.6949C16.2498 16.8363 16.2292 16.9779 16.1808 17.111C16.3057 17.2711 16.3828 17.4632 16.4032 17.6652C16.4277 17.9883 16.271 18.2977 16.0907 18.5669C15.8201 18.9684 15.4898 19.3263 15.1112 19.6282C15.0225 20.0929 14.8081 20.5243 14.4911 20.8755C14.5621 21.217 14.655 21.5535 14.7693 21.883C14.772 21.8887 14.7743 21.8946 14.7762 21.9006C14.8677 21.9059 14.956 21.9368 15.0309 21.9897C15.108 22.0474 15.179 22.1131 15.2424 22.1856C15.2766 22.1319 15.3266 22.0902 15.3855 22.0661C15.5304 22.0083 15.693 22.0739 15.8351 22.1386C16.267 22.3344 16.7068 22.539 17.0585 22.8572C17.1865 22.9734 17.2944 23.1101 17.3778 23.2616C17.8704 23.1929 18.3711 23.3086 18.7835 23.5866C19.524 24.0938 19.8286 25.02 20.0863 25.8796C20.2782 26.5232 20.4706 27.1661 20.6632 27.8084C20.9159 28.6523 21.1706 29.5061 21.2294 30.3853C21.2832 31.1852 21.1735 31.9861 21.0638 32.7801C20.912 33.8796 21.2695 35.0848 21.2744 36.1941C21.2744 36.479 21.2744 36.7679 21.2676 37.0557C21.6669 36.8091 22.1396 36.7091 22.6046 36.7728C22.688 36.6213 22.7959 36.4846 22.924 36.3684C23.2756 36.0502 23.7154 35.8475 24.1474 35.6498C24.2894 35.5851 24.452 35.5195 24.597 35.5773C24.6559 35.6014 24.7059 35.6431 24.74 35.6968C24.8035 35.6243 24.8744 35.5586 24.9516 35.5009C25.0265 35.448 25.1147 35.4171 25.2063 35.4118C25.2081 35.4058 25.2104 35.3999 25.2131 35.3942C25.3274 35.0647 25.4204 34.7282 25.4913 34.3868C25.1744 34.0355 24.9599 33.6041 24.8713 33.1394C24.4927 32.8375 24.1624 32.4796 23.8918 32.0781C23.7115 31.8089 23.5548 31.4995 23.5793 31.1764C23.5997 30.9744 23.6767 30.7823 23.8016 30.6222C23.7533 30.4891 23.7326 30.3475 23.7409 30.2061C23.7762 29.7401 24.167 29.3915 24.5294 29.0968L25.6069 28.2157C25.7486 28.0852 25.9125 27.9811 26.0908 27.9082C26.3396 27.8231 26.6119 27.8642 26.8744 27.8642C27.6581 27.8642 28.4975 27.5068 29.1969 27.8642C29.4908 28.014 29.7082 28.2715 29.9208 28.5221L30.8964 29.6627C30.9692 29.7355 31.0224 29.8254 31.0512 29.9241C31.0786 30.0632 31.0071 30.2002 30.9816 30.3403C30.9366 30.5948 31.0463 30.867 30.9621 31.1108C30.9317 31.1971 30.8821 31.2755 30.8171 31.3399C30.7838 31.5856 30.8808 31.8461 30.7994 32.082C30.6799 32.4286 30.3038 32.5206 30.008 32.6851C30.0035 33.0789 29.909 33.4665 29.7315 33.8181C29.5541 34.1697 29.2985 34.4761 28.9844 34.7138C28.9137 34.8835 28.8745 35.0646 28.8688 35.2483C28.8767 35.3962 28.9151 35.5409 28.9814 35.6733C29.0674 35.6428 29.1604 35.6383 29.2488 35.6605C29.3197 35.6848 29.3859 35.7209 29.4447 35.7673L29.7082 35.9513C29.7626 35.9255 29.8224 35.913 29.8826 35.9151C29.9962 35.9279 30.1054 35.9664 30.2019 36.0277L31.5615 36.7551C31.6211 36.7854 31.677 36.8226 31.7281 36.8658C31.7388 36.6024 31.7506 36.3381 31.7643 36.0747L31.9494 32.4874C31.9847 31.802 32.02 31.1225 32.0817 30.4421C32.1257 29.9525 32.1884 29.4552 32.4402 29.0371C32.9133 28.2538 33.9281 27.9807 34.8498 28.0473C34.8269 28.002 34.8142 27.9521 34.8126 27.9014C34.8111 27.8506 34.8208 27.8001 34.841 27.7535C34.8987 27.666 34.9812 27.5978 35.0781 27.5577L36.4367 26.8234C36.5332 26.7622 36.6424 26.7237 36.756 26.7108C36.8162 26.7088 36.876 26.7212 36.9304 26.7471L37.1939 26.563C37.2527 26.5166 37.3189 26.4806 37.3898 26.4563C37.4782 26.4341 37.5713 26.4385 37.6572 26.469C37.7236 26.3366 37.7619 26.192 37.7698 26.0441C37.7641 25.8603 37.7249 25.6792 37.6543 25.5095C37.3401 25.2718 37.0845 24.9655 36.9071 24.6138C36.7297 24.2622 36.6351 23.8747 36.6306 23.4809C36.3368 23.3164 35.9587 23.2243 35.8392 22.8778C35.7579 22.6418 35.8548 22.3814 35.8215 22.1356C35.7565 22.0712 35.7069 21.9929 35.6766 21.9065C35.5923 21.6627 35.702 21.3905 35.657 21.136C35.6244 21.0256 35.5995 20.913 35.5825 20.7992C35.4757 21.0004 35.3935 21.2137 35.3376 21.4346C35.1995 21.9897 35.224 22.5713 35.1417 23.1362C35.1124 23.332 35.0565 23.5416 34.891 23.6453C34.7627 23.7247 34.5971 23.7188 34.459 23.7765C34.2278 23.8745 34.0995 24.128 34.0672 24.3767C34.0349 24.6254 34.074 24.876 34.074 25.1267C34.074 25.7817 33.7596 26.4592 33.1876 26.7784C32.4343 27.1984 31.4988 26.9203 30.6848 26.6345C31.0476 26.5037 31.3698 26.2802 31.6193 25.9863L30.723 25.8081C31.2442 25.567 31.7263 25.2492 32.1532 24.8653C32.3127 24.739 32.438 24.5747 32.5176 24.3875C32.6155 24.1133 32.5244 23.8 32.6155 23.5249C32.7673 23.055 33.3443 22.8758 33.6381 22.4793C33.8958 22.1327 33.9046 21.6676 33.9036 21.2358L33.8987 19.593C33.8987 19.1201 33.9291 18.5757 34.3062 18.2888C34.7264 17.9677 35.322 18.1508 35.8509 18.1469C36.4083 18.1469 36.9392 17.9158 37.4936 17.8532C38.0167 17.7924 38.8895 18.1596 38.8748 18.5737C39.166 18.6261 39.4606 18.6568 39.7563 18.6658C40.0198 18.6658 40.2921 18.6247 40.54 18.7098C40.7183 18.7827 40.8822 18.8868 41.0239 19.0173L42.1014 19.8984C42.4638 20.1922 42.8546 20.5417 42.885 21.0077C42.8932 21.1491 42.8726 21.2907 42.8242 21.4238C42.9491 21.5839 43.0262 21.776 43.0466 21.978C43.0711 22.3011 42.9144 22.6105 42.7341 22.8797C42.4635 23.2812 42.1332 23.6391 41.7546 23.941C41.6659 24.4057 41.4515 24.8371 41.1345 25.1884C41.2055 25.5298 41.2984 25.8663 41.4127 26.1958C41.4154 26.2015 41.4177 26.2074 41.4196 26.2135C41.5112 26.2187 41.5994 26.2496 41.6743 26.3026C41.7514 26.3603 41.8224 26.4259 41.8859 26.4984C41.92 26.4447 41.97 26.403 42.0289 26.3789C42.1738 26.3212 42.3364 26.3868 42.4785 26.4514C42.8594 26.6089 43.2209 26.8096 43.556 27.0496C43.556 27.029 43.556 27.0094 43.556 26.9899C43.5638 26.56 43.5854 26.1312 43.6079 25.7024L43.793 22.1151C43.8283 21.4297 43.8635 20.7502 43.9253 20.0698C43.9693 19.5802 44.032 19.0829 44.2838 18.6648C44.7569 17.8815 45.7717 17.6084 46.6934 17.675C46.6704 17.6297 46.6578 17.5798 46.6562 17.5291C46.6547 17.4783 46.6644 17.4278 46.6846 17.3812C46.7423 17.2937 46.8248 17.2255 46.9217 17.1854L48.2891 16.4452C48.3856 16.384 48.4948 16.3455 48.6084 16.3327C48.6686 16.3306 48.7284 16.343 48.7828 16.3689L49.0463 16.1848C49.1051 16.1385 49.1713 16.1024 49.2422 16.0781C49.3306 16.0559 49.4237 16.0603 49.5096 16.0908C49.576 15.9584 49.6143 15.8138 49.6222 15.6659C49.6165 15.4822 49.5773 15.301 49.5067 15.1313C49.1925 14.8937 48.9369 14.5873 48.7595 14.2357C48.5821 13.884 48.4875 13.4965 48.483 13.1027C48.1892 12.9382 47.8111 12.8462 47.6916 12.4996C47.6103 12.2636 47.7072 12.0032 47.6739 11.7574C47.6089 11.693 47.5593 11.6147 47.529 11.5283C47.4447 11.2846 47.5544 11.0124 47.5094 10.7578C47.4839 10.6178 47.4114 10.4807 47.4398 10.3417C47.4686 10.2429 47.5218 10.153 47.5946 10.0803L48.5575 8.94065C48.77 8.69001 48.9895 8.43251 49.2814 8.28271C49.9808 7.92339 50.8183 8.28271 51.6038 8.28271C51.8673 8.28271 52.1397 8.24159 52.3875 8.32677C52.5658 8.39962 52.7297 8.50373 52.8714 8.6342L53.9489 9.51537C54.3113 9.80909 54.7021 10.1586 54.7325 10.6247C54.7408 10.766 54.7201 10.9076 54.6718 11.0408C54.7966 11.2008 54.8737 11.3929 54.8941 11.5949C54.9186 11.918 54.7619 12.2274 54.5816 12.4966C54.311 12.8981 53.9807 13.256 53.6021 13.558C53.5135 14.0226 53.299 14.454 52.9821 14.8053C53.053 15.1467 53.146 15.4833 53.2602 15.8128C53.263 15.8185 53.2652 15.8244 53.2671 15.8304C53.3587 15.8357 53.4469 15.8665 53.5218 15.9195C53.599 15.9772 53.6699 16.0428 53.7334 16.1153C53.7675 16.0617 53.8175 16.0199 53.8764 15.9959C54.0213 15.9381 54.1839 16.0037 54.326 16.0683C54.758 16.2641 55.1978 16.4687 55.5494 16.7869C55.6775 16.9032 55.7854 17.0398 55.8688 17.1913C56.3614 17.1226 56.862 17.2384 57.2744 17.5163C58.0149 18.0235 58.3196 18.9497 58.5772 19.8093C58.7692 20.4529 58.9615 21.0958 59.1541 21.7381C59.4068 22.5821 59.6615 23.4358 59.7203 24.315C59.7703 25.063 59.6772 25.8111 59.5753 26.5542C59.5998 26.5287 59.6243 26.5042 59.6517 26.4798C60.0034 26.1616 60.4432 25.9589 60.8752 25.7611C61.0172 25.6965 61.1798 25.6309 61.3248 25.6887C61.3837 25.7127 61.4336 25.7545 61.4678 25.8081C61.5313 25.7356 61.6022 25.67 61.6794 25.6123C61.7542 25.5594 61.8425 25.5285 61.934 25.5232C61.9359 25.5172 61.9382 25.5113 61.9409 25.5056C62.0552 25.1761 62.1481 24.8396 62.2191 24.4981C61.9022 24.1469 61.6877 23.7154 61.599 23.2508C61.2205 22.9488 60.8902 22.5909 60.6195 22.1895C60.4393 21.9202 60.2826 21.6108 60.307 21.2877C60.3274 21.0858 60.4045 20.8937 60.5294 20.7336C60.4811 20.6005 60.4604 20.4589 60.4687 20.3175C60.5039 19.8514 60.8948 19.5029 61.2523 19.2082L62.3298 18.327C62.4715 18.1966 62.6353 18.0924 62.8137 18.0196C63.0625 17.9344 63.3348 17.9755 63.5973 17.9755C63.893 17.9666 64.1877 17.9358 64.4789 17.8835C64.4642 17.4694 65.337 17.1002 65.86 17.1629C66.4135 17.2265 66.9454 17.4566 67.5027 17.4566C68.0317 17.4566 68.6272 17.2775 69.0474 17.5986C69.4246 17.8855 69.4559 18.4298 69.4549 18.9027L69.45 20.5456C69.45 20.9774 69.4579 21.4424 69.7155 21.789C69.9956 22.1669 70.5314 22.3471 70.7127 22.7681C70.934 22.1993 71.2338 21.6715 71.7294 21.3318C72.1418 21.0538 72.6424 20.9381 73.1351 21.0067C73.2184 20.8553 73.3263 20.7186 73.4544 20.6024C73.806 20.2842 74.2458 20.0815 74.6778 19.8837C74.8199 19.8191 74.9825 19.7535 75.1274 19.8113C75.1863 19.8354 75.2363 19.8771 75.2705 19.9307C75.3339 19.8583 75.4049 19.7926 75.482 19.7349C75.5569 19.682 75.6451 19.6511 75.7367 19.6458C75.7386 19.6398 75.7409 19.6339 75.7436 19.6282C75.8579 19.2987 75.9508 18.9622 76.0218 18.6207C75.7048 18.2695 75.4904 17.838 75.4017 17.3734C75.0231 17.0714 74.6928 16.7136 74.4222 16.3121C74.2419 16.0428 74.0852 15.7335 74.1097 15.4104C74.1301 15.2084 74.2072 15.0163 74.3321 14.8562C74.2837 14.7231 74.2631 14.5815 74.2713 14.4401C74.3066 13.9741 74.6974 13.6255 75.055 13.3308L76.1324 12.4496C76.2741 12.3192 76.438 12.2151 76.6163 12.1422C76.8651 12.057 77.1375 12.0982 77.4 12.0982C77.6957 12.0892 77.9904 12.0584 78.2815 12.0061C78.2669 11.592 79.1396 11.2229 79.6627 11.2855C80.2161 11.3492 80.748 11.5793 81.3054 11.5793C81.8343 11.5793 82.4299 11.4001 82.8501 11.7212C83.2272 12.0081 83.2586 12.5525 83.2576 13.0253L83.2527 14.6682C83.2527 15.1 83.2605 15.5651 83.5182 15.9116C83.812 16.3082 84.389 16.4873 84.5408 16.9573C84.6289 17.2344 84.5408 17.5447 84.6387 17.8199C84.7243 18.0128 84.8587 18.1802 85.0286 18.3055C85.2476 18.5036 85.4818 18.6843 85.729 18.8459C85.7692 18.716 85.8318 18.594 85.9141 18.4856C85.8658 18.3525 85.8451 18.2109 85.8534 18.0695C85.8886 17.6035 86.2795 17.2549 86.637 16.9602L87.7145 16.0791C87.8562 15.9486 88.0201 15.8445 88.1984 15.7716C88.4472 15.6865 88.7195 15.7276 88.982 15.7276C89.7656 15.7276 90.6051 15.3702 91.3045 15.7276C91.5984 15.8774 91.8158 16.1349 92.0284 16.3855L92.9913 17.5252C93.064 17.5979 93.1172 17.6878 93.146 17.7866C93.1735 17.9256 93.102 18.0627 93.0765 18.2027C93.0314 18.4572 93.1411 18.7294 93.0569 18.9732C93.0266 19.0596 92.977 19.1379 92.9119 19.2023C92.8786 19.4481 92.9756 19.7085 92.8943 19.9445C92.7748 20.291 92.3986 20.3831 92.1028 20.5476C92.0984 20.9414 92.0038 21.3289 91.8264 21.6805C91.6489 22.0322 91.3934 22.3385 91.0792 22.5762C91.0085 22.7459 90.9694 22.927 90.9636 23.1108C90.9715 23.2586 91.0099 23.4033 91.0763 23.5357C91.1622 23.5052 91.2552 23.5008 91.3437 23.523C91.4145 23.5473 91.4808 23.5833 91.5396 23.6297L91.8031 23.8137C91.8575 23.7879 91.9173 23.7755 91.9774 23.7775C92.091 23.7904 92.2002 23.8289 92.2968 23.8901L93.6564 24.6176C93.7532 24.6577 93.8358 24.7259 93.8934 24.8134C93.9136 24.86 93.9233 24.9105 93.9218 24.9612C93.9203 25.012 93.9076 25.0618 93.8846 25.1071C94.8064 25.0405 95.8211 25.3137 96.2943 26.0969C96.546 26.515 96.6087 27.0163 96.6528 27.5019C96.7145 28.1824 96.7507 28.8648 96.785 29.5472L96.9701 33.1345C96.9927 33.5634 97.0142 33.9922 97.022 34.422C97.0443 34.7573 97.0082 35.0938 96.9153 35.4167C96.7968 35.7643 96.5617 36.0571 96.3276 36.3429C96.0935 36.6288 95.8006 36.9245 95.4568 36.8403C95.3159 36.7943 95.188 36.7154 95.0836 36.6102L94.295 35.9337C94.1403 35.8005 93.9865 35.6674 93.8337 35.5313C93.8268 36.4761 93.8053 37.4199 93.7563 38.3638C93.7406 38.6624 93.7161 38.9737 93.5751 39.2341C93.8641 40.1319 94.0244 41.0661 94.0511 42.0088C94.0585 42.7778 94.0153 43.5464 93.9218 44.3097C94.0041 44.1344 94.0864 43.9592 94.1696 43.78C98.4277 34.6893 103.336 21.5873 101.665 12.3517Z" fill="#F2F2F2"/>
<path d="M8.37869 29.65L8.12891 30.6193C8.17788 30.5576 8.22686 30.4969 8.27682 30.4362C8.27254 30.1934 8.31995 29.9524 8.41591 29.7293C8.52072 29.5178 8.69508 29.3514 8.84005 29.1663C8.81901 29.1837 8.7971 29.2001 8.77442 29.2153C8.66716 29.2608 8.56793 29.3233 8.48056 29.4003C8.42842 29.4749 8.39362 29.5602 8.37869 29.65Z" fill="#F2F2F2"/>
<path d="M68.4495 34.0588C68.4985 34.1195 68.5474 34.1802 68.5974 34.2419L68.3476 33.2726C68.3315 33.1825 68.2953 33.0972 68.2418 33.0229C68.1544 32.9459 68.0552 32.8834 67.948 32.8379C67.9253 32.8227 67.9034 32.8063 67.8823 32.7889C68.0273 32.974 68.2017 33.1404 68.3065 33.3519C68.4038 33.5747 68.4525 33.8157 68.4495 34.0588Z" fill="#F2F2F2"/>
<path d="M83.8311 39.9763C83.8605 39.9498 83.8908 39.9254 83.9222 39.9009C83.835 39.7814 83.7507 39.6591 83.6734 39.5318C83.6711 39.527 83.6685 39.5224 83.6655 39.5181C83.7037 39.6395 83.7449 39.7599 83.7909 39.8793C83.8036 39.9117 83.8144 39.943 83.8311 39.9763Z" fill="#F2F2F2"/>
<path d="M58.2949 41.77C58.3331 41.8914 58.3743 42.0118 58.4203 42.1312C58.433 42.1635 58.4467 42.1959 58.4605 42.2291C58.4898 42.2027 58.5202 42.1782 58.5516 42.1538C58.4644 42.0343 58.3801 41.9119 58.3028 41.7846C58.3006 41.7795 58.2979 41.7746 58.2949 41.77Z" fill="#F2F2F2"/>
<path d="M66.7403 22.7975C66.7358 23.1913 66.6413 23.5788 66.4638 23.9304C66.2864 24.2821 66.0308 24.5885 65.7167 24.8261C65.646 24.9958 65.6068 25.177 65.6011 25.3607C65.609 25.5086 65.6473 25.6532 65.7137 25.7856C65.7996 25.7551 65.8927 25.7507 65.9811 25.7729C66.052 25.7972 66.1182 25.8333 66.177 25.8796L66.4405 26.0637C66.4949 26.0378 66.5547 26.0254 66.6149 26.0274C66.7285 26.0403 66.8377 26.0788 66.9342 26.14L68.2938 26.8675C68.3907 26.9076 68.4732 26.9758 68.5309 27.0633C68.5511 27.1099 68.5608 27.1604 68.5593 27.2111C68.5577 27.2619 68.545 27.3117 68.5221 27.357C68.8136 27.3353 69.1067 27.3495 69.3948 27.3991C69.4992 26.8523 69.635 26.312 69.8013 25.7807C69.476 25.4091 69.2982 24.9312 69.3018 24.4374C69.3018 24.1868 69.3419 23.9352 69.3086 23.6875C69.2753 23.4398 69.147 23.1823 68.9168 23.0873C68.7767 23.0295 68.6132 23.0354 68.4848 22.9561C68.3193 22.8523 68.2635 22.6408 68.2341 22.447C68.1489 21.882 68.1733 21.3005 68.0382 20.7453C67.9823 20.5245 67.9001 20.3111 67.7933 20.1099C67.7763 20.2238 67.7515 20.3363 67.7188 20.4467C67.6738 20.7013 67.7835 20.9735 67.6992 21.2173C67.6689 21.3036 67.6193 21.382 67.5543 21.4464C67.521 21.6921 67.6179 21.9525 67.5366 22.1885C67.4122 22.541 67.0361 22.633 66.7403 22.7975Z" fill="#F2F2F2"/>
<path d="M72.0883 30.8601C71.8572 32.4403 71.6338 34.091 72.0286 35.6223C72.057 35.5293 72.1086 35.4451 72.1785 35.3775C72.439 35.0574 72.5419 34.6393 72.6192 34.234C73.0953 31.7305 72.8661 29.1663 72.7583 26.6089L72.5497 26.8498C72.4719 26.929 72.4059 27.0191 72.3538 27.1171C72.3044 27.2334 72.2775 27.3579 72.2745 27.4842C72.2552 27.7844 72.2653 28.0858 72.3048 28.384C72.4014 29.0396 72.3628 29.708 72.1912 30.348C72.1448 30.5161 72.1104 30.6872 72.0883 30.8601Z" fill="#F2F2F2"/>
<path d="M70.597 38.9639C70.5284 39.0212 70.4479 39.0624 70.3613 39.0846C70.2747 39.1068 70.1842 39.1094 70.0965 39.0922C69.9556 39.0461 69.8277 38.9672 69.7233 38.8621L68.9397 38.1855C68.7849 38.0524 68.6311 37.9192 68.4783 37.7831C68.4714 38.7279 68.4499 39.6718 68.4009 40.6156C68.3852 40.9142 68.3608 41.2256 68.2197 41.486C68.5088 42.3838 68.669 43.3179 68.6958 44.2607C68.7193 45.1526 68.6233 46.0426 68.5263 46.9287C68.3715 48.3646 68.2161 49.8006 68.06 51.2366C68.0102 51.8337 67.9162 52.4264 67.7789 53.0097C67.6437 53.5296 67.441 54.0289 67.2646 54.5361L68.2648 54.5253L69.5382 54.5116H69.6949L71.8499 54.4881C71.8503 54.4862 71.8503 54.4841 71.8499 54.4822C72.0164 53.5394 72.465 52.622 72.3759 51.6742C72.3171 51.0369 72.0213 50.4504 71.8175 49.8443C70.9281 47.195 71.8175 44.2421 71.174 41.5222C71.0261 40.8976 70.8027 40.223 71.076 39.6404L70.6676 39.5151C70.7234 39.3869 70.7802 39.2576 70.837 39.1294C70.7494 39.0861 70.6686 39.0304 70.597 38.9639Z" fill="#F2F2F2"/>
<path d="M62.7373 52.6005C62.7412 53.2623 62.7455 53.9242 62.75 54.586H62.7931L62.7373 52.6005Z" fill="#F2F2F2"/>
<path d="M88.1074 50.3486C88.114 51.3472 88.1205 52.3459 88.127 53.3445L88.1917 53.3073C88.1629 52.3217 88.1349 51.3355 88.1074 50.3486Z" fill="#F2F2F2"/>
<path d="M85.7329 19.3951L85.5674 19.4284C85.66 19.5362 85.763 19.6346 85.875 19.7222C85.8158 19.6186 85.7682 19.509 85.7329 19.3951Z" fill="#F2F2F2"/>
<path d="M76.5486 46.726L76.5779 51.0398C76.592 51.3887 76.57 51.7381 76.5123 52.0825C76.4535 52.3694 76.3458 52.6445 76.2841 52.9314C76.1969 53.3426 76.2077 53.7665 76.2116 54.1866C76.2116 54.2717 76.2116 54.3559 76.2116 54.4401L76.767 54.4343C76.6945 51.8652 76.6217 49.2958 76.5486 46.726Z" fill="#F2F2F2"/>
<path d="M93.8201 31.8069C93.8691 31.8676 93.918 31.9283 93.968 31.99L93.7182 31.0207C93.7021 30.9306 93.6659 30.8453 93.6124 30.771C93.5251 30.694 93.4258 30.6315 93.3186 30.586C93.2959 30.5708 93.274 30.5545 93.2529 30.537C93.3979 30.7221 93.5723 30.8885 93.6771 31.1C93.7744 31.3228 93.8231 31.5638 93.8201 31.8069Z" fill="#F2F2F2"/>
<path d="M80.5518 16.923C80.5473 17.3168 80.4528 17.7044 80.2753 18.056C80.0979 18.4076 79.8423 18.714 79.5282 18.9517C79.4575 19.1214 79.4183 19.3025 79.4126 19.4862C79.4205 19.6341 79.4589 19.7788 79.5252 19.9112C79.6112 19.8807 79.7042 19.8762 79.7927 19.8984C79.8635 19.9227 79.9297 19.9588 79.9886 20.0052L80.2521 20.1892C80.3064 20.1634 80.3662 20.1509 80.4264 20.153C80.54 20.1658 80.6492 20.2043 80.7457 20.2656L82.1053 20.993C82.2022 21.0331 82.2847 21.1014 82.3424 21.1889C82.3626 21.2355 82.3723 21.2859 82.3708 21.3367C82.3692 21.3875 82.3565 21.4373 82.3336 21.4826C83.2553 21.416 84.2701 21.6892 84.7432 22.4724C84.995 22.8905 85.0577 23.3918 85.1018 23.8774C85.1096 23.9675 85.1164 24.0566 85.1233 24.1457C85.4593 23.8715 85.8609 23.6845 86.2566 23.5034C86.3987 23.4388 86.5613 23.3732 86.7062 23.4309C86.7651 23.455 86.8151 23.4967 86.8492 23.5504C86.9127 23.4779 86.9836 23.4123 87.0608 23.3546C87.1357 23.3016 87.2239 23.2707 87.3155 23.2655C87.3174 23.2594 87.3197 23.2535 87.3224 23.2478C87.4366 22.9183 87.5296 22.5818 87.6005 22.2404C87.2836 21.8891 87.0692 21.4577 86.9805 20.993C86.6833 20.7545 86.4156 20.4814 86.1832 20.1794C85.4514 20.4164 84.6561 20.5808 83.9998 20.2147C83.4277 19.8955 83.1182 19.218 83.1182 18.563C83.1182 18.3123 83.1583 18.0607 83.125 17.813C83.0917 17.5653 82.9634 17.3078 82.7332 17.2128C82.5932 17.1551 82.4296 17.1609 82.3013 17.0816C82.1357 16.9779 82.0799 16.7664 82.0505 16.5725C81.9653 16.0076 81.9898 15.426 81.8546 14.8709C81.7988 14.65 81.7165 14.4367 81.6097 14.2355C81.5927 14.3493 81.5679 14.4619 81.5353 14.5723C81.4902 14.8268 81.5999 15.099 81.5157 15.3428C81.4853 15.4292 81.4358 15.5075 81.3707 15.5719C81.3374 15.8177 81.4344 16.0781 81.3531 16.314C81.2238 16.6665 80.8476 16.7585 80.5518 16.923Z" fill="#F2F2F2"/>
<path d="M24.8181 34.7568H78.8298C79.3203 34.7568 79.7907 34.9516 80.1375 35.2982C80.4843 35.6449 80.6792 36.1151 80.6792 36.6053V43.0995H22.9688V36.6073C22.9685 36.3644 23.0161 36.1238 23.109 35.8993C23.2018 35.6748 23.338 35.4708 23.5097 35.2989C23.6815 35.1271 23.8854 34.9907 24.1099 34.8977C24.3344 34.8047 24.5751 34.7568 24.8181 34.7568Z" fill="#3F3D56"/>
<path opacity="0.1" d="M24.8181 34.7568H78.8298C79.3203 34.7568 79.7907 34.9516 80.1375 35.2982C80.4843 35.6449 80.6792 36.1151 80.6792 36.6053V43.0995H22.9688V36.6073C22.9685 36.3644 23.0161 36.1238 23.109 35.8993C23.2018 35.6748 23.338 35.4708 23.5097 35.2989C23.6815 35.1271 23.8854 34.9907 24.1099 34.8977C24.3344 34.8047 24.5751 34.7568 24.8181 34.7568Z" fill="black"/>
<path d="M68.9345 42.327V54.4362L66.6081 54.4617L66.4435 54.4636L64.3738 54.4861H64.3101L62.8594 54.5018L60.2205 54.5312L51.5536 54.6252L50.338 54.6379L47.9508 54.6643L47.8411 54.6653L45.8037 54.6878L40.1655 54.7485L38.8402 54.7632L34.7134 54.8082V42.327H68.9345Z" fill="#3F3D56"/>
<path opacity="0.1" d="M68.9345 42.327V54.4362L66.6081 54.4617L66.4435 54.4636L64.3738 54.4861H64.3101L62.8594 54.5018L60.2205 54.5312L51.5536 54.6252L50.338 54.6379L47.9508 54.6643L47.8411 54.6653L45.8037 54.6878L40.1655 54.7485L38.8402 54.7632L34.7134 54.8082V42.327H68.9345Z" fill="black"/>
<path d="M22.9688 42.2673H80.6792V43.6919C80.6792 44.199 80.4776 44.6854 80.1189 45.044C79.7601 45.4026 79.2735 45.604 78.7662 45.604H24.9993C24.4608 45.604 23.9443 45.3902 23.5635 45.0096C23.1827 44.6289 22.9688 44.1127 22.9688 43.5744V42.2673Z" fill="#3F3D56"/>
<path d="M40.4373 43.9356C42.7094 43.9356 44.5514 43.5354 44.5514 43.0417C44.5514 42.548 42.7094 42.1478 40.4373 42.1478C38.1652 42.1478 36.3232 42.548 36.3232 43.0417C36.3232 43.5354 38.1652 43.9356 40.4373 43.9356Z" fill="#006DCC"/>
<path d="M40.1 43.1416L40.0187 38.8856C40.0011 37.9339 40.0354 36.855 40.7436 36.2176C41.1912 35.8152 41.8632 35.6419 42.1443 35.1103C42.2971 34.8166 42.3001 34.4768 42.2991 34.1498C42.2991 32.2178 42.2955 30.2864 42.2883 28.3557" stroke="#006DCC" stroke-miterlimit="10"/>
<path d="M42.3364 26.5355H41.9955C41.5628 26.5355 41.2119 26.8862 41.2119 27.3188V29.4473C41.2119 29.8799 41.5628 30.2305 41.9955 30.2305H42.3364C42.7692 30.2305 43.1201 29.8799 43.1201 29.4473V27.3188C43.1201 26.8862 42.7692 26.5355 42.3364 26.5355Z" fill="#006DCC"/>
<path d="M57.3375 36.385C56.7106 35.6536 56.0416 34.9605 55.3726 34.2673L54.0159 32.8604L52.7837 31.5827L46.8545 25.436C46.1336 24.688 45.3774 23.9165 44.4057 23.5504C43.434 23.1842 42.1762 23.3477 41.5875 24.2044C41.4885 24.3379 41.4174 24.4901 41.3785 24.6518C41.3396 24.8134 41.3338 24.9813 41.3613 25.1453C41.4298 25.4635 41.6551 25.7229 41.899 25.9432C43.0549 26.9986 44.6143 27.4657 45.9945 28.2049C46.4584 28.4355 46.8823 28.739 47.2502 29.1037C47.5512 29.4451 47.814 29.8184 48.0339 30.2169L51.5005 35.9983C51.7152 36.3765 51.9602 36.7367 52.2332 37.0753C52.4545 37.3357 52.7082 37.5648 52.9423 37.8164C53.4958 38.4039 53.9307 39.1 54.4626 39.7109C55.2021 40.5627 56.116 41.2422 57.0221 41.9148C57.2092 42.0538 57.4139 42.1978 57.6441 42.2085C57.9488 42.2242 58.2123 42.0127 58.4405 41.8101C58.8117 41.4821 59.566 41.0111 59.7697 40.5549C59.949 40.1505 59.6326 39.7423 59.4416 39.3859C58.8497 38.3132 58.1443 37.3071 57.3375 36.385Z" fill="#FBBEBE"/>
<path d="M60.2205 54.5312L51.5536 54.6291L50.338 54.6418L47.9509 54.6682H47.8411L45.8037 54.6907C45.9826 54.1004 46.2134 53.5271 46.4933 52.9774C46.6729 52.6333 46.8823 52.3057 47.1192 51.9983C47.5561 52.0375 47.992 52.0727 48.4289 52.1079C49.4411 52.1869 50.4532 52.2591 51.4654 52.3243C54.0279 52.4927 56.5855 52.6376 59.1568 52.8667C59.3301 52.8824 59.5153 52.903 59.6465 53.0155C59.7245 53.0929 59.7855 53.1856 59.8258 53.2877C60.0058 53.6852 60.1383 54.1026 60.2205 54.5312Z" fill="#3F3D56"/>
<path d="M54.2003 30.8318C56.4337 30.121 57.5033 29.7205 59.4898 28.4702C59.0559 28.5427 59.6858 28.0179 59.2518 27.9582C58.8179 27.8985 58.381 27.6841 58.1596 27.3042C58.0156 27.0574 57.9735 26.7667 57.9353 26.4837L57.7237 24.9338C57.7492 25.1179 53.6792 25.1414 53.6498 26.2879C53.6342 26.8871 54.0603 27.5715 54.171 28.1648C54.3344 29.0454 54.3444 29.9477 54.2003 30.8318Z" fill="#FBBEBE"/>
<path opacity="0.1" d="M54.2003 30.8318C56.4337 30.121 57.5033 29.7205 59.4898 28.4702C59.0559 28.5427 59.6858 28.0179 59.2518 27.9582C58.8179 27.8985 58.381 27.6841 58.1596 27.3042C58.0156 27.0574 57.9735 26.7667 57.9353 26.4837L57.7237 24.9338C57.7492 25.1179 53.6792 25.1414 53.6498 26.2879C53.6342 26.8871 54.0603 27.5715 54.171 28.1648C54.3344 29.0454 54.3444 29.9477 54.2003 30.8318Z" fill="black"/>
<path d="M63.3484 44.8305C63.3484 45.089 63.3484 45.3465 63.3357 45.604C63.2867 46.7103 63.1104 47.8128 63.0017 48.9162C62.8175 50.7764 62.8254 52.6367 62.8597 54.5018L60.2208 54.5302L51.5538 54.6281L50.3382 54.6408L47.9511 54.6672C47.9286 54.6144 47.9041 54.5625 47.8776 54.5126C47.8781 54.5103 47.8781 54.508 47.8776 54.5057C47.5622 53.8938 46.9892 53.4679 46.4975 52.9803C46.2602 52.758 46.0548 52.504 45.8872 52.2254C46.9647 50.3711 47.955 48.4403 48.6642 46.4146C48.7621 46.1454 48.8464 45.8732 48.9581 45.6069C49.0287 45.4244 49.1122 45.247 49.2078 45.0762C49.3812 44.7766 49.5997 44.5005 49.727 44.1765C49.8219 43.8891 49.8728 43.5891 49.8778 43.2865C49.8818 43.2258 49.8847 43.1651 49.8867 43.1044C49.8984 42.8433 49.9033 42.5852 49.9013 42.3299C49.9013 42.3094 49.9013 42.2898 49.9013 42.2702C49.9013 41.9602 49.8903 41.6508 49.868 41.3421C49.8201 40.6479 49.728 39.9508 49.8132 39.2606C49.9738 37.9603 50.7418 36.8354 51.2903 35.638C51.3432 35.5244 51.3942 35.4118 51.4412 35.2973C51.5147 35.121 51.5822 34.9409 51.6469 34.7597C52.0162 33.7161 52.2895 32.6136 52.9653 31.7648C53.0222 31.6923 53.0848 31.6208 53.1485 31.5513C53.4326 31.2478 53.7793 30.9825 53.9468 30.6026C54.1143 30.2227 54.1633 29.74 53.7597 29.6431C53.9485 29.5086 54.1281 29.3827 54.2985 29.2652C55.6179 28.3586 56.4633 27.9366 58.2166 27.5508C58.2548 27.542 58.293 27.5352 58.3312 27.5283C58.4426 27.5037 58.5579 27.5037 58.6692 27.5283C58.7852 27.5649 58.8935 27.6227 58.9885 27.6987C60.0494 28.4428 61.0455 29.0165 61.4863 30.2345C61.6401 30.6584 62.1279 31.3398 62.2014 31.7843C62.3758 32.8349 62.8293 33.7826 63.1369 34.7637C63.3346 35.3445 63.4368 35.9536 63.4395 36.5671C63.416 38.2854 63.082 39.9939 63.131 41.7102C63.1369 41.8962 63.1467 42.0822 63.1594 42.2673C63.1594 42.2869 63.1594 42.3074 63.1594 42.327C63.177 42.5855 63.2015 42.844 63.225 43.1015C63.2809 43.6771 63.3416 44.2509 63.3484 44.8305Z" fill="#565171"/>
<path d="M55.3259 40.5412C55.3259 40.553 55.3259 40.5667 55.3259 40.5784C55.3034 40.9397 55.2819 41.3019 55.2495 41.6642C55.2495 41.7269 55.2388 41.7905 55.2329 41.8551C55.2192 41.9922 55.2055 42.1302 55.1888 42.2673C55.1888 42.2869 55.1888 42.3065 55.182 42.327C55.1506 42.5865 55.1124 42.845 55.0634 43.1015C55.0145 43.358 54.9537 43.6282 54.8803 43.8847C54.7128 44.4653 54.4806 45.0263 54.2925 45.6011C54.2298 45.7969 54.1711 45.9927 54.1221 46.1885C54.0398 46.5214 53.985 46.8592 53.888 47.1872C53.7522 47.6015 53.5824 48.0039 53.3806 48.3904L51.4685 52.3175C51.1218 53.029 50.775 53.7401 50.4283 54.4509C50.3999 54.5106 50.3705 54.5704 50.3411 54.6311L47.9539 54.6575H47.8442C47.857 54.6046 47.8687 54.5537 47.8805 54.5018C48.0653 53.7009 48.2498 52.9004 48.4339 52.1001C48.6181 51.2999 48.799 50.5111 48.9766 49.7337C49.1072 49.1567 49.2401 48.5801 49.3753 48.0037C49.5202 47.3693 49.6662 46.7342 49.8131 46.0984C49.8513 45.933 49.8895 45.7685 49.9267 45.603C50.107 44.8305 50.2931 44.059 50.5145 43.2983C50.5331 43.2327 50.5536 43.1661 50.5723 43.1025C50.6526 42.842 50.7358 42.5836 50.826 42.328C50.8318 42.3075 50.8387 42.2869 50.8455 42.2683C51.0625 41.6388 51.3183 41.0235 51.6115 40.4257C51.6174 40.411 51.6243 40.3992 51.6311 40.3846C51.638 40.3699 51.6311 40.3846 51.6311 40.3846C51.7124 40.2201 51.7986 40.0575 51.8868 39.895C52.0827 39.5416 52.2492 39.053 52.6871 38.9825C53.0789 38.9199 53.6558 39.1392 54.1192 39.2997C54.2455 39.3438 54.3611 39.382 54.464 39.4104C54.7578 39.4916 55.0791 39.5964 55.2319 39.8598C55.3524 40.0595 55.3406 40.3092 55.3259 40.5412Z" fill="#FBBEBE"/>
<path opacity="0.1" d="M53.0748 32.4129C52.585 32.9113 52.3019 33.58 52.0884 34.2477C51.4708 36.1808 51.3059 38.2298 51.6064 40.2367C51.6397 40.4531 51.6917 40.692 51.8729 40.8163C52.0766 40.9563 52.3715 40.8819 52.5585 40.7135C52.7456 40.5451 52.8358 40.3052 52.9268 40.0751C53.0865 40.454 53.255 40.8447 53.5538 41.1276C54.1738 41.7151 55.168 41.6838 55.8841 42.1508C56.8733 40.1251 57.7439 38.0437 58.4916 35.917C58.622 35.5939 58.7029 35.2529 58.7316 34.9056C58.7342 34.5929 58.6746 34.2827 58.5563 33.9931C58.1644 32.9739 57.2515 32.1907 56.2054 31.8881C55.2013 31.5974 53.8466 31.6336 53.0748 32.4129Z" fill="black"/>
<path d="M52.9585 32.174C52.4687 32.6724 52.1856 33.3421 51.9711 34.0088C51.353 35.9428 51.1884 37.993 51.4901 40.0007C51.5225 40.2171 51.5754 40.456 51.7556 40.5794C51.9593 40.7203 52.2542 40.645 52.4364 40.4815C52.6186 40.3179 52.7146 40.0742 52.8047 39.8431C52.9653 40.222 53.1328 40.6126 53.4316 40.8966C54.0516 41.484 55.0459 41.4527 55.7629 41.9187C56.7517 39.893 57.622 37.8116 58.3694 35.685C58.5007 35.3625 58.5817 35.0217 58.6094 34.6746C58.6124 34.3614 58.5528 34.0509 58.4341 33.7611C58.0423 32.7419 57.1293 31.9596 56.0832 31.6561C55.0821 31.3594 53.7274 31.3947 52.9585 32.174Z" fill="#565171"/>
<path d="M54.9248 27.4882C57.2294 27.4882 59.0976 25.6208 59.0976 23.3173C59.0976 21.0138 57.2294 19.1465 54.9248 19.1465C52.6202 19.1465 50.752 21.0138 50.752 23.3173C50.752 25.6208 52.6202 27.4882 54.9248 27.4882Z" fill="#FBBEBE"/>
<path d="M50.7574 21.4385C51.0235 21.1359 51.3856 20.9341 51.783 20.8667C51.7477 21.2907 52.1072 21.65 52.4941 21.8301C52.881 22.0103 53.3159 22.0661 53.697 22.2541C54.3768 22.5889 54.893 23.3262 55.6502 23.3536C55.9127 23.3624 56.2379 23.3046 56.3868 23.5181C56.4427 23.6134 56.4725 23.7218 56.473 23.8323L56.5455 24.6234C56.7551 24.7458 57.0108 24.6029 57.2468 24.548C57.4203 24.5079 57.6015 24.5173 57.77 24.5751C57.9384 24.6328 58.0872 24.7367 58.1994 24.8748C58.3117 25.0129 58.3829 25.1798 58.405 25.3564C58.4271 25.533 58.3991 25.7122 58.3243 25.8737C58.631 25.9175 58.9437 25.8868 59.236 25.7842C59.5283 25.6816 59.7916 25.5102 60.0035 25.2844C60.2155 25.0586 60.37 24.7851 60.4538 24.487C60.5376 24.1889 60.5484 23.875 60.4852 23.5719C60.4365 23.4132 60.4111 23.2483 60.4098 23.0824C60.4401 22.7045 60.8016 22.4548 61.0092 22.1376C61.2962 21.697 61.2747 21.1115 61.0827 20.622C60.8907 20.1324 60.5518 19.7183 60.2178 19.3129L59.0315 17.8717C58.484 17.2079 57.8326 16.4893 56.9745 16.4452C56.3662 16.4149 55.7942 16.739 55.1878 16.7957C54.3063 16.879 53.3806 16.4041 52.5617 16.736C51.974 16.9739 51.6253 17.5584 51.3138 18.1067C51.0532 18.564 50.7897 19.03 50.681 19.544C50.5037 20.3801 50.7545 21.2525 50.6585 22.1013L50.7574 21.4385Z" fill="#3F3D56"/>
<path d="M2.63184 48.363C2.82774 48.2347 3.02365 48.1143 3.21074 47.9968C3.2989 47.942 3.38608 47.8852 3.47228 47.8255C3.89106 47.5426 4.28231 47.2211 4.64087 46.865C4.66634 46.8415 4.6918 46.8151 4.71727 46.7896L4.7349 46.772C4.92665 46.5923 5.08516 46.3802 5.20312 46.1454C5.35789 45.8008 5.35397 45.4091 5.34418 45.0322C5.32263 44.2326 5.28997 43.433 5.24622 42.6335C5.22957 42.325 5.20998 42.0166 5.18941 41.7082C5.17961 41.5594 5.16884 41.4145 5.15806 41.2637" stroke="#3F3D56" stroke-width="4" stroke-miterlimit="10"/>
<path d="M6.57833 41.1903C6.56791 40.9602 6.49963 40.7364 6.37978 40.5396C6.25994 40.3428 6.0924 40.1794 5.89265 40.0644L5.58508 40.6734L5.59487 39.9361C5.31624 39.8534 5.01851 39.8613 4.74466 39.9587C4.47081 40.0561 4.235 40.2379 4.07127 40.478C3.90754 40.718 3.82435 41.0039 3.83372 41.2943C3.84309 41.5846 3.94452 41.8645 4.12338 42.0935C4.30224 42.3226 4.54928 42.4888 4.82884 42.5684C5.1084 42.648 5.40601 42.6367 5.67874 42.5362C5.95146 42.4357 6.18518 42.2512 6.34617 42.0093C6.50716 41.7674 6.58708 41.4806 6.57441 41.1903H6.57833Z" fill="#006DCC"/>
<path d="M4.19347 49.3842L3.54893 49.908C3.24854 49.4511 2.96905 48.9828 2.71045 48.503C2.75326 48.4963 2.79644 48.492 2.83975 48.4903C3.13118 48.476 3.4196 48.5549 3.66305 48.7157C3.90651 48.8764 4.09232 49.1106 4.19347 49.3842Z" fill="#006DCC"/>
<path d="M4.27544 49.8639C4.27509 50.0819 4.22271 50.2967 4.12263 50.4905C4.09827 50.5386 4.07079 50.585 4.04035 50.6295L3.95219 50.5062C3.83759 50.3446 3.72494 50.1821 3.61523 50.0166L4.27544 49.8639Z" fill="#006DCC"/>
<path d="M3.44739 47.8235C3.10894 47.8426 2.77543 47.7356 2.51122 47.5234C2.24701 47.3111 2.07082 47.0085 2.01665 46.674C1.96248 46.3396 2.03417 45.9969 2.21789 45.7121C2.4016 45.4274 2.68433 45.2207 3.0115 45.1321L3.00366 45.698L3.31515 45.0821C3.49561 45.0733 3.67602 45.1002 3.84604 45.1613C4.01605 45.2224 4.17231 45.3165 4.30584 45.4381C4.43937 45.5598 4.54754 45.7066 4.62413 45.8701C4.70072 46.0337 4.74422 46.2108 4.75214 46.3912C4.76018 46.5497 4.74029 46.7085 4.69336 46.8601C4.60929 47.1289 4.44474 47.3654 4.22192 47.5376C3.9991 47.7099 3.72876 47.8097 3.44739 47.8235Z" fill="#006DCC"/>
<path d="M6.78472 45.603C6.57356 45.611 6.36339 45.5701 6.17064 45.4835C5.97788 45.397 5.80775 45.2671 5.67352 45.1039C5.53929 44.9408 5.4446 44.7489 5.39683 44.5431C5.34906 44.3374 5.3495 44.1234 5.39814 43.9178C5.44677 43.7123 5.54227 43.5207 5.67718 43.3582C5.81209 43.1956 5.98277 43.0664 6.17588 42.9806C6.369 42.8949 6.57933 42.8549 6.79046 42.8638C7.00159 42.8727 7.20781 42.9302 7.39302 43.0319L7.15009 43.6967L7.64965 43.2179C7.91737 43.463 8.07694 43.8042 8.09338 44.1667C8.09991 44.2936 8.08836 44.4209 8.0591 44.5446C7.99124 44.8358 7.82998 45.0968 7.59991 45.2879C7.36983 45.479 7.08356 45.5896 6.78472 45.603Z" fill="#006DCC"/>
<path opacity="0.1" d="M6.39256 41.5564C6.07519 41.5917 5.76664 41.6906 5.44829 41.7102C5.12994 41.7297 4.78025 41.6534 4.57846 41.4057C4.47071 41.2725 4.41586 41.1041 4.32476 40.9592C4.23776 40.8237 4.11865 40.7117 3.978 40.6332C3.89486 40.8065 3.84914 40.9954 3.84379 41.1876C3.83845 41.3798 3.8736 41.5709 3.94698 41.7486C4.02036 41.9263 4.13031 42.0866 4.2697 42.2191C4.40909 42.3515 4.5748 42.4532 4.75606 42.5175C4.93733 42.5818 5.13009 42.6072 5.32184 42.5922C5.51358 42.5772 5.70002 42.522 5.86904 42.4303C6.03806 42.3385 6.18589 42.2123 6.30291 42.0597C6.41994 41.9071 6.50355 41.7317 6.54831 41.5447C6.4964 41.5476 6.44448 41.5506 6.39256 41.5564Z" fill="black"/>
<path opacity="0.1" d="M6.78557 45.603C6.54847 45.615 6.31231 45.5653 6.1002 45.4587C5.88809 45.3522 5.70728 45.1924 5.57548 44.995C5.44368 44.7977 5.3654 44.5695 5.34829 44.3328C5.33118 44.0961 5.37584 43.8591 5.47789 43.6448C5.58722 43.7182 5.68108 43.8124 5.75412 43.9219C5.85207 44.0698 5.91182 44.2401 6.02643 44.3762C6.24095 44.6278 6.60632 44.7101 6.93838 44.6944C7.27044 44.6787 7.59075 44.5857 7.91792 44.5554C7.96395 44.5554 8.00999 44.5475 8.05701 44.5466C7.98892 44.8369 7.82794 45.0972 7.59848 45.2878C7.36903 45.4785 7.08363 45.5891 6.78557 45.603Z" fill="black"/>
<path opacity="0.1" d="M3.44802 47.8235C3.21313 47.8354 2.97913 47.7867 2.7685 47.6821C2.55787 47.5775 2.3777 47.4205 2.24529 47.2262C2.11288 47.0319 2.03269 46.8069 2.01243 46.5727C1.99216 46.3385 2.0325 46.103 2.12956 45.8889C2.24385 45.963 2.34347 46.0576 2.42342 46.1679C2.53019 46.3187 2.5968 46.492 2.71728 46.631C2.94943 46.8895 3.33929 46.9805 3.68996 46.9717C4.04064 46.9629 4.35899 46.8807 4.69693 46.8552C4.61352 47.1253 4.44888 47.3632 4.22541 47.5364C4.00195 47.7097 3.73051 47.8099 3.44802 47.8235Z" fill="black"/>
<path d="M4.12649 50.4905C4.10213 50.5386 4.07465 50.5851 4.04421 50.6296L3.95605 50.5062L4.12649 50.4905Z" fill="#006DCC"/>
</svg>
