<svg width="102" height="84" viewBox="0 0 102 84" fill="none" xmlns="http://www.w3.org/2000/svg">
<path d="M74.6582 69.1073C75.468 69.3923 76.3375 69.4638 77.1829 69.3146C78.0283 69.1655 78.8211 68.8008 79.4849 68.2558C81.1754 66.8348 81.7054 64.4937 82.1367 62.326L83.4124 55.9144L80.7417 57.7559C78.8211 59.0803 76.8573 60.4471 75.5275 62.3653C74.1977 64.2836 73.6172 66.9022 74.6857 68.9779" fill="#E6E6E6"/>
<path d="M74.8864 76.8699C74.6161 74.8982 74.3381 72.9011 74.5277 70.9081C74.6961 69.1382 75.2353 67.4095 76.3331 65.9921C76.9157 65.2411 77.6247 64.5977 78.4282 64.0908C78.6377 63.9583 78.8305 64.2909 78.6219 64.4227C77.2317 65.3026 76.1564 66.6019 75.5511 68.1332C74.8826 69.8362 74.7752 71.6925 74.8904 73.5015C74.9601 74.5955 75.1078 75.6823 75.2566 76.7677C75.2683 76.8168 75.261 76.8685 75.2361 76.9124C75.2112 76.9563 75.1706 76.9891 75.1225 77.0042C75.0734 77.0174 75.0211 77.0108 74.9769 76.9856C74.9327 76.9605 74.9002 76.9189 74.8864 76.8699Z" fill="#F2F2F2"/>
<path d="M77.4902 73.3808C77.8376 73.9095 78.315 74.3396 78.8765 74.6299C79.438 74.9201 80.0647 75.0606 80.6961 75.0379C82.319 74.9607 83.672 73.8264 84.8899 72.7495L88.4923 69.5643L86.1082 69.45C84.3936 69.3678 82.6348 69.2912 81.0017 69.8207C79.3687 70.3502 77.8626 71.6245 77.5639 73.3173" fill="#E6E6E6"/>
<path d="M74.1229 78.0034C75.4239 75.6979 76.933 73.1357 79.6295 72.3168C80.3792 72.0899 81.1654 72.0086 81.9456 72.0773C82.1916 72.0986 82.1302 72.4782 81.8847 72.457C80.5768 72.3482 79.2715 72.6941 78.1885 73.4363C77.1463 74.1467 76.3348 75.1344 75.648 76.1817C75.2273 76.8233 74.8505 77.4921 74.4736 78.1599C74.3531 78.3734 74.0011 78.2193 74.1229 78.0034V78.0034Z" fill="#F2F2F2"/>
<path d="M42.0564 61.8073C40.4604 62.3691 38.7468 62.5099 37.0806 62.216C35.4145 61.922 33.8521 61.2034 32.5438 60.1292C29.2119 57.3286 28.1673 52.7147 27.3173 48.4424C26.4793 44.2303 25.6413 40.0181 24.8032 35.806L30.0667 39.4355C33.8519 42.0456 37.7224 44.7393 40.3432 48.52C42.9641 52.3006 44.1081 57.4615 42.0023 61.5523" fill="#E6E6E6"/>
<path d="M41.6065 77.1064C42.1393 73.2203 42.687 69.2843 42.3134 65.3566C41.9815 61.8683 40.9188 58.4613 38.7553 55.6677C37.607 54.1877 36.2096 52.9196 34.6261 51.9205C34.2132 51.6595 33.8332 52.3148 34.2443 52.5747C36.9842 54.3089 39.1034 56.8696 40.2964 59.8876C41.614 63.2439 41.8256 66.9025 41.5986 70.4678C41.4613 72.6239 41.1702 74.7658 40.877 76.905C40.8539 77.0018 40.8683 77.1037 40.9173 77.1902C40.9664 77.2767 41.0464 77.3413 41.1412 77.371C41.2379 77.3971 41.341 77.384 41.4281 77.3344C41.5152 77.2849 41.5793 77.203 41.6065 77.1064Z" fill="#F2F2F2"/>
<path d="M36.4751 70.2298C35.7905 71.2716 34.8496 72.1194 33.743 72.6914C32.6363 73.2634 31.4012 73.5403 30.1567 73.4956C26.9582 73.3435 24.2917 71.1079 21.8913 68.9855L14.7915 62.7078L19.4904 62.4826C22.8696 62.3207 26.3359 62.1696 29.5544 63.2132C32.773 64.2568 35.7413 66.7683 36.3298 70.1046" fill="#E6E6E6"/>
<path d="M43.1119 79.3403C40.5477 74.7967 37.5735 69.7469 32.2592 68.1329C30.7815 67.6857 29.2321 67.5255 27.6944 67.6609C27.2098 67.7028 27.3308 68.4509 27.8145 68.4091C30.3921 68.1948 32.9647 68.8764 35.0992 70.3392C37.1533 71.7393 38.7525 73.6859 40.1061 75.7501C40.9353 77.0145 41.6779 78.3326 42.4208 79.6489C42.6582 80.0695 43.352 79.7659 43.1119 79.3403Z" fill="#F2F2F2"/>
<path d="M23.3213 17.8263L1.24401 13.1942L0.957101 13.1342C0.810988 13.1033 0.659139 13.1144 0.519018 13.1661C0.378898 13.2178 0.256196 13.308 0.165023 13.4265C0.0738501 13.5449 0.0179105 13.6867 0.00363407 13.8356C-0.0106423 13.9844 0.017327 14.1343 0.0843238 14.268L8.94427 32.0197C9.0016 32.1338 9.08546 32.2324 9.18878 32.3072C9.2921 32.382 9.41185 32.4309 9.53797 32.4497C9.66448 32.4686 9.79369 32.4564 9.91444 32.4142C10.0352 32.3719 10.1439 32.3008 10.231 32.2071L16.2735 25.7502C16.3165 25.7031 16.3688 25.6654 16.427 25.6395C16.4852 25.6137 16.5481 25.6001 16.6118 25.5998C16.6984 25.5981 16.7838 25.6199 16.8589 25.6631C16.9341 25.7062 16.996 25.769 17.0383 25.8447L18.2974 28.1444C18.3778 28.2977 18.5072 28.4197 18.6649 28.4909C18.8225 28.5622 18.9994 28.5785 19.1675 28.5374L19.1736 28.536C19.3437 28.4988 19.4964 28.4055 19.6071 28.271C19.7179 28.1364 19.7802 27.9685 19.7841 27.7942L20.0021 22.4673C20.0046 22.4008 20.0208 22.3356 20.0496 22.2756C20.0805 22.2163 20.1227 22.1636 20.1737 22.1203L23.6646 19.2157C23.7793 19.1202 23.8649 18.9943 23.9114 18.8524C23.958 18.7105 23.9637 18.5583 23.9279 18.4132C23.892 18.2682 23.8161 18.1363 23.7088 18.0324C23.6016 17.9286 23.4672 17.8572 23.3213 17.8264V17.8263ZM23.4628 18.9717L19.9719 21.8764C19.9264 21.9135 19.8853 21.9557 19.8492 22.002L1.20696 13.6685C1.19052 13.6609 1.17337 13.655 1.15578 13.6508C1.08395 13.6328 1.00808 13.6404 0.941279 13.6724C0.874477 13.7044 0.820947 13.7588 0.789943 13.8261C0.758938 13.8935 0.752409 13.9696 0.771488 14.0412C0.790567 14.1129 0.834053 14.1756 0.894425 14.2186L16.248 25.3732C16.1707 25.4141 16.101 25.468 16.0419 25.5326L9.99949 31.9894C9.94706 32.0454 9.88192 32.0878 9.80962 32.1131C9.73731 32.1384 9.65998 32.1458 9.58418 32.1348C9.50838 32.1238 9.43637 32.0946 9.37425 32.0497C9.31213 32.0048 9.26174 31.9456 9.22737 31.8771L0.367444 14.1253C0.327832 14.0451 0.311511 13.9553 0.320343 13.8663C0.329175 13.7772 0.362807 13.6925 0.417401 13.6216C0.471996 13.5508 0.545357 13.4967 0.629134 13.4656C0.712911 13.4345 0.803733 13.4276 0.89125 13.4456L1.18497 13.5074L23.2554 18.1378C23.343 18.1563 23.4237 18.199 23.4881 18.2613C23.5526 18.3235 23.5983 18.4027 23.6199 18.4897C23.6416 18.5767 23.6383 18.6681 23.6105 18.7533C23.5827 18.8386 23.5315 18.9143 23.4628 18.9717L23.4628 18.9717Z" fill="#CCCCCC"/>
<path d="M23.3213 17.8263L1.24401 13.1942L0.957101 13.1342C0.810988 13.1033 0.659139 13.1144 0.519018 13.1661C0.378898 13.2178 0.256196 13.308 0.165023 13.4265C0.0738501 13.5449 0.0179105 13.6867 0.00363407 13.8356C-0.0106423 13.9844 0.017327 14.1343 0.0843238 14.268L8.94427 32.0197C9.0016 32.1338 9.08546 32.2324 9.18878 32.3072C9.2921 32.382 9.41185 32.4309 9.53797 32.4497C9.66448 32.4686 9.79369 32.4564 9.91444 32.4142C10.0352 32.3719 10.1439 32.3008 10.231 32.2071L16.2735 25.7502C16.3165 25.7031 16.3688 25.6654 16.427 25.6395C16.4852 25.6137 16.5481 25.6001 16.6118 25.5998C16.6984 25.5981 16.7838 25.6199 16.8589 25.6631C16.9341 25.7062 16.996 25.769 17.0383 25.8447L18.2974 28.1444C18.3778 28.2977 18.5072 28.4197 18.6649 28.4909C18.8225 28.5622 18.9994 28.5785 19.1675 28.5374L19.1736 28.536C19.3437 28.4988 19.4964 28.4055 19.6071 28.271C19.7179 28.1364 19.7802 27.9685 19.7841 27.7942L20.0021 22.4673C20.0046 22.4008 20.0208 22.3356 20.0496 22.2756C20.0805 22.2163 20.1227 22.1636 20.1737 22.1203L23.6646 19.2157C23.7793 19.1202 23.8649 18.9943 23.9114 18.8524C23.958 18.7105 23.9637 18.5583 23.9279 18.4132C23.892 18.2682 23.8161 18.1363 23.7088 18.0324C23.6016 17.9286 23.4672 17.8572 23.3213 17.8264V17.8263ZM23.4628 18.9717L19.9719 21.8764C19.9264 21.9135 19.8853 21.9557 19.8492 22.002C19.8167 22.0433 19.7886 22.0879 19.7655 22.1351C19.7414 22.1834 19.7224 22.2342 19.7089 22.2865L19.7093 22.288C19.6951 22.3425 19.687 22.3984 19.6853 22.4547L19.4674 27.7817C19.466 27.8864 19.429 27.9875 19.3625 28.0684C19.296 28.1492 19.2041 28.205 19.1017 28.2266L19.0986 28.2273C18.9978 28.253 18.8913 28.2439 18.7963 28.2014C18.7013 28.1588 18.6234 28.0854 18.5753 27.9931L17.3158 25.6919C17.2509 25.5735 17.1569 25.4737 17.0427 25.402C16.9285 25.3302 16.7978 25.2889 16.6632 25.2819L16.6617 25.2822C16.6436 25.2815 16.6255 25.2807 16.6078 25.2815C16.4822 25.2823 16.3587 25.3138 16.248 25.3732C16.1707 25.4141 16.101 25.468 16.0419 25.5326L9.99949 31.9894C9.94706 32.0454 9.88192 32.0878 9.80962 32.1131C9.73731 32.1384 9.65998 32.1458 9.58418 32.1348C9.50838 32.1238 9.43637 32.0946 9.37425 32.0497C9.31213 32.0048 9.26174 31.9456 9.22737 31.877L0.367444 14.1253C0.327832 14.0451 0.311511 13.9553 0.320343 13.8663C0.329175 13.7772 0.362807 13.6925 0.417401 13.6216C0.471996 13.5508 0.545357 13.4967 0.629134 13.4656C0.712911 13.4345 0.803733 13.4276 0.89125 13.4456L1.18497 13.5074L23.2554 18.1378C23.343 18.1563 23.4237 18.199 23.4881 18.2613C23.5526 18.3235 23.5983 18.4027 23.6199 18.4897C23.6416 18.5767 23.6383 18.6681 23.6105 18.7533C23.5827 18.8386 23.5315 18.9143 23.4628 18.9717L23.4628 18.9717Z" fill="#3F3D56"/>
<path d="M19.9202 22.0332L19.7909 22.3233L19.7098 22.288L19.7094 22.2865L1.08193 13.961L16.6622 25.2822L16.6637 25.2819L16.7049 25.3132L16.5194 25.5705L16.2485 25.3732L0.894895 14.2186C0.83452 14.1756 0.791034 14.1129 0.771953 14.0412C0.752873 13.9696 0.759397 13.8935 0.790403 13.8261C0.821409 13.7588 0.874944 13.7044 0.941749 13.6724C1.00855 13.6404 1.08443 13.6328 1.15626 13.6508C1.17385 13.655 1.191 13.6609 1.20744 13.6685L19.8497 22.002L19.9202 22.0332Z" fill="#3F3D56"/>
<path d="M67.8521 44.2267L68.6577 52.1154L68.6736 52.2774L68.913 54.6168L70.8796 73.8787V73.8819L71.2618 77.619C71.1125 77.8198 70.9805 78.0328 70.8669 78.2558C70.5205 78.9405 70.3511 79.7013 70.3744 80.4686C70.3977 81.2358 70.6128 81.9849 71.0001 82.6473C71.9596 82.4058 72.9058 82.1306 73.8389 81.8214C75.7691 81.1856 77.6516 80.4128 79.4721 79.5089C79.2827 78.4656 78.7386 77.52 77.9321 76.8328L75.9577 53.0746L75.7848 50.9909L75.2218 44.2267H67.8521Z" fill="#FFB8B8"/>
<path d="M73.4984 22.7408C77.5704 18.6629 77.5704 12.0513 73.4984 7.97341C69.4264 3.89551 62.8244 3.89552 58.7524 7.97342C54.6804 12.0513 54.6804 18.6629 58.7524 22.7408C62.8244 26.8187 69.4264 26.8187 73.4984 22.7408Z" fill="#FFB8B8"/>
<path d="M46.6908 58.4556C46.6925 58.4763 46.6941 58.4969 46.6956 58.516C46.7303 58.9233 46.8941 59.3089 47.1632 59.6164C47.4323 59.9238 47.7925 60.1371 48.1912 60.2249L63.7521 63.6284C63.8871 63.658 64.0248 63.6729 64.1629 63.6729C64.5803 63.6727 64.9861 63.5355 65.3181 63.2822C65.6502 63.0288 65.89 62.6735 66.001 62.2705C66.0343 62.1466 66.0708 62.0196 66.1104 61.8877V61.8862C66.6354 60.101 67.5727 57.671 68.9127 54.6169C69.2156 53.926 69.5397 53.2023 69.8849 52.4458C69.9484 52.306 70.0133 52.1647 70.0768 52.0233C70.7889 50.4748 71.5834 48.7987 72.4604 46.995C72.8896 46.1134 73.2137 45.1842 73.4262 44.2268C73.9912 41.6991 73.7681 39.0588 72.7871 36.6621C72.5873 36.1742 72.3569 35.6994 72.0972 35.2406C71.0731 33.4324 69.6218 31.9033 67.8706 30.7872C66.1193 29.671 64.1215 29.002 62.0521 28.8385C61.7237 28.8115 61.3971 28.7988 61.0688 28.7988C57.7852 28.8133 54.6335 30.0943 52.2686 32.3755C50.873 33.7306 49.8134 35.3938 49.1744 37.2323C49.1332 37.3482 49.0951 37.4657 49.0571 37.5833C48.4712 39.4434 48.0008 41.338 47.6487 43.2564C47.4379 44.3951 47.2666 45.518 47.1286 46.6123C46.6449 50.5403 46.4985 54.5026 46.6908 58.4556Z" fill="#006DCC"/>
<path d="M39.8379 78.4098C49.2917 83.7911 60.4552 85.3091 70.9996 82.6472C71.9591 82.4058 72.9053 82.1305 73.8384 81.8213C73.0106 79.1182 72.0224 76.467 70.8791 73.8818V73.8787C68.9728 69.5984 67.222 66.9794 66.3687 65.8232C66.2285 65.6317 66.1361 65.4093 66.0994 65.1747C66.0627 64.9401 66.0827 64.7001 66.1578 64.4748L66.4227 63.6791C66.5235 63.378 66.5477 63.0565 66.4931 62.7437C66.4386 62.4309 66.307 62.1366 66.1102 61.8876V61.886C66.0928 61.8638 66.0737 61.8415 66.0547 61.8193C59.1227 53.91 47.038 58.2252 46.9159 58.2696L46.8556 58.2919L46.8176 58.3443C46.7763 58.4015 46.7351 58.4571 46.6954 58.5158C43.4189 63.1137 41.2414 70.1813 39.8379 78.4098Z" fill="#2F2E41"/>
<path d="M25.589 27.4868C25.6411 27.7162 25.675 27.9493 25.6906 28.1841L43.9275 38.7201L48.3602 36.1646L53.0858 42.36L45.6775 47.6478C45.079 48.075 44.3583 48.2962 43.6236 48.2783C42.8888 48.2604 42.1797 48.0043 41.6027 47.5484L22.7973 32.6912C21.9487 33.0058 21.0244 33.0542 20.1476 32.8299C19.2708 32.6057 18.4829 32.1194 17.8888 31.4358C17.2947 30.7522 16.9225 29.9036 16.8217 29.003C16.7209 28.1024 16.8963 27.1923 17.3245 26.394C17.7528 25.5956 18.4136 24.9467 19.219 24.5336C20.0245 24.1205 20.9365 23.9628 21.8337 24.0814C22.7309 24.2001 23.5707 24.5894 24.2415 25.1977C24.9123 25.806 25.3823 26.6044 25.589 27.4868Z" fill="#FFB8B8"/>
<path d="M44.2078 38.5583V38.5598C44.2739 38.799 44.386 39.0228 44.5377 39.219L47.6492 43.2562L49.1321 45.1827L50.4326 46.8694C50.6002 47.0871 50.8127 47.266 51.0556 47.394C51.2985 47.5219 51.5662 47.596 51.8402 47.6111C52.1143 47.6261 52.3884 47.5819 52.6438 47.4813C52.8993 47.3807 53.1301 47.2262 53.3205 47.0282L58.0433 42.1175L59.9924 40.0893C61.0999 39.2239 61.8195 37.954 61.9934 36.5581C62.1673 35.1622 61.7813 33.7542 60.9202 32.6429C60.059 31.5315 58.7929 30.8075 57.3994 30.6296C56.006 30.4518 54.599 30.8345 53.487 31.694L52.2691 32.3753L45.1181 36.3808C44.7456 36.59 44.4536 36.918 44.2886 37.3126C44.1237 37.7072 44.0953 38.1456 44.2078 38.5583H44.2078Z" fill="#006DCC"/>
<path d="M64.8336 41.0899L65.1318 50.6271L65.1333 50.6875C65.1418 50.9624 65.2093 51.2323 65.3314 51.4786C65.4534 51.725 65.6271 51.9422 65.8405 52.1152C66.054 52.2883 66.3022 52.4132 66.5683 52.4815C66.8343 52.5497 67.1119 52.5597 67.3822 52.5108L68.6731 52.2773L69.003 52.2169H69.0046L70.0767 52.0232L75.7844 50.9908L76.8771 50.7939C77.1471 50.7447 77.4034 50.6379 77.6285 50.4808C77.8537 50.3236 78.0424 50.1197 78.1818 49.883C78.3213 49.6463 78.4083 49.3823 78.4368 49.1089C78.4653 48.8356 78.4348 48.5593 78.3472 48.2988L75.2689 39.1713C75.0115 37.7887 74.2172 36.5647 73.06 35.7677C71.9029 34.9707 70.4773 34.6658 69.096 34.9197C67.7147 35.1737 66.4903 35.9658 65.6913 37.1225C64.8923 38.2791 64.5838 39.7059 64.8336 41.0899Z" fill="#006DCC"/>
<path d="M64.475 12.9553C61.795 14.7922 58.2762 16.6804 55.539 14.7242C53.7417 13.4398 53.1754 11.0614 53.9043 8.97414C55.2149 5.22068 58.8159 3.56823 62.2593 2.30159C66.7358 0.654962 71.61 -0.655004 76.2312 0.52423C80.8525 1.70346 84.9366 6.18422 84.1024 10.8864C83.4315 14.6678 79.8698 17.8142 80.3754 21.6212C80.8843 25.4528 85.187 27.4696 88.9856 28.1543C92.7842 28.8391 97.0349 29.0592 99.7648 31.7916C103.247 35.2773 102.378 41.5077 99.1008 45.1879C95.8239 48.8681 90.8789 50.5363 86.0872 51.6704C79.7385 53.173 72.8718 53.9626 66.8422 51.469C60.8125 48.9753 56.1203 42.2626 57.867 35.9681C58.6048 33.3093 60.3428 31.0622 62.0225 28.8747C63.7023 26.6871 65.4032 24.3995 66.0439 21.7156C66.5778 19.479 66.1826 16.8822 64.7016 15.2045C64.4322 14.9109 64.2627 14.5393 64.2173 14.1431C64.172 13.7469 64.2532 13.3466 64.4493 12.9995L64.475 12.9553Z" fill="#2F2E41"/>
</svg>
